<svg width="72" height="67" viewBox="0 0 72 67" fill="none" xmlns="http://www.w3.org/2000/svg">
<path d="M61.7672 26.5675C60.7762 26.0042 59.5176 26.3537 58.956 27.3481C58.3946 28.3425 58.7429 29.6053 59.734 30.1687C64.4683 32.8597 67.0755 36.1092 67.0755 39.3188C67.0755 46.6562 55.1722 51.1792 47.9663 52.6425C46.8498 52.8693 46.128 53.9611 46.3539 55.0814C46.5801 56.2022 47.6692 56.926 48.7846 56.6991C58.4156 54.7434 71.2005 49.1621 71.2005 39.3188C71.2005 34.5537 67.8503 30.0253 61.7672 26.5675Z" fill="#12B7B6"/>
<path d="M25.6878 57.1446V64.1518C25.6878 64.915 26.1065 65.6163 26.7771 65.9764C27.4461 66.3356 28.2599 66.2979 28.8943 65.8737L41.2693 57.596C41.8431 57.2122 42.1878 56.566 42.1878 55.8741C42.1878 55.1822 41.8431 54.536 41.2693 54.1522L28.8943 45.8745C28.2614 45.4511 27.4476 45.4116 26.7771 45.7719C26.1065 46.1319 25.6878 46.8332 25.6878 47.5964V52.9506C17.989 51.6316 4.92529 47.1122 4.92529 39.3187C4.92529 36.1092 7.53257 32.8596 12.267 30.1687C13.2581 29.6054 13.6064 28.3425 13.0449 27.348C12.4835 26.3536 11.2249 26.0043 10.2338 26.5675C4.15048 30.0252 0.800293 34.5536 0.800293 39.3187C0.800293 49.9111 15.3075 55.4877 25.6878 57.1446ZM29.8128 51.4632L36.407 55.8741L29.8128 60.285V51.4632Z" fill="#12B7B6"/>
<path d="M17.4375 31.0411C17.4375 31.825 17.8789 32.5415 18.5777 32.8922L35.0777 41.1698C35.3624 41.314 35.6943 41.3879 35.9995 41.3882H36.0005C36.3072 41.3879 36.6229 41.3185 36.9224 41.1698L53.4224 32.8922C54.1211 32.5415 54.5625 31.825 54.5625 31.0411V10.3471C54.5625 9.56387 54.1144 8.83889 53.4224 8.49606L36.9224 0.218426C36.3417 -0.0728087 35.6583 -0.0728087 35.0777 0.218426L18.5777 8.49606C17.8771 8.84758 17.4375 9.57091 17.4375 10.3471V31.0411ZM21.5625 13.6955L33.9375 19.9037V35.9705L21.5625 29.7623V13.6955ZM50.4375 29.7621L38.0625 35.9703V19.9037L50.4375 13.6955V29.7621ZM36 4.38318L47.8881 10.3471L36 16.311L24.1119 10.3471L36 4.38318Z" fill="#12B7B6"/>
</svg>
