<svg width="46" height="47" viewBox="0 0 46 47" fill="none" xmlns="http://www.w3.org/2000/svg">
<path d="M16.2915 36.5947H4.79163C2.14857 36.5947 0 34.437 0 31.787V8.71005C0 6.06004 2.14857 3.90234 4.79163 3.90234H33.5414C36.1844 3.90234 38.333 6.06004 38.333 8.71005V16.4024C38.333 16.9351 37.9037 17.3639 37.3747 17.3639C36.8457 17.3639 36.4164 16.9351 36.4164 16.4024V8.71005C36.4164 7.11966 35.1265 5.82543 33.5414 5.82543H4.79163C3.20656 5.82543 1.91665 7.11966 1.91665 8.71005V31.787C1.91665 33.3774 3.20656 34.6716 4.79163 34.6716H16.2915C16.8205 34.6716 17.2499 35.1024 17.2499 35.6332C17.2499 36.164 16.8205 36.5947 16.2915 36.5947Z" fill="#12B7B6"/>
<path d="M37.3747 13.5176H0.958325C0.42933 13.5176 0 13.0869 0 12.5562C0 12.0254 0.42933 11.5947 0.958325 11.5947H37.3747C37.9037 11.5947 38.333 12.0254 38.333 12.5562C38.333 13.0869 37.9037 13.5176 37.3747 13.5176Z" fill="#12B7B6"/>
<path d="M8.62482 9.67188C8.09583 9.67188 7.6665 9.24109 7.6665 8.7103V1.01772C7.6665 0.486937 8.09583 0.0561523 8.62482 0.0561523C9.15381 0.0561523 9.58313 0.486937 9.58313 1.01772V8.7103C9.58313 9.24109 9.15381 9.67188 8.62482 9.67188Z" fill="#12B7B6"/>
<path d="M29.7078 9.67188C29.1788 9.67188 28.7495 9.24109 28.7495 8.7103V1.01772C28.7495 0.486937 29.1788 0.0561523 29.7078 0.0561523C30.2368 0.0561523 30.6661 0.486937 30.6661 1.01772V8.7103C30.6661 9.24109 30.2368 9.67188 29.7078 9.67188Z" fill="#12B7B6"/>
<path d="M31.6246 38.5181C31.3697 38.5181 31.1263 38.4161 30.9461 38.2373L27.1128 34.3912C26.7391 34.0162 26.7391 33.4066 27.1128 33.0316C27.4866 32.6566 28.0941 32.6566 28.4679 33.0316L31.5767 36.1508L37.6102 29.2316C37.9591 28.8297 38.5647 28.7912 38.9615 29.1412C39.3601 29.4912 39.4004 30.0989 39.0515 30.4989L32.3433 38.1911C32.1689 38.3911 31.9197 38.5104 31.6553 38.5181C31.6457 38.5181 31.6361 38.5181 31.6246 38.5181Z" fill="#12B7B6"/>
<path d="M33.5413 46.21C26.672 46.21 21.083 40.6023 21.083 33.71C21.083 26.8177 26.672 21.21 33.5413 21.21C40.4105 21.21 45.9995 26.8177 45.9995 33.71C45.9995 40.6023 40.4105 46.21 33.5413 46.21ZM33.5413 23.133C27.73 23.133 22.9997 27.8773 22.9997 33.71C22.9997 39.5427 27.73 44.2869 33.5413 44.2869C39.3526 44.2869 44.0829 39.5427 44.0829 33.71C44.0829 27.8773 39.3526 23.133 33.5413 23.133Z" fill="#12B7B6"/>
</svg>
