<svg width="56" height="48" viewBox="0 0 56 48" fill="none" xmlns="http://www.w3.org/2000/svg">
<path d="M29.7153 16.6631L25.8405 13.58V8.1575C25.8405 7.64771 25.4274 7.23438 24.9179 7.23438H22.1503C21.6409 7.23438 21.2278 7.64771 21.2278 8.1575V9.91135L18.6855 7.88976C18.0143 7.35382 17.0611 7.35382 16.3899 7.88976L5.39979 16.6329C4.64438 17.1665 4.23401 18.0653 4.32501 18.9862C4.41645 19.9075 4.99528 20.708 5.84078 21.0831C6.68628 21.4585 7.66782 21.3494 8.41107 20.7986L10.1575 19.4843V28.4663C10.1575 29.4858 10.9836 30.3125 12.0025 30.3125H23.0729C24.0918 30.3125 24.9179 29.4858 24.9179 28.4663V19.4852L26.6706 20.8045C27.8139 21.6456 29.4225 21.3999 30.263 20.2559C31.1036 19.1119 30.8585 17.5023 29.7153 16.6612V16.6631ZM23.0729 9.08063H23.9954V12.1132L23.0729 11.3745V9.08063ZM15.6926 28.4663V24.7738H19.3828V28.4663H15.6926ZM23.0729 28.4663H21.2278V23.8506C21.2278 23.3408 20.8147 22.9275 20.3053 22.9275H14.7701C14.2607 22.9275 13.8476 23.3408 13.8476 23.8506V28.4663H12.0025V18.096L17.5377 13.9279L23.0729 18.096V28.4663ZM28.7927 19.1354C28.6842 19.2963 28.5157 19.4072 28.3252 19.4432C28.1346 19.4793 27.9373 19.4378 27.7779 19.3274L18.0913 12.0348C17.7634 11.7882 17.312 11.7882 16.9841 12.0348L7.31061 19.317C7.1507 19.4338 6.95025 19.4802 6.75565 19.445C6.5606 19.4103 6.38853 19.2977 6.27907 19.1327C6.17186 18.9668 6.13538 18.7649 6.17817 18.572C6.22096 18.379 6.33898 18.2114 6.5061 18.1059L17.5377 9.3362L28.608 18.1392C28.9301 18.3655 29.0121 18.8086 28.7927 19.1354Z" fill="#12B7B6"/>
<path d="M14.6626 18.3411C14.6626 19.8545 15.8855 21.0815 17.3939 21.0815C18.9022 21.0815 20.1251 19.8545 20.1251 18.3411C20.1251 16.8276 18.9022 15.6006 17.3939 15.6006C15.8855 15.6006 14.6626 16.8276 14.6626 18.3411ZM18.3043 18.3411C18.3043 18.8455 17.8966 19.2546 17.3939 19.2546C16.8911 19.2546 16.4834 18.8455 16.4834 18.3411C16.4834 17.8366 16.8911 17.4276 17.3939 17.4276C17.8966 17.4276 18.3043 17.8366 18.3043 18.3411Z" fill="#12B7B6"/>
<path d="M50.6002 0.888184H4.60002C2.06057 0.891339 0.00314455 2.95568 0 5.50366V33.1965C0.00314455 35.7445 2.06057 37.8089 4.60002 37.812H35.8801V39.6582H34.9601C34.4521 39.6582 34.0401 40.0715 34.0401 40.5813V46.1199C34.0401 46.6297 34.4521 47.043 34.9601 47.043H51.5202C52.0282 47.043 52.4402 46.6297 52.4402 46.1199V40.5813C52.4402 40.0715 52.0282 39.6582 51.5202 39.6582H50.6002V37.812C53.1396 37.8089 55.197 35.7445 55.2002 33.1965V5.50366C55.197 2.95568 53.1396 0.891339 50.6002 0.888184ZM50.6002 45.1968H35.8801V41.5044H50.6002V45.1968ZM37.7201 39.6582V34.1196C37.7215 33.9767 37.69 33.8357 37.628 33.7072L34.9601 28.3634V21.1963C34.9601 20.6865 35.3721 20.2732 35.8801 20.2732C36.3882 20.2732 36.8001 20.6865 36.8001 21.1963V26.7349H38.6401V21.1963C38.6379 20.4129 38.3032 19.6679 37.7201 19.1468V13.8115C37.7201 13.3017 38.1321 12.8884 38.6401 12.8884C38.8886 12.888 39.1257 12.9903 39.296 13.1719C39.4672 13.3401 39.5624 13.5713 39.5601 13.8115V23.9656H41.4001V18.427C41.4001 17.9172 41.8121 17.5039 42.3201 17.5039C42.8282 17.5039 43.2402 17.9172 43.2402 18.427V24.8887H45.0802V19.3501C45.0802 18.8403 45.4921 18.427 46.0002 18.427C46.5082 18.427 46.9202 18.8403 46.9202 19.3501V24.8887H48.7602V21.1963C48.7602 20.6865 49.1721 20.2732 49.6802 20.2732C50.1882 20.2732 50.6002 20.6865 50.6002 21.1963V30.2776L48.8078 35.6742C48.7763 35.7679 48.7606 35.8667 48.7602 35.9658V39.6582H37.7201ZM41.3763 13.5677C41.3296 12.9249 41.0529 12.3205 40.5969 11.8666C40.0839 11.3357 39.3773 11.0377 38.6401 11.0422C37.1159 11.0422 35.8801 12.2822 35.8801 13.8115H34.9601C33.944 13.8115 33.1201 12.9849 33.1201 11.9653C33.1201 10.9458 33.944 10.1191 34.9601 10.1191H40.4801C41.322 10.1074 42.0627 10.674 42.2752 11.4912C42.4877 12.3083 42.1167 13.1656 41.3763 13.5677ZM53.3602 33.1965C53.3575 34.7038 52.1536 35.932 50.6518 35.9604L52.3926 30.7189C52.424 30.6251 52.4397 30.5264 52.4402 30.4272V21.1963C52.4433 20.2759 51.9892 19.415 51.2291 18.8998C50.469 18.3846 49.5032 18.2837 48.6533 18.6303C48.4403 17.8018 47.8527 17.1212 47.0662 16.7913C46.2796 16.4614 45.3843 16.52 44.6467 16.95C43.9706 15.8461 42.6108 15.376 41.4001 15.8276V15.5266C43.0263 15.1168 44.1651 13.6479 44.1602 11.9653C44.1602 9.92623 42.5124 8.27295 40.4801 8.27295H34.9601C32.9278 8.27295 31.2801 9.92623 31.2801 11.9653C31.2801 14.0044 32.9278 15.6577 34.9601 15.6577H35.8801V18.427C34.3559 18.427 33.1201 19.667 33.1201 21.1963V28.5811C33.1188 28.7239 33.1502 28.865 33.2122 28.9935L35.8801 34.3373V35.9658H4.60002C3.07581 35.9658 1.84001 34.7259 1.84001 33.1965V5.50366C1.84001 3.97433 3.07581 2.73438 4.60002 2.73438H47.8402V15.6577H49.6802V2.73438H50.6002C52.1244 2.73438 53.3602 3.97433 53.3602 5.50366V33.1965Z" fill="#12B7B6"/>
</svg>
