<svg width="31" height="31" viewBox="0 0 31 31" fill="none" xmlns="http://www.w3.org/2000/svg">
<path d="M18.3603 30.0542C17.8148 30.0542 17.283 29.8352 16.8875 29.4246L1.01333 12.9038C0.536018 12.3974 0.331447 11.6857 0.495098 11.0013C0.658749 10.3169 1.14973 9.76942 1.80434 9.53674L27.7839 0.325086C28.534 0.0513373 29.3795 0.256653 29.9387 0.831525C30.4978 1.4064 30.6614 2.25502 30.375 3.00783L20.2696 28.7402C20.0105 29.3972 19.4514 29.8626 18.7695 29.9994C18.6195 30.0405 18.4831 30.0542 18.3603 30.0542ZM6.15473 12.3427L17.6103 24.2644L24.9064 5.69057L6.15473 12.3427Z" fill="#4D4D4D"/>
</svg>
