<svg width="96" height="66" viewBox="0 0 96 66" fill="none" xmlns="http://www.w3.org/2000/svg">
<path d="M95.9408 34.4146C95.7771 34.0226 95.4634 33.7105 95.068 33.5463C94.6727 33.3821 94.2278 33.3791 93.8302 33.5379L82.349 38.1093L69.6858 7.00712L80.2385 3.06196C80.4453 2.99908 80.6368 2.89495 80.8013 2.75598C80.9658 2.61701 81.0998 2.44617 81.1949 2.25399C81.2901 2.06181 81.3444 1.85239 81.3545 1.63864C81.3646 1.4249 81.3303 1.21137 81.2537 1.01126C81.1771 0.81114 81.0598 0.62868 80.9091 0.47514C80.7585 0.321599 80.5775 0.200235 80.3776 0.118551C80.1776 0.0368672 79.9628 -0.00339769 79.7465 0.000224375C79.5302 0.00384644 79.3169 0.051289 79.1199 0.139621L67.1321 4.64838C66.8821 4.76055 66.6645 4.93276 66.4989 5.14935C63.1052 4.91987 59.7024 5.44039 56.5373 6.67315L44.254 11.5576L43.8952 11.3072C40.9696 9.37688 37.6326 8.14103 34.1446 7.69597C34.0569 7.58843 33.9579 7.49047 33.8491 7.40373L23.592 0.3066C23.4202 0.188728 23.2265 0.105494 23.0221 0.0616332C22.8178 0.0177728 22.6067 0.0141509 22.4009 0.050979C22.1951 0.0878071 21.9987 0.164368 21.8229 0.276278C21.647 0.388187 21.4951 0.533255 21.3759 0.703209C21.2568 0.873164 21.1726 1.06467 21.1283 1.2668C21.0839 1.46892 21.0802 1.67771 21.1175 1.88124C21.1547 2.08476 21.2321 2.27903 21.3453 2.45296C21.4584 2.6269 21.6051 2.7771 21.7769 2.89498L30.7678 9.15715L11.7731 36.8777L2.46566 29.6762C2.13325 29.4553 1.7285 29.3672 1.33305 29.4297C0.937588 29.4923 0.580831 29.7007 0.334592 30.0131C0.0883523 30.3254 -0.0290366 30.7185 0.00611068 31.1131C0.041258 31.5076 0.226283 31.8743 0.523952 32.1393L11.0766 40.4889C11.3493 40.7116 11.6939 40.8301 12.0475 40.8229H12.1741C13.0933 42.282 14.1765 43.6335 15.4032 44.8515C15.2239 45.6694 15.2317 46.5165 15.426 47.3309C15.6203 48.1454 15.9962 48.9066 16.5263 49.5589C17.0563 50.2112 17.7271 50.7381 18.4895 51.101C19.2519 51.4639 20.0866 51.6536 20.9327 51.6564C21.2344 51.6873 21.5385 51.6873 21.8403 51.6564H21.9669V51.7817C22.1694 53.1037 22.8457 54.3096 23.8725 55.1795C24.8992 56.0493 26.2078 56.5251 27.5598 56.52H28.4673H28.594V56.6453C28.9632 58.0658 29.8798 59.287 31.1477 60.0477C32.1218 60.7339 33.2864 61.1057 34.4823 61.1123C34.7844 61.133 35.0877 61.133 35.3898 61.1123H35.5165V61.2584C35.6274 61.9855 35.8844 62.6833 36.2722 63.3107C36.6601 63.938 37.1709 64.4823 37.7747 64.9114C38.3781 65.3494 39.0631 65.6652 39.7903 65.8404C40.5175 66.0156 41.2726 66.0469 42.0121 65.9325C42.7516 65.818 43.4609 65.5601 44.0992 65.1735C44.7375 64.7869 45.2922 64.2792 45.7314 63.6798L46.5334 62.5944L48.6439 64.0764C49.561 64.687 50.6409 65.014 51.7464 65.0157C52.7164 64.9703 53.6589 64.6822 54.4857 64.1784C55.3125 63.6746 55.9966 62.9716 56.4739 62.1351C56.9431 61.4469 57.2463 60.6613 57.3604 59.839L58.2679 60.4443C59.1915 61.0577 60.279 61.3848 61.3914 61.3837C61.7531 61.3903 62.1143 61.3552 62.4678 61.2793C63.217 61.1371 63.9291 60.8453 64.5604 60.4218C65.1918 59.9983 65.7293 59.452 66.1401 58.8162C66.787 57.8528 67.1186 56.716 67.0899 55.5599H67.3854C68.3361 55.5561 69.2711 55.3196 70.1071 54.8717C70.943 54.4237 71.6539 53.778 72.1762 52.9923C72.7146 52.192 73.0327 51.2667 73.0993 50.3077C73.166 49.3487 72.9787 48.389 72.5561 47.5234C73.0227 47.3374 73.4626 47.0918 73.8646 46.7928C76.708 45.5985 79.262 43.8196 81.357 41.5743H81.4837C81.6875 41.5752 81.8891 41.5325 82.0746 41.4491L95.0332 36.3141C95.3897 36.1578 95.6776 35.88 95.8442 35.5313C96.0108 35.1826 96.0451 34.7862 95.9408 34.4146ZM23.1699 47.3146C22.9749 47.5779 22.7289 47.8002 22.4463 47.9686C22.1637 48.137 21.8501 48.2482 21.5237 48.2957C21.1965 48.3461 20.8625 48.332 20.5408 48.2542C20.2192 48.1764 19.9163 48.0365 19.6495 47.8425C19.3828 47.6485 19.1574 47.4043 18.9865 47.1238C18.8155 46.8434 18.7023 46.5322 18.6533 46.2083C18.552 45.5557 18.7109 44.8896 19.0966 44.3506L24.6895 36.7733C25.0827 36.2372 25.6746 35.877 26.3357 35.7714H26.7367C27.2658 35.7667 27.7828 35.9274 28.214 36.2306C28.4827 36.4209 28.7094 36.6635 28.8799 36.9434C29.0505 37.2234 29.1614 37.5349 29.206 37.8588C29.262 38.182 29.2516 38.5131 29.1755 38.8323C29.0993 39.1514 28.959 39.4522 28.7628 39.7166L23.1699 47.3146ZM29.7969 52.0739C29.6039 52.341 29.3588 52.5672 29.0761 52.7393C28.7934 52.9114 28.4788 53.0258 28.1507 53.0759C27.8235 53.1262 27.4895 53.1121 27.1679 53.0344C26.8463 52.9566 26.5433 52.8167 26.2766 52.6227C26.0098 52.4286 25.7844 52.1844 25.6135 51.9039C25.4425 51.6235 25.3293 51.3124 25.2804 50.9885C25.2286 50.6638 25.2429 50.3322 25.3227 50.0132C25.4024 49.6941 25.5459 49.3941 25.7447 49.1307L31.3165 41.5326L33.5959 38.4432C33.7883 38.1775 34.0335 37.9534 34.3166 37.7847C34.5997 37.616 34.9146 37.5062 35.2421 37.4622C35.375 37.4418 35.5102 37.4418 35.6431 37.4622C36.1743 37.465 36.6911 37.633 37.1204 37.9423C37.3905 38.1332 37.6193 38.3756 37.7932 38.6552C37.9672 38.9348 38.0829 39.246 38.1335 39.5704C38.2266 40.2257 38.0602 40.8913 37.6692 41.4282L29.7969 52.0739ZM36.424 56.854C36.2385 57.1379 35.9964 57.3814 35.7125 57.5695C35.4286 57.7577 35.1089 57.8866 34.7729 57.9483C34.4369 58.01 34.0917 58.0032 33.7584 57.9284C33.4252 57.8535 33.1109 57.7122 32.8348 57.5131C32.5586 57.314 32.3265 57.0612 32.1526 56.7702C31.9786 56.4793 31.8666 56.1563 31.8232 55.821C31.7799 55.4857 31.8061 55.1453 31.9005 54.8204C31.9948 54.4955 32.1552 54.1931 32.3717 53.9317L37.9436 46.3336C38.3399 45.8016 38.9327 45.4461 39.5929 45.3444C40.253 45.2428 40.9271 45.4032 41.4682 45.7909C41.7391 45.9814 41.9687 46.2236 42.1435 46.5033C42.3183 46.783 42.4347 47.0945 42.4858 47.4194C42.5369 47.7443 42.5218 48.076 42.4412 48.395C42.3607 48.714 42.2164 49.0138 42.0168 49.2768L39.7797 52.3035L36.424 56.854ZM46.4068 57.0836L43.0511 61.6341C42.8574 61.8923 42.6141 62.1101 42.3352 62.275C42.0562 62.44 41.7471 62.5488 41.4255 62.5953C41.104 62.6419 40.7763 62.6252 40.4613 62.5462C40.1462 62.4673 39.8501 62.3275 39.5898 62.1351C39.3188 61.9446 39.0892 61.7023 38.9144 61.4227C38.7397 61.143 38.6233 60.8315 38.5721 60.5066C38.521 60.1817 38.5361 59.85 38.6166 59.531C38.6972 59.212 38.8415 58.9122 39.041 58.6492L42.3757 54.0987C42.7773 53.5754 43.3664 53.2243 44.0219 53.1176H44.4229C45.0202 53.1192 45.5978 53.3295 46.0535 53.7115C46.5092 54.0935 46.8137 54.6224 46.9133 55.205C46.9622 55.5357 46.9425 55.8729 46.8554 56.1958C46.7683 56.5188 46.6157 56.8209 46.4068 57.0836ZM53.7725 60.6113C53.5942 60.8737 53.3652 61.0985 53.0988 61.2731C52.8324 61.4477 52.5337 61.5685 52.22 61.6286C51.9062 61.6888 51.5836 61.687 51.2705 61.6235C50.9574 61.5599 50.6601 61.4359 50.3956 61.2584L48.2851 59.8599L48.9816 58.9206C49.8016 57.7902 50.1699 56.3999 50.0158 55.0171L53.266 57.1045C53.5187 57.2759 53.7345 57.4952 53.9012 57.7495C54.0678 58.0039 54.1819 58.2884 54.2368 58.5866C54.3131 58.9371 54.3111 59.3 54.2309 59.6497C54.1507 59.9994 53.9942 60.3276 53.7725 60.6113ZM72.6406 43.8078C72.5449 43.947 72.4314 44.0733 72.3029 44.1836C72.0862 44.2735 71.8918 44.4088 71.7331 44.5802C71.4531 44.7325 71.1439 44.825 70.8255 44.8515C70.5924 44.8771 70.3685 44.9557 70.1712 45.0811L52.5273 33.3083C52.1885 33.0969 51.7805 33.0223 51.3877 33.1C50.9949 33.1777 50.6473 33.4017 50.4168 33.7257C50.2081 34.0622 50.1356 34.4642 50.2139 34.8513C50.2921 35.2384 50.5154 35.5819 50.8388 35.8131L68.9893 47.92C69.5491 48.2882 69.938 48.8612 70.0706 49.5129C70.2032 50.1647 70.0686 50.8419 69.6964 51.3955C69.3242 51.9491 68.7448 52.3338 68.0858 52.465C67.4268 52.5961 66.7421 52.4629 66.1824 52.0948L47.9052 39.9044C47.5664 39.693 47.1585 39.6185 46.7657 39.6962C46.3729 39.7739 46.0252 39.9979 45.7947 40.3219C45.586 40.6584 45.5135 41.0604 45.5918 41.4475C45.6701 41.8345 45.8934 42.1781 46.2168 42.4093L63.101 53.6603C63.3713 53.8489 63.6005 54.0893 63.775 54.3672C63.9495 54.645 64.0658 54.9548 64.117 55.278C64.1682 55.6012 64.1532 55.9312 64.0729 56.2486C63.9927 56.5659 63.8487 56.8641 63.6497 57.1254C63.4733 57.3899 63.2453 57.6169 62.979 57.7931C62.7127 57.9693 62.4134 58.0911 62.0989 58.1514C61.7844 58.2116 61.4608 58.2092 61.1473 58.1441C60.8337 58.0791 60.5364 57.9527 60.2729 57.7725L55.2921 54.4744L45.9425 48.2122C45.9953 47.7475 45.9953 47.2784 45.9425 46.8137C45.8316 46.0813 45.5727 45.3784 45.181 44.7472C44.7894 44.116 44.2731 43.5693 43.6631 43.1399C42.925 42.6012 42.0609 42.2565 41.1515 42.1379C41.6047 41.1371 41.7585 40.0288 41.5948 38.9442C41.3558 37.4721 40.5387 36.1528 39.3214 35.2733C38.1041 34.3938 36.585 34.0252 35.0943 34.2476C33.9952 34.4269 32.9703 34.912 32.1396 35.6461C31.7429 34.8215 31.1489 34.105 30.409 33.5587C29.1899 32.686 27.6712 32.3257 26.1845 32.5565C24.6978 32.7872 23.3637 33.5902 22.4734 34.7903L17.4715 41.5952C16.5218 40.546 15.7001 39.39 15.0232 38.151L33.8069 10.5974C36.3029 10.8997 38.7172 11.6721 40.9194 12.8727L33.2582 15.9203C33.0602 15.9979 32.8801 16.1142 32.7286 16.2622C32.5771 16.4103 32.4573 16.587 32.3765 16.7819C32.2957 16.9768 32.2556 17.1858 32.2584 17.3964C32.2612 17.6071 32.3069 17.815 32.3929 18.0077C33.3554 20.3784 35.2278 22.2758 37.6008 23.285C39.9737 24.2942 42.6541 24.3331 45.056 23.3932L50.3745 21.3058L53.4348 26.1903C54.477 27.8268 55.8883 29.2024 57.558 30.2092C59.2277 31.216 61.1105 31.8266 63.0588 31.9932L71.8597 40.1966L72.0707 40.3428C72.3403 40.5316 72.5691 40.7716 72.744 41.0488C72.9189 41.326 73.0363 41.6348 73.0893 41.9573C73.1423 42.2798 73.1299 42.6095 73.0529 42.9272C72.9759 43.2449 72.8357 43.5442 72.6406 43.8078ZM76.2707 42.0127C76.2287 41.1883 75.9979 40.3842 75.5957 39.661C75.1936 38.9378 74.6305 38.3144 73.9491 37.8379L67.3221 31.5757C68.5772 31.2643 69.7741 30.7569 70.8677 30.0728C71.1895 29.8395 71.4104 29.4946 71.4861 29.1072C71.5618 28.7197 71.4867 28.3183 71.276 27.9833C71.0652 27.6482 70.7344 27.4042 70.3495 27.3001C69.9647 27.196 69.5542 27.2395 69.2004 27.4218C67.0648 28.7417 64.4867 29.1687 62.0329 28.609C59.5791 28.0492 57.4504 26.5485 56.1151 24.4369L52.3584 18.4669C52.1656 18.1536 51.8678 17.9173 51.5168 17.799C51.1658 17.6807 50.784 17.6881 50.4379 17.8198L43.8108 20.3873C43.0083 20.718 42.1475 20.8883 41.2782 20.8883C40.4088 20.8883 39.5481 20.718 38.7456 20.3873C37.625 19.9236 36.6594 19.1567 35.9597 18.1747L57.6558 9.57462C60.5631 8.43533 63.7033 7.9988 66.8155 8.30131L79.3309 39.1947C78.4177 40.2415 77.3915 41.1864 76.2707 42.0127Z" fill="#12B7B6"/>
</svg>
