<svg width="341" height="127" viewBox="0 0 341 127" fill="none" xmlns="http://www.w3.org/2000/svg">
<path d="M334.141 124.162C333.459 122.396 334.332 120.411 336.091 119.727C337.837 119.042 339.814 119.918 340.496 121.684C341.178 123.436 340.305 125.421 338.559 126.105C338.15 126.269 337.728 126.352 337.318 126.352C335.955 126.352 334.659 125.517 334.141 124.162ZM324.649 103.535C323.749 101.865 324.363 99.7978 326.026 98.8944C327.677 98.0048 329.75 98.6207 330.636 100.277V100.291C331.536 101.947 330.922 104.014 329.259 104.917C328.74 105.204 328.195 105.328 327.649 105.328C326.436 105.328 325.263 104.684 324.649 103.535ZM1.91628 95.9106C0.30705 94.9251 -0.197538 92.8172 0.784367 91.2021C1.76627 89.6006 3.86645 89.0942 5.47568 90.0797C7.08492 91.0652 7.58951 93.1731 6.59397 94.7882C5.953 95.8421 4.83472 96.417 3.68916 96.417C3.07547 96.417 2.46178 96.2528 1.91628 95.9106ZM312.675 84.2351C311.584 82.7021 311.953 80.5669 313.48 79.4719C315.021 78.3769 317.148 78.7328 318.239 80.2794C319.33 81.8124 318.976 83.9477 317.435 85.0427C316.835 85.467 316.139 85.6723 315.457 85.6723C314.394 85.6723 313.344 85.1796 312.675 84.2351ZM14.8038 76.7207C13.3309 75.5436 13.0854 73.3946 14.2583 71.9164C15.4311 70.4381 17.5722 70.1918 19.0451 71.3689C20.5179 72.546 20.7634 74.695 19.5906 76.1732C19.5906 76.1732 19.5906 76.1732 19.5906 76.1869C18.9223 77.0355 17.9268 77.4735 16.9176 77.4735C16.1812 77.4735 15.4311 77.2271 14.8038 76.7207ZM298.451 66.5646C297.183 65.1685 297.279 63.0058 298.67 61.7329C300.047 60.46 302.202 60.5558 303.484 61.9519C304.752 63.3343 304.656 65.5106 303.265 66.7836C302.611 67.3858 301.793 67.6733 300.961 67.6733C300.047 67.6733 299.12 67.3037 298.451 66.5646ZM29.9415 59.2691C28.6186 57.9141 28.6459 55.7514 29.996 54.4238C31.3325 53.0961 33.5009 53.1234 34.8101 54.4785C36.1329 55.8199 36.1056 57.9962 34.7555 59.3102C34.1009 59.9672 33.2417 60.2957 32.3826 60.2957C31.4961 60.2957 30.6097 59.9535 29.9415 59.2691ZM282.168 50.7829C280.736 49.551 280.573 47.3884 281.8 45.9512C283.014 44.5277 285.168 44.3498 286.6 45.5816C288.032 46.7998 288.196 48.9625 286.982 50.3996C286.3 51.1935 285.346 51.6041 284.377 51.6041C283.6 51.6041 282.809 51.3304 282.168 50.7829ZM47.0975 43.8023C45.952 42.2966 46.2384 40.1477 47.7385 38.998C49.225 37.8482 51.3661 38.1356 52.5116 39.6413C53.6572 41.1469 53.3708 43.2958 51.8707 44.4456C51.257 44.911 50.5342 45.1436 49.8114 45.1436C48.7886 45.1436 47.7658 44.6783 47.0975 43.8023ZM264.098 37.1228C262.516 36.0825 262.094 33.961 263.13 32.3732C264.167 30.7991 266.28 30.3748 267.849 31.4151C269.417 32.4553 269.853 34.5769 268.817 36.151C268.162 37.1502 267.071 37.684 265.967 37.684C265.326 37.684 264.671 37.506 264.098 37.1228ZM66.0128 30.5665C65.0582 28.924 65.6037 26.8298 67.2402 25.8716V25.8853C68.8631 24.9272 70.9496 25.4747 71.9042 27.1035C72.8452 28.7323 72.2997 30.8265 70.6769 31.7846C70.145 32.0995 69.5449 32.25 68.9585 32.25C67.7857 32.25 66.6538 31.6478 66.0128 30.5665ZM244.488 25.8032C242.796 24.9546 242.115 22.9015 242.946 21.2042C243.778 19.5207 245.824 18.8226 247.515 19.6712C249.206 20.5062 249.888 22.5593 249.056 24.2565C248.456 25.461 247.256 26.1591 246.001 26.1591C245.483 26.1591 244.965 26.0359 244.488 25.8032ZM86.4146 19.7533C85.6645 18.015 86.4691 16.003 88.2011 15.2638C89.9331 14.5247 91.9378 15.3186 92.6879 17.0569C93.4243 18.7952 92.6197 20.8073 90.8877 21.5601C90.4513 21.738 90.0013 21.8338 89.5512 21.8338C88.2284 21.8338 86.9737 21.0536 86.4146 19.7533ZM223.649 16.9885C221.863 16.3725 220.922 14.4152 221.549 12.6358C222.163 10.8565 224.113 9.91203 225.886 10.528C227.672 11.1576 228.6 13.1149 227.986 14.8943C227.495 16.3041 226.172 17.1801 224.768 17.1801C224.399 17.1801 224.018 17.1253 223.649 16.9885ZM107.989 11.5682C107.471 9.76146 108.507 7.8589 110.321 7.33878C112.135 6.81865 114.017 7.85891 114.549 9.67934C115.067 11.4998 114.017 13.3887 112.217 13.9088C111.89 14.0046 111.576 14.0457 111.262 14.0457C109.789 14.0457 108.426 13.0738 107.989 11.5682ZM201.857 10.8428C200.015 10.4458 198.843 8.63909 199.238 6.77759C199.634 4.92978 201.447 3.76634 203.288 4.16328C205.13 4.56022 206.302 6.36697 205.907 8.22847C205.566 9.8299 204.148 10.9249 202.579 10.9249C202.334 10.9249 202.102 10.8975 201.857 10.8428ZM130.409 6.14797C130.123 4.27278 131.391 2.52078 133.246 2.23334C135.114 1.93222 136.86 3.20516 137.146 5.08034C137.446 6.94184 136.178 8.69384 134.31 8.99497C134.132 9.02234 133.955 9.03603 133.778 9.03603C132.128 9.03603 130.682 7.83153 130.409 6.14797ZM179.477 7.46197C177.609 7.29772 176.218 5.62784 176.382 3.75265C176.545 1.86378 178.209 0.467655 180.077 0.645592C181.959 0.809842 183.337 2.46603 183.173 4.3549C183.023 6.13428 181.523 7.47566 179.777 7.47566C179.682 7.47566 179.573 7.46197 179.477 7.46197ZM153.32 3.53365C153.266 1.64478 154.739 0.0570336 156.621 0.00228361C158.503 -0.0661539 160.085 1.4121 160.139 3.30097C160.207 5.18984 158.735 6.77759 156.853 6.84603C156.812 6.84603 156.771 6.84603 156.73 6.84603C154.902 6.84603 153.389 5.38147 153.32 3.53365Z" fill="#4D4D4D"/>
</svg>
