<svg width="82" height="75" viewBox="0 0 82 75" fill="none" xmlns="http://www.w3.org/2000/svg">
<path d="M81.7339 49.5633C81.2433 48.4482 80.3846 47.5424 79.3064 47.0023C78.2282 46.4622 76.9981 46.3219 75.8288 46.6056L61.1284 49.7957C60.8012 48.2601 59.967 46.8844 58.7643 45.8968C57.5616 44.9092 56.0627 44.3691 54.5164 44.3661H41.521L40.1695 43.3309C36.4657 40.5695 32.121 38.8301 27.5588 38.2821C22.9966 37.7342 18.3725 38.3964 14.1371 40.2042L9.81223 42.1478L9.18845 40.9647C9.08404 40.7708 8.94086 40.6013 8.76811 40.467C8.59536 40.3326 8.39687 40.2365 8.18538 40.1848C7.97389 40.133 7.75409 40.1269 7.5401 40.1666C7.32611 40.2063 7.12267 40.2911 6.94285 40.4155L0.705057 44.6408C0.372594 44.862 0.135811 45.2039 0.0430646 45.5965C-0.049682 45.9892 0.00861095 46.403 0.206038 46.7535L14.7609 74.2182C14.8646 74.4119 15.0069 74.5815 15.1787 74.7161C15.3506 74.8507 15.5482 74.9473 15.7589 74.9999H16.1332C16.4454 75.0031 16.7507 74.9071 17.0065 74.7253L23.2443 70.4999C23.4526 70.354 23.6224 70.1582 23.7384 69.9297C23.8545 69.7012 23.9133 69.4472 23.9096 69.1901L25.2196 69.5915C28.3638 70.4119 31.6005 70.8097 34.8466 70.7746C40.1856 70.8048 45.4895 69.8971 50.5242 68.0915L79.0309 55.9013C80.1736 55.3721 81.0824 54.4311 81.5817 53.2604C82.081 52.0896 82.1353 50.7724 81.7339 49.5633ZM16.6114 71.1337L3.57444 46.4788L7.21315 44.007L20.2085 68.6619L16.6114 71.1337ZM77.617 53.0492L49.3182 65.1549C44.6423 66.8197 39.7179 67.6489 34.7634 67.6056C31.7911 67.6379 28.8273 67.2757 25.9473 66.5281L22.7245 65.5563C22.5185 65.5147 22.3066 65.5147 22.1007 65.5563L11.2053 45.0211L15.3639 43.183C19.0843 41.591 23.1476 41.0072 27.1566 41.4886C31.1656 41.97 34.9831 43.5002 38.2358 45.9295L40.0031 47.2816C40.2724 47.4887 40.6011 47.6001 40.9388 47.5985H54.454C55.4191 47.5985 56.3446 47.9881 57.027 48.6814C57.7094 49.3748 58.0927 50.3152 58.0927 51.2957C58.0927 52.2763 57.7094 53.2167 57.027 53.91C56.3446 54.6034 55.4191 54.9929 54.454 54.9929H34.7634C34.3498 54.9929 33.9531 55.1598 33.6607 55.457C33.3682 55.7541 33.2039 56.1572 33.2039 56.5774C33.2039 56.9976 33.3682 57.4007 33.6607 57.6978C33.9531 57.995 34.3498 58.1619 34.7634 58.1619H54.5164C55.9901 58.1602 57.4227 57.6674 58.5944 56.7592C59.7662 55.851 60.6125 54.5775 61.0037 53.1337L76.515 49.7746C76.9665 49.6577 77.4435 49.6984 77.8696 49.8899C78.2956 50.0815 78.646 50.4128 78.8646 50.8309C79.2388 51.7183 78.22 52.7112 77.617 53.0492ZM44.0369 34.3732C44.1815 34.5277 44.3558 34.6505 44.5489 34.7341C44.742 34.8177 44.9498 34.8602 45.1597 34.8591C45.3698 34.8615 45.578 34.8195 45.7713 34.7359C45.9646 34.6522 46.1386 34.5287 46.2825 34.3732C46.3865 34.2676 55.4313 24.6126 58.7581 20.8098C61.3988 17.8732 63.8731 14.2605 63.2285 9.38027C62.9533 6.87708 61.8067 4.5562 59.9958 2.83622C58.1848 1.11624 55.8286 0.110362 53.352 0C51.6558 0.073165 50.0077 0.595026 48.5709 1.51396C47.134 2.4329 45.9582 3.71707 45.1597 5.23943C44.3682 3.72468 43.2025 2.44518 41.7771 1.52658C40.3518 0.607992 38.7158 0.081905 37.0298 0C34.5555 0.0983864 32.1969 1.09089 30.3787 2.7989C28.5605 4.5069 27.402 6.81823 27.1117 9.31689C26.3216 14.2183 28.8583 17.7676 31.5197 20.7887C34.1812 23.8098 43.6418 33.9507 44.0369 34.3732ZM30.189 9.82394C30.3541 8.09801 31.1108 6.48592 32.3271 5.26945C33.5433 4.05298 35.1416 3.30952 36.8427 3.16901H36.9674C40.6269 3.16901 43.6003 6.90844 43.6003 11.3239C43.6003 11.7442 43.7646 12.1472 44.057 12.4443C44.3495 12.7415 44.7461 12.9084 45.1597 12.9084C45.5733 12.9084 45.97 12.7415 46.2624 12.4443C46.5549 12.1472 46.7192 11.7442 46.7192 11.3239C46.7192 6.88732 49.7133 3.23239 53.3936 3.16901C55.1019 3.31438 56.7058 4.06441 57.9255 5.28833C59.1453 6.51225 59.9035 8.13238 60.068 9.86618C60.567 13.1831 58.966 15.7817 56.3877 18.6972C53.8094 21.6126 47.6964 28.2676 45.1597 30.9718C42.4982 28.1619 35.9486 21.1479 33.8693 18.7183C31.5197 15.9507 29.6276 13.3732 30.189 9.82394Z" fill="#12B7B6"/>
</svg>
