<svg width="70" height="82" viewBox="0 0 70 82" fill="none" xmlns="http://www.w3.org/2000/svg">
<path d="M11.4925 34.7961C11.4871 34.385 11.3203 33.9923 11.0275 33.7016C10.7348 33.4109 10.3393 33.2453 9.92537 33.2399H1.56716C1.15153 33.2399 0.752911 33.4038 0.459011 33.6957C0.16511 33.9875 0 34.3833 0 34.7961C0 35.2088 0.16511 35.6046 0.459011 35.8964C0.752911 36.1883 1.15153 36.3522 1.56716 36.3522H9.92537C10.3393 36.3469 10.7348 36.1812 11.0275 35.8905C11.3203 35.5998 11.4871 35.2071 11.4925 34.7961ZM15.6716 17.6366C15.9711 17.9172 16.3674 18.0732 16.7791 18.0724C16.9882 18.0738 17.1955 18.0342 17.3891 17.9559C17.5828 17.8775 17.7589 17.762 17.9075 17.6159C18.2009 17.3241 18.3658 16.9286 18.3658 16.5162C18.3658 16.1038 18.2009 15.7083 17.9075 15.4165L12.9134 10.5613C12.6196 10.2698 12.2213 10.1061 11.806 10.1061C11.3907 10.1061 10.9923 10.2698 10.6985 10.5613C10.405 10.853 10.2402 11.2486 10.2402 11.661C10.2402 12.0733 10.405 12.4689 10.6985 12.7606L15.6716 17.6366ZM34.9791 11.4119C35.1857 11.4147 35.3907 11.3764 35.5821 11.2992C35.7735 11.222 35.9474 11.1074 36.0935 10.9624C36.2396 10.8173 36.3549 10.6447 36.4327 10.4546C36.5105 10.2645 36.5491 10.0609 36.5463 9.85577V1.55617C36.5463 1.14345 36.3812 0.747655 36.0873 0.455815C35.7934 0.163976 35.3947 0 34.9791 0C34.5635 0 34.1649 0.163976 33.871 0.455815C33.5771 0.747655 33.4119 1.14345 33.4119 1.55617V9.85577C33.4092 10.0646 33.4482 10.2719 33.5268 10.4656C33.6053 10.6593 33.7219 10.8356 33.8696 10.9843C34.0174 11.1329 34.1934 11.2509 34.3874 11.3315C34.5815 11.412 34.7897 11.4535 35 11.4534L34.9791 11.4119ZM11.7642 59.1346C11.9751 59.1357 12.184 59.0939 12.378 59.0119C12.5721 58.9298 12.7472 58.8091 12.8925 58.6574L17.9075 53.5532C18.1984 53.256 18.3586 52.8562 18.3527 52.4418C18.3468 52.0274 18.1754 51.6323 17.8761 51.3434C17.5769 51.0545 17.1743 50.8954 16.7569 50.9013C16.3396 50.9071 15.9417 51.0773 15.6507 51.3745L10.6567 56.4995C10.3632 56.7913 10.1984 57.1868 10.1984 57.5992C10.1984 58.0116 10.3632 58.4071 10.6567 58.6989C10.7947 58.8605 10.9636 58.9933 11.1538 59.0895C11.3439 59.1857 11.5514 59.2433 11.7642 59.2591V59.1346ZM53.0955 17.9479C53.2966 17.95 53.4961 17.9125 53.6826 17.8377C53.8691 17.763 54.0388 17.6523 54.1821 17.5121L59.2179 12.6569C59.5114 12.3651 59.6762 11.9696 59.6762 11.5572C59.6762 11.1448 59.5114 10.7493 59.2179 10.4575C58.9241 10.1661 58.5257 10.0024 58.1104 10.0024C57.6951 10.0024 57.2968 10.1661 57.003 10.4575L51.9672 15.3128C51.7389 15.525 51.5809 15.8009 51.5138 16.1042C51.4467 16.4074 51.4739 16.7237 51.5915 17.0114C51.7092 17.299 51.9119 17.5445 52.173 17.7154C52.434 17.8863 52.7411 17.9746 53.0537 17.9686L53.0955 17.9479ZM47.5373 72.663C47.1234 72.6683 46.7279 72.834 46.4351 73.1247C46.1424 73.4154 45.9756 73.8081 45.9701 74.2191V80.4438C45.9701 80.8565 46.1353 81.2524 46.4292 81.5442C46.7231 81.8361 47.1217 82 47.5373 82C47.9529 82 48.3516 81.8361 48.6455 81.5442C48.9394 81.2524 49.1045 80.8565 49.1045 80.4438V74.2191C49.0991 73.8081 48.9322 73.4154 48.6395 73.1247C48.3467 72.834 47.9513 72.6683 47.5373 72.663ZM54.203 51.499C53.9091 51.2075 53.5108 51.0439 53.0955 51.0439C52.6802 51.0439 52.2819 51.2075 51.9881 51.499C51.6946 51.7907 51.5297 52.1863 51.5297 52.5987C51.5297 53.011 51.6946 53.4066 51.9881 53.6984L57.0239 58.8026C57.1707 58.9525 57.3461 59.0718 57.5398 59.1538C57.7335 59.2357 57.9417 59.2785 58.1522 59.2798C58.3533 59.2819 58.5529 59.2445 58.7393 59.1697C58.9258 59.0949 59.0956 58.9843 59.2388 58.8441C59.5323 58.5523 59.6971 58.1568 59.6971 57.7444C59.6971 57.332 59.5323 56.9365 59.2388 56.6447L54.203 51.499ZM37.6119 33.2399H35.3134L38.991 26.8492C39.1989 26.4887 39.254 26.0611 39.1442 25.6603C39.0345 25.2595 38.769 24.9184 38.406 24.712C38.043 24.5057 37.6123 24.451 37.2087 24.5599C36.8051 24.6689 36.4615 24.9326 36.2537 25.293L31.2597 34.0284C31.1261 34.2662 31.056 34.5341 31.056 34.8064C31.056 35.0788 31.1261 35.3466 31.2597 35.5845C31.4002 35.8179 31.5991 36.0113 31.8371 36.1458C32.0751 36.2803 32.3441 36.3514 32.6179 36.3522H35L31.009 43.3446C30.8126 43.6975 30.7639 44.1129 30.8734 44.5011C30.9829 44.8893 31.2417 45.2192 31.594 45.4195C31.8268 45.5598 32.0949 45.6318 32.3672 45.627C32.643 45.6241 32.9133 45.5498 33.1515 45.4115C33.3897 45.2733 33.5874 45.0758 33.7254 44.8386L39.0746 35.5223C39.2105 35.2844 39.2809 35.0151 39.2786 34.7416C39.2763 34.4681 39.2015 34.2001 39.0617 33.9644C38.9218 33.7288 38.7219 33.5339 38.4821 33.3994C38.2422 33.2649 37.9709 33.1956 37.6955 33.1984L37.6119 33.2399ZM52.2388 64.3634H46.0119C45.7238 64.3634 45.4474 64.2497 45.2436 64.0473C45.0399 63.845 44.9254 63.5706 44.9254 63.2844V56.0015C44.9276 55.0158 45.1655 54.0446 45.6196 53.168C46.0737 52.2915 46.731 51.5346 47.5373 50.9595C50.3362 48.9838 52.6184 46.3717 54.1932 43.3415C55.7681 40.3112 56.5898 36.9507 56.5898 33.5408C56.5898 30.1308 55.7681 26.7703 54.1932 23.74C52.6184 20.7098 50.3362 18.0977 47.5373 16.122C44.6548 14.1028 41.3237 12.805 37.8275 12.3389C34.3313 11.8729 30.7734 12.2525 27.4567 13.4454C24.4498 14.4977 21.728 16.2247 19.5027 18.4918C17.2775 20.759 15.609 23.5053 14.6269 26.5172C13.123 30.8583 13.0625 35.5642 14.4543 39.942C15.8462 44.3198 18.6168 48.1383 22.3582 50.835C23.2016 51.4327 23.891 52.2196 24.3703 53.1318C24.8496 54.044 25.1052 55.0557 25.1164 56.0845V63.2844C25.1164 63.4261 25.0883 63.5664 25.0337 63.6973C24.9791 63.8282 24.8991 63.9471 24.7982 64.0473C24.6973 64.1475 24.5775 64.227 24.4457 64.2812C24.3138 64.3355 24.1725 64.3634 24.0299 64.3634H17.8239C15.8676 64.3634 13.9915 65.135 12.6082 66.5086C11.2249 67.8822 10.4478 69.7452 10.4478 71.6878V80.4438C10.4478 80.8565 10.6129 81.2524 10.9068 81.5442C11.2007 81.8361 11.5993 82 12.0149 82C12.4306 82 12.8292 81.8361 13.1231 81.5442C13.417 81.2524 13.5821 80.8565 13.5821 80.4438V71.6878C13.5821 70.5872 14.0224 69.5316 14.8061 68.7534C15.5899 67.9752 16.6528 67.5379 17.7612 67.5379H23.9254C24.7643 67.5329 25.5841 67.288 26.2866 66.8325C27.1139 68.3111 28.3262 69.5418 29.7965 70.3959C31.2669 71.2501 32.9413 71.6962 34.6448 71.6878H35.3552C37.0587 71.6962 38.7331 71.2501 40.2035 70.3959C41.6738 69.5418 42.8861 68.3111 43.7134 66.8325C44.4159 67.288 45.2357 67.5329 46.0746 67.5379H52.2388C53.3472 67.5379 54.4101 67.9752 55.1939 68.7534C55.9776 69.5316 56.4179 70.5872 56.4179 71.6878V80.4438C56.4179 80.8565 56.583 81.2524 56.8769 81.5442C57.1708 81.8361 57.5694 82 57.9851 82C58.4007 82 58.7993 81.8361 59.0932 81.5442C59.3871 81.2524 59.5522 80.8565 59.5522 80.4438V71.6878C59.5522 69.7452 58.7751 67.8822 57.3918 66.5086C56.0085 65.135 54.1324 64.3634 52.1761 64.3634H52.2388ZM35.5224 68.5132H34.8119C33.3243 68.5012 31.8868 67.9779 30.7439 67.0321C29.601 66.0864 28.8234 64.7767 28.5433 63.3259H41.8746C41.587 64.8193 40.7726 66.1619 39.5777 67.1127C38.3828 68.0634 36.8857 68.56 35.3552 68.5132H35.5224ZM41.9582 60.2136H28.3761V57.1012H41.9582V60.2136ZM42.1881 53.9889H27.9582C27.4223 51.7115 26.0801 49.7011 24.1761 48.3244C20.992 46.0164 18.634 42.7583 17.4461 39.0257C16.2583 35.2931 16.3028 31.2812 17.5731 27.5754C18.3992 25.0206 19.8101 22.6905 21.6954 20.7681C23.5806 18.8457 25.8888 17.3832 28.4388 16.4954C31.2834 15.4668 34.336 15.1353 37.3373 15.529C40.3385 15.9228 43.1997 17.0302 45.6776 18.7571C48.067 20.4476 50.0149 22.6808 51.3589 25.2704C52.7029 27.8601 53.4042 30.7312 53.4042 33.6445C53.4042 36.5578 52.7029 39.4289 51.3589 42.0186C50.0149 44.6082 48.067 46.8413 45.6776 48.5319C43.8276 49.8456 42.5267 51.787 42.0209 53.9889H42.1881ZM68.6 33.2399H60.0746C59.659 33.2399 59.2604 33.4038 58.9665 33.6957C58.6726 33.9875 58.5075 34.3833 58.5075 34.7961C58.5075 35.2088 58.6726 35.6046 58.9665 35.8964C59.2604 36.1883 59.659 36.3522 60.0746 36.3522H68.4328C68.8485 36.3522 69.2471 36.1883 69.541 35.8964C69.8349 35.6046 70 35.2088 70 34.7961C70 34.3833 69.8349 33.9875 69.541 33.6957C69.2471 33.4038 68.8485 33.2399 68.4328 33.2399H68.6ZM20.5403 72.663C20.1263 72.6683 19.7309 72.834 19.4381 73.1247C19.1454 73.4154 18.9785 73.8081 18.9731 74.2191V80.4438C18.9731 80.8565 19.1382 81.2524 19.4321 81.5442C19.726 81.8361 20.1247 82 20.5403 82C20.9559 82 21.3545 81.8361 21.6484 81.5442C21.9423 81.2524 22.1075 80.8565 22.1075 80.4438V74.2191C22.1055 74.001 22.058 73.7856 21.9679 73.5866C21.8778 73.3876 21.7472 73.2094 21.5842 73.0631C21.4212 72.9169 21.2294 72.8058 21.0209 72.7369C20.8125 72.668 20.5919 72.6429 20.3731 72.663H20.5403Z" fill="#12B7B6"/>
</svg>
