<svg width="30" height="30" viewBox="0 0 30 30" fill="none" xmlns="http://www.w3.org/2000/svg">
<path d="M15.1291 7.60449C11.0262 7.60449 7.70459 10.941 7.70459 15.0542C7.70459 19.171 11.0298 22.5039 15.1291 22.5039C19.232 22.5039 22.5536 19.1674 22.5536 15.0542C22.5536 10.9374 19.2284 7.60449 15.1291 7.60449ZM15.1291 19.8896C12.4658 19.8896 10.31 17.7254 10.31 15.0542C10.31 12.383 12.467 10.2188 15.1291 10.2188C17.7912 10.2188 19.9481 12.383 19.9481 15.0542C19.9493 17.7254 17.7924 19.8896 15.1291 19.8896Z" fill="#F3F3F3"/>
<path d="M21.0902 0.634653C18.4281 0.510053 11.8343 0.516101 9.16974 0.634653C6.82833 0.744738 4.76303 1.31209 3.098 2.98271C0.31532 5.77474 0.670992 9.53695 0.670992 15.0545C0.670992 20.7014 0.357519 24.3765 3.098 27.1262C5.89153 29.9279 9.69541 29.5614 15.1294 29.5614C20.7044 29.5614 22.6286 29.565 24.5999 28.7993C27.2801 27.7553 29.3032 25.3516 29.5009 21.0341C29.6263 18.3618 29.6191 11.7471 29.5009 9.07363C29.2622 3.9771 26.5362 0.886274 21.0902 0.634653ZM25.304 25.279C23.4798 27.1093 20.9491 26.946 15.0944 26.946C9.06605 26.946 6.64869 27.0355 4.8848 25.2608C2.85325 23.2321 3.22098 19.9744 3.22098 15.0351C3.22098 8.35143 2.53736 3.53797 9.22279 3.19441C10.7588 3.13998 11.2109 3.12183 15.0775 3.12183L15.1318 3.15812C21.5568 3.15812 26.5977 2.4831 26.9003 9.18976C26.969 10.7201 26.9847 11.1797 26.9847 15.0533C26.9835 21.0317 27.0968 23.4717 25.304 25.279Z" fill="#F3F3F3"/>
<path d="M22.8477 9.05078C23.8059 9.05078 24.5827 8.27143 24.5827 7.31006C24.5827 6.34868 23.8059 5.56934 22.8477 5.56934C21.8896 5.56934 21.1128 6.34868 21.1128 7.31006C21.1128 8.27143 21.8896 9.05078 22.8477 9.05078Z" fill="#F3F3F3"/>
</svg>
