<svg width="73" height="69" viewBox="0 0 73 69" fill="none" xmlns="http://www.w3.org/2000/svg">
<path d="M19.7899 43.8799C20.4683 43.4874 20.7005 42.6161 20.3092 41.9356C19.9174 41.2556 19.0495 41.0221 18.3712 41.4147C17.6928 41.8077 17.4601 42.679 17.8519 43.3589C18.2432 44.0395 19.1116 44.273 19.7899 43.8799Z" fill="#12B7B6"/>
<path d="M13.9753 53.705L21.1203 66.1229C22.6622 68.8054 26.1305 69.7986 28.8733 68.2076C31.5874 66.6339 32.5201 63.1545 30.95 60.4291L26.6936 53.031L30.3797 50.8957C31.0581 50.502 31.2909 49.6317 30.899 48.951L29.054 45.7447C29.274 45.7018 30.7206 45.4171 56.2298 40.3963C59.3833 40.2244 61.2727 36.7639 59.6798 33.9974L54.9645 25.803L57.9778 21.2236C58.2738 20.7732 58.2915 20.1943 58.0227 19.7272L55.1851 14.7959C54.9163 14.3287 54.4058 14.0552 53.871 14.0869L48.4125 14.4155L43.1778 5.31798C42.4197 4.00006 41.0613 3.20208 39.5449 3.18317C39.5266 3.18262 39.5089 3.18262 39.4906 3.18262C38.0252 3.18262 36.6951 3.91442 35.907 5.15171L17.3727 28.842L5.3233 35.8219C0.584142 38.5662 -1.05747 44.6664 1.68815 49.4343C4.19657 53.794 9.48496 55.5089 13.9753 53.705ZM28.4931 61.8533C29.2768 63.2135 28.8129 64.954 27.4534 65.742C26.0895 66.5333 24.3525 66.0473 23.5777 64.6999L16.4837 52.3698L21.3985 49.5227C29.6088 63.7929 28.3612 61.6247 28.4931 61.8533ZM25.2748 50.5648L23.856 48.0991L26.3134 46.6755L27.7322 49.1412L25.2748 50.5648ZM53.166 16.9813L55.1269 20.3889L53.3783 23.0459L49.9987 17.172L53.166 16.9813ZM38.2802 6.71263C38.6609 6.0876 39.265 6.02309 39.51 6.02976C39.7522 6.03254 40.3557 6.10817 40.7199 6.74099L57.2224 35.421C57.76 36.3546 57.1066 37.5285 56.0286 37.5552C55.8352 37.5597 55.746 37.5947 55.2505 37.6876L37.7941 7.35046C38.1605 6.87779 38.2076 6.83219 38.2802 6.71263ZM35.9059 9.76386L52.307 38.267L27.5543 43.1383L20.0279 30.0587L35.9059 9.76386ZM4.14558 48.0107C3.52263 46.9291 3.19342 45.7013 3.19342 44.459C3.19342 41.9199 4.55349 39.5555 6.74211 38.2876L17.8005 31.8815L24.8946 44.2099L13.8362 50.6165C10.4482 52.5784 6.10143 51.4095 4.14558 48.0107Z" fill="#12B7B6"/>
<path d="M15.3939 44.7819C15.0021 44.1012 14.1342 43.8676 13.4558 44.2608L10.9984 45.6844C10.3212 46.0771 9.45158 45.8429 9.0603 45.1634C8.66847 44.4827 7.80056 44.2491 7.12219 44.6423C6.44383 45.0354 6.21105 45.9063 6.60289 46.587C7.77063 48.6169 10.3755 49.3326 12.4172 48.1503L14.8746 46.7266C15.553 46.3334 15.7858 45.4631 15.3939 44.7819Z" fill="#12B7B6"/>
<path d="M70.891 6.22795L62.985 10.6421C62.3006 11.0246 62.0539 11.8916 62.4352 12.5783C62.8154 13.2645 63.6789 13.5131 64.365 13.1299L72.2705 8.71583C72.9555 8.33325 73.2016 7.46633 72.8203 6.77957C72.4395 6.09227 71.5755 5.84537 70.891 6.22795Z" fill="#12B7B6"/>
<path d="M70.062 20.9715L64.5802 19.4976C63.8231 19.2941 63.045 19.7446 62.8421 20.5043C62.6393 21.2641 63.0888 22.0444 63.8458 22.248L69.3282 23.7219C70.0897 23.9271 70.864 23.4694 71.0657 22.7152C71.2685 21.9554 70.8191 21.1745 70.062 20.9715Z" fill="#12B7B6"/>
<path d="M56.2867 1.05544L54.8163 6.55643C54.6135 7.31607 55.0624 8.09629 55.8195 8.30038C56.576 8.50336 57.3541 8.05402 57.5575 7.29383L59.0273 1.79284C59.2302 1.0332 58.7812 0.25243 58.0242 0.0488951C57.2677 -0.154639 56.4895 0.295806 56.2867 1.05544Z" fill="#12B7B6"/>
</svg>
