<svg width="79" height="84" viewBox="0 0 79 84" fill="none" xmlns="http://www.w3.org/2000/svg">
<path d="M78.8725 9.48137C78.7547 9.19043 78.5532 8.94179 78.294 8.76745C78.0349 8.5931 77.7299 8.50106 77.4184 8.50319H70.5692V1.59197C70.5713 1.27768 70.4801 0.969927 70.3073 0.70841C70.1345 0.446892 69.8881 0.243585 69.5998 0.124666C69.3108 0.00204124 68.9921 -0.0310584 68.6844 0.0295278C68.3767 0.0901139 68.0938 0.241656 67.8716 0.464918L57.3344 11.0976C57.0379 11.3964 56.8711 11.8018 56.8708 12.2246V20.0715L55.4587 21.4962C52.105 18.4174 48.1611 16.0656 43.8707 14.5861C39.5803 13.1065 35.0347 12.5308 30.515 12.8945C25.9954 13.2582 21.5977 14.5535 17.5939 16.7005C13.5901 18.8474 10.0653 21.8002 7.23746 25.3765C4.40967 28.9527 2.33898 33.0762 1.1534 37.4921C-0.03218 41.908 -0.307454 46.5223 0.34465 51.0498C0.996754 55.5773 2.56239 59.9217 4.94466 63.8144C7.32694 67.707 10.4752 71.0652 14.1949 73.6812L10.6544 81.7621C10.4867 82.1512 10.4791 82.5916 10.6333 82.9864C10.7874 83.3812 11.0906 83.6981 11.4763 83.8673C11.8619 84.0365 12.2984 84.0442 12.6897 83.8887C13.081 83.7331 13.395 83.4271 13.5627 83.0379L16.9135 75.4037C21.8731 78.2465 27.4792 79.741 33.1831 79.741C38.8869 79.741 44.493 78.2465 49.4526 75.4037L52.8034 83.0379C52.9711 83.4271 53.2851 83.7331 53.6763 83.8887C54.0676 84.0442 54.5041 84.0365 54.8898 83.8673C55.2754 83.6981 55.5786 83.3812 55.7328 82.9864C55.8869 82.5916 55.8794 82.1512 55.7117 81.7621L52.129 73.6812C56.0004 70.9656 59.2518 67.4464 61.6655 63.3595C64.0792 59.2726 65.5994 54.7124 66.1242 49.9844C66.6491 45.2564 66.1664 40.4698 64.7086 35.9453C63.2508 31.4208 60.8516 27.263 57.6716 23.7504L59.0836 22.3256H66.8811C67.3002 22.3252 67.702 22.157 67.9981 21.8578L78.5353 11.2251C78.7591 11.0026 78.911 10.717 78.9711 10.4059C79.0313 10.0947 78.9969 9.77248 78.8725 9.48137ZM63.1931 46.249C63.2131 53.2147 60.8608 59.9759 56.5302 65.4004C52.1995 70.8249 46.1535 74.5835 39.4043 76.0468C32.6551 77.5101 25.6126 76.5893 19.4559 73.4386C13.2993 70.2879 8.40225 65.0985 5.58478 58.7394C2.76732 52.3803 2.20048 45.2375 3.97918 38.507C5.75787 31.7765 9.77414 25.8669 15.3555 21.7677C20.9368 17.6685 27.7443 15.6286 34.6382 15.9896C41.5322 16.3505 48.0939 19.0904 53.2248 23.7504L46.5232 30.5128C42.4849 27.0207 37.2631 25.2428 31.9536 25.552C26.6441 25.8612 21.6597 28.2336 18.0464 32.1712C14.433 36.1089 12.4717 41.3058 12.5739 46.6713C12.6761 52.0367 14.8339 57.1537 18.5945 60.9483C22.3551 64.743 27.4262 66.9203 32.7435 67.0234C38.0609 67.1266 43.2111 65.1475 47.1135 61.5015C51.0158 57.8554 53.3669 52.8259 53.6733 47.4683C53.9798 42.1108 52.2178 36.8417 48.7571 32.7669L55.4587 26.0045C60.4316 31.5539 63.1876 38.7674 63.1931 46.249ZM32.045 47.3761C32.3414 47.6748 32.7431 47.8425 33.162 47.8425C33.5808 47.8425 33.9825 47.6748 34.2789 47.3761L38.9785 42.6339C39.6414 43.7221 39.9984 44.9718 40.0112 46.249C40.0112 47.616 39.6095 48.9522 38.8569 50.0887C38.1043 51.2253 37.0345 52.111 35.783 52.6341C34.5315 53.1572 33.1544 53.2941 31.8258 53.0275C30.4971 52.7608 29.2767 52.1026 28.3188 51.136C27.361 50.1695 26.7086 48.938 26.4443 47.5973C26.1801 46.2567 26.3157 44.8671 26.8341 43.6043C27.3525 42.3414 28.2304 41.262 29.3567 40.5026C30.4831 39.7432 31.8073 39.3378 33.162 39.3378C34.4278 39.3507 35.6662 39.7109 36.7446 40.3798L32.045 45.122C31.749 45.421 31.5828 45.8264 31.5828 46.249C31.5828 46.6717 31.749 47.0771 32.045 47.3761ZM39.0207 38.0832C36.9736 36.5847 34.4421 35.9198 31.9309 36.2211C29.4196 36.5224 27.1131 37.7677 25.4714 39.7087C23.8296 41.6497 22.9732 44.1439 23.073 46.6937C23.1727 49.2436 24.2213 51.6618 26.0095 53.4662C27.7977 55.2707 30.1943 56.3287 32.7213 56.4294C35.2483 56.53 37.72 55.6658 39.6436 54.0092C41.5672 52.3526 42.8013 50.0253 43.0999 47.4913C43.3985 44.9573 42.7396 42.4029 41.2546 40.3373L46.5232 35.021C49.3865 38.4903 50.814 42.9398 50.509 47.4441C50.2039 51.9484 48.1897 56.1607 44.8853 59.2046C41.5809 62.2486 37.2407 63.89 32.7676 63.7873C28.2944 63.6846 24.0327 61.8458 20.8689 58.6534C17.7051 55.4609 15.8828 51.1606 15.781 46.647C15.6793 42.1334 17.3059 37.7539 20.3226 34.4196C23.3392 31.0853 27.5137 29.0528 31.9776 28.745C36.4415 28.4372 40.8511 29.8777 44.2893 32.7669L39.0207 38.0832ZM60.0952 12.8838L67.4712 5.44098V9.43886L60.0952 16.8817V12.8838ZM66.2911 19.1358H62.329L69.7051 11.693H73.6671L66.2911 19.1358Z" fill="#12B7B6"/>
</svg>
