<svg width="51" height="41" viewBox="0 0 51 41" fill="none" xmlns="http://www.w3.org/2000/svg">
<path d="M49.6446 23.5581H23.0662C22.802 23.5581 22.5487 23.6639 22.3627 23.8521C22.1766 24.0403 22.0731 24.2952 22.0752 24.5603L22.1767 37.4013C22.1811 37.9473 22.6234 38.3877 23.1676 38.3877H31.911C32.4582 38.3877 32.9019 37.9424 32.9019 37.3934C32.9019 36.8443 32.4582 36.3991 31.911 36.3991H24.1507L24.0649 25.5467H48.6614L48.7471 36.3991H40.9011C40.3539 36.3991 39.9102 36.8443 39.9102 37.3934C39.9102 37.9424 40.3539 38.3877 40.9011 38.3877H49.7461C50.0103 38.3877 50.2636 38.2819 50.4496 38.0937C50.6357 37.9055 50.7391 37.6506 50.737 37.3855L50.6356 24.5445C50.6312 23.9984 50.1888 23.5581 49.6446 23.5581Z" fill="#12B7B6"/>
<path d="M37.339 37.0122C37.1792 36.6275 36.7862 36.3768 36.3707 36.3994C35.9586 36.4217 35.5963 36.7083 35.476 37.1041C35.3573 37.4941 35.4965 37.9349 35.8206 38.182C36.1561 38.4377 36.6229 38.453 36.9743 38.2197C37.3645 37.9606 37.5152 37.4444 37.339 37.0122Z" fill="#12B7B6"/>
<path d="M9.18629 21.7549C4.12096 21.7549 0 25.8903 0 30.9733C0 36.0565 4.12096 40.1919 9.18629 40.1919C14.2516 40.1919 18.3727 36.0565 18.3727 30.9733C18.3727 25.8903 14.2516 21.7549 9.18629 21.7549ZM9.18629 38.2034C5.21378 38.2034 1.9819 34.96 1.9819 30.9733C1.9819 26.9868 5.21378 23.7434 9.18629 23.7434C13.1589 23.7434 16.3908 26.9868 16.3908 30.9733C16.3908 34.96 13.1589 38.2034 9.18629 38.2034Z" fill="#12B7B6"/>
<path d="M9.18678 0.0595703C4.12145 0.0595703 0.000488281 4.19491 0.000488281 9.27808C0.000488281 14.3611 4.12145 18.4966 9.18678 18.4966C14.2521 18.4966 18.3732 14.3611 18.3732 9.27808C18.3732 4.19491 14.2521 0.0595703 9.18678 0.0595703ZM9.18678 16.5081C5.21426 16.5081 1.98239 13.2647 1.98239 9.27808C1.98239 5.29138 5.21426 2.048 9.18678 2.048C13.1594 2.048 16.3913 5.29138 16.3913 9.27808C16.3913 13.2647 13.1594 16.5081 9.18678 16.5081Z" fill="#12B7B6"/>
<path d="M11.7751 6.6804C11.3882 6.29201 10.7607 6.29211 10.3737 6.6805L9.18645 7.87202L7.99929 6.6805C7.61252 6.29231 6.98496 6.29221 6.59789 6.6804C6.21093 7.06859 6.21083 7.69821 6.59779 8.0866L7.78525 9.27832L6.59779 10.47C6.21083 10.8583 6.21093 11.4879 6.59789 11.8762C6.79132 12.0704 7.04491 12.1675 7.29849 12.1675C7.55208 12.1675 7.80576 12.0703 7.99919 11.8761L9.18645 10.6846L10.3737 11.8761C10.5671 12.0703 10.8208 12.1675 11.0744 12.1675C11.328 12.1675 11.5816 12.0703 11.775 11.8762C12.162 11.488 12.1621 10.8584 11.7751 10.47L10.5877 9.27832L11.7751 8.0866C12.1622 7.69831 12.1621 7.06869 11.7751 6.6804Z" fill="#12B7B6"/>
<path d="M23.1676 16.6934H49.7461C50.0103 16.6934 50.2636 16.5876 50.4496 16.3994C50.6357 16.2111 50.7391 15.9563 50.737 15.6912L50.6356 2.85067C50.6312 2.30462 50.1888 1.86426 49.6446 1.86426H23.0662C22.802 1.86426 22.5487 1.97015 22.3627 2.15826C22.1766 2.34648 22.0731 2.60131 22.0752 2.86638L22.1767 15.7069C22.1811 16.253 22.6234 16.6934 23.1676 16.6934ZM48.6615 3.85269L48.7472 14.7047H24.1508L24.065 3.85269H48.6615Z" fill="#12B7B6"/>
<path d="M29.2868 8.1792H45.3216C45.8689 8.1792 46.3126 7.73402 46.3126 7.18506C46.3126 6.63609 45.8689 6.19092 45.3216 6.19092H29.2868C28.7396 6.19092 28.2959 6.63609 28.2959 7.18506C28.2959 7.73402 28.7396 8.1792 29.2868 8.1792Z" fill="#12B7B6"/>
<path d="M29.2868 12.3652H39.6189C40.1662 12.3652 40.6098 11.9202 40.6098 11.3711C40.6098 10.8221 40.1662 10.377 39.6189 10.377H29.2868C28.7396 10.377 28.2959 10.8221 28.2959 11.3711C28.2959 11.9202 28.7396 12.3652 29.2868 12.3652Z" fill="#12B7B6"/>
<path d="M29.2868 30.1938H45.3216C45.8689 30.1938 46.3126 29.7487 46.3126 29.1997C46.3126 28.6506 45.8689 28.2056 45.3216 28.2056H29.2868C28.7396 28.2056 28.2959 28.6506 28.2959 29.1997C28.2959 29.7487 28.7396 30.1938 29.2868 30.1938Z" fill="#12B7B6"/>
<path d="M40.6098 33.3865C40.6098 32.8374 40.1662 32.3921 39.6189 32.3921H29.2868C28.7396 32.3921 28.2959 32.8374 28.2959 33.3865C28.2959 33.9356 28.7396 34.3809 29.2868 34.3809H39.6189C40.1661 34.3809 40.6098 33.9357 40.6098 33.3865Z" fill="#12B7B6"/>
<path d="M11.6929 28.6126C11.2498 28.2908 10.6301 28.3904 10.3092 28.8352L8.73327 31.0203L7.94527 30.2654C7.54958 29.8862 6.92222 29.9006 6.54427 30.2979C6.16632 30.695 6.18079 31.3244 6.57667 31.7036L8.18597 33.2453C8.37108 33.4227 8.61654 33.5205 8.87012 33.5205C8.90015 33.5205 8.93027 33.5191 8.9603 33.5164C9.24529 33.4903 9.50522 33.3417 9.67298 33.1091L11.9147 30.0009C12.2357 29.5562 12.1364 28.9346 11.6929 28.6126Z" fill="#12B7B6"/>
</svg>
