<svg width="92" height="75" viewBox="0 0 92 75" fill="none" xmlns="http://www.w3.org/2000/svg">
<path d="M10.046 59.1549C9.62699 59.1604 9.22671 59.3291 8.93042 59.6251C8.63412 59.9211 8.46525 60.3209 8.45977 60.7394V73.4155C8.45977 73.8357 8.62688 74.2388 8.92435 74.5359C9.22182 74.8331 9.62529 75 10.046 75C10.4667 75 10.8701 74.8331 11.1676 74.5359C11.4651 74.2388 11.6322 73.8357 11.6322 73.4155V60.7394C11.6267 60.3209 11.4578 59.9211 11.1615 59.6251C10.8652 59.3291 10.465 59.1604 10.046 59.1549ZM40.1839 56.0071V62.8521C40.1894 63.2707 40.3583 63.6705 40.6546 63.9665C40.9508 64.2625 41.3511 64.4312 41.7701 64.4366H58.6897C59.1103 64.4366 59.5138 64.2697 59.8113 63.9725C60.1088 63.6754 60.2759 63.2724 60.2759 62.8521C60.2759 62.4319 60.1088 62.0288 59.8113 61.7317C59.5138 61.4345 59.1103 61.2676 58.6897 61.2676H43.3563V56.0071C43.3563 54.0404 42.5742 52.1542 41.182 50.7635C39.7899 49.3728 37.9017 48.5916 35.9329 48.5916H30.6667V42.2535C32.0026 41.0246 33.0684 39.5318 33.7966 37.8698C34.5247 36.2078 34.8993 34.4128 34.8966 32.5986V20.4085C34.8966 18.3409 34.0743 16.358 32.6108 14.896C31.1472 13.434 29.1622 12.6127 27.0924 12.6127H16.2639C14.1941 12.6127 12.2091 13.434 10.7456 14.896C9.282 16.358 8.45977 18.3409 8.45977 20.4085V32.5986C8.45705 34.4128 8.83161 36.2078 9.55974 37.8698C10.2879 39.5318 11.3537 41.0246 12.6897 42.2535V48.5916H7.42344C5.45462 48.5916 3.56646 49.3728 2.17429 50.7635C0.782123 52.1542 0 54.0404 0 56.0071V73.4155C0 73.8357 0.167108 74.2388 0.46458 74.5359C0.762051 74.8331 1.16552 75 1.58621 75C2.0069 75 2.41036 74.8331 2.70783 74.5359C3.00531 74.2388 3.17241 73.8357 3.17241 73.4155V56.0071C3.17241 54.8864 3.61806 53.8117 4.41132 53.0193C5.20457 52.2269 6.28046 51.7817 7.4023 51.7817H12.0129C12.0711 51.9002 12.1499 52.0075 12.2455 52.0986C13.446 53.2662 14.8661 54.1848 16.4238 54.8013C17.9815 55.4178 19.646 55.72 21.3213 55.6905C22.9965 55.661 24.6494 55.3005 26.1844 54.6296C27.7194 53.9587 29.1062 52.9908 30.2648 51.7817H35.9117C36.4707 51.7761 37.0253 51.8813 37.5434 52.0911C38.0615 52.301 38.5328 52.6113 38.9301 53.0042C39.3274 53.3971 39.6427 53.8648 39.8579 54.3803C40.0731 54.8957 40.1839 55.4486 40.1839 56.0071ZM11.6322 20.4718C11.6322 19.2447 12.1202 18.0679 12.9888 17.2002C13.8574 16.3326 15.0355 15.8451 16.2639 15.8451H27.0924C28.3208 15.8451 29.4989 16.3326 30.3675 17.2002C31.2362 18.0679 31.7241 19.2447 31.7241 20.4718V23.345C31.5559 23.2778 31.3766 23.242 31.1954 23.2394H16.3908C15.9718 23.2449 15.5715 23.4136 15.2752 23.7096C14.979 24.0056 14.8101 24.4054 14.8046 24.8239V27.4648H11.6322V20.4718ZM27.4943 50.0493C25.9229 51.5165 23.8931 52.3975 21.7471 52.5438C19.6011 52.69 17.4703 52.0926 15.714 50.8521C15.8177 50.6573 15.8688 50.4388 15.8621 50.2183V44.5563C17.6717 45.4456 19.6615 45.908 21.6782 45.908C23.6949 45.908 25.6847 45.4456 27.4943 44.5563V50.0493ZM21.6782 42.7395C19.0138 42.7395 16.4586 41.6821 14.5746 39.8002C12.6906 37.9182 11.6322 35.3658 11.6322 32.7043V30.5916H16.3908C16.8098 30.5861 17.2101 30.4174 17.5064 30.1214C17.8027 29.8255 17.9715 29.4256 17.977 29.0071V26.3662H31.1954C31.3766 26.3636 31.5559 26.3278 31.7241 26.2605V32.5986C31.7325 33.9217 31.4788 35.2335 30.9777 36.4584C30.4766 37.6832 29.738 38.797 28.8043 39.7356C27.8706 40.6741 26.7603 41.419 25.5373 41.9273C24.3143 42.4356 23.0028 42.6972 21.6782 42.6972V42.7395ZM90.4138 0H12.1609C11.7419 0.00547176 11.3417 0.174168 11.0454 0.470143C10.7491 0.766118 10.5802 1.16597 10.5747 1.58451V10.0352C10.5747 10.4554 10.7418 10.8585 11.0393 11.1556C11.3368 11.4528 11.7402 11.6197 12.1609 11.6197C12.5816 11.6197 12.9851 11.4528 13.2825 11.1556C13.58 10.8585 13.7471 10.4554 13.7471 10.0352V3.16901H88.8276V69.7183H34.8966V60.7394C34.8966 60.3192 34.7294 59.9162 34.432 59.619C34.1345 59.3219 33.731 59.1549 33.3103 59.1549C32.8897 59.1549 32.4862 59.3219 32.1887 59.619C31.8912 59.9162 31.7241 60.3192 31.7241 60.7394V71.3028C31.7296 71.7214 31.8985 72.1212 32.1948 72.4172C32.4911 72.7132 32.8914 72.8819 33.3103 72.8873H90.4138C90.8328 72.8819 91.2331 72.7132 91.5294 72.4172C91.8256 72.1212 91.9945 71.7214 92 71.3028V1.58451C91.9945 1.16597 91.8256 0.766118 91.5294 0.470143C91.2331 0.174168 90.8328 0.00547176 90.4138 0ZM64.6538 27.4648C64.2333 27.4652 63.8301 27.6323 63.5329 27.9296L57.1881 34.162L52.8524 30.4648C52.5616 30.205 52.1851 30.0613 51.7949 30.0613C51.4048 30.0613 51.0283 30.205 50.7374 30.4648L41.4106 39.7817C41.1135 40.0788 40.9467 40.4815 40.9467 40.9014C40.9467 41.3213 41.1135 41.7241 41.4106 42.0212C41.7127 42.311 42.1127 42.4768 42.5315 42.4859C42.952 42.4855 43.3553 42.3184 43.6524 42.0212L51.943 33.7394L56.1729 37.4578C56.4657 37.7133 56.8414 37.8542 57.2303 37.8542C57.6192 37.8542 57.9949 37.7133 58.2878 37.4578L65.1191 30.6338H70.9352C71.3442 30.6272 71.7361 30.4691 72.0349 30.1902L78.0625 24.338V29.0493C78.0625 29.4695 78.2296 29.8726 78.5271 30.1697C78.8246 30.4669 79.2281 30.6338 79.6487 30.6338C80.0694 30.6338 80.4729 30.4669 80.7704 30.1697C81.0678 29.8726 81.235 29.4695 81.235 29.0493V20.5986C81.2449 20.5356 81.2449 20.4715 81.235 20.4085C81.2546 20.2754 81.2546 20.1401 81.235 20.007C81.1849 19.8828 81.1133 19.7684 81.0234 19.669C81.0275 19.6127 81.0275 19.5563 81.0234 19.5C80.875 19.359 80.7033 19.2446 80.5159 19.162C80.3366 19.0799 80.142 19.0367 79.9448 19.0352H71.485C71.0643 19.0352 70.6609 19.2022 70.3635 19.4993C70.066 19.7965 69.8988 20.1995 69.8988 20.6197C69.8988 21.04 70.066 21.443 70.3635 21.7402C70.6609 22.0373 71.0643 22.2042 71.485 22.2042H76.0322L70.5756 27.4859L64.6538 27.4648Z" fill="#12B7B6"/>
</svg>
