<svg width="32" height="26" viewBox="0 0 32 26" fill="none" xmlns="http://www.w3.org/2000/svg">
<path d="M28.3219 6.46287C29.5978 5.55928 30.671 4.43141 31.5456 3.13274V3.13144C30.3782 3.64126 29.1363 3.98027 27.8395 4.14456C29.1729 3.35049 30.1913 2.10267 30.6697 0.599293C29.4265 1.3386 28.0539 1.86015 26.5911 2.15222C25.4106 0.897882 23.7282 0.12207 21.8928 0.12207C18.3318 0.12207 15.465 3.00496 15.465 6.53849C15.465 7.04701 15.5081 7.53597 15.614 8.00145C10.2673 7.74068 5.53507 5.18506 2.35582 1.29035C1.80154 2.25132 1.47472 3.35049 1.47472 4.53312C1.47472 6.75494 2.62119 8.72381 4.33239 9.86471C3.29835 9.84515 2.28522 9.54526 1.42636 9.07455V9.14496C1.42636 12.2626 3.65523 14.8521 6.57957 15.4493C6.05536 15.5927 5.48539 15.6605 4.8932 15.6605C4.48142 15.6605 4.06571 15.637 3.67615 15.551C4.50887 18.0909 6.87501 19.9594 9.68561 20.0207C7.49726 21.7275 4.71803 22.7562 1.71003 22.7562C1.1832 22.7562 0.677296 22.7328 0.171387 22.6689C3.02121 24.5008 6.39655 25.5479 10.0386 25.5479C21.3895 25.5479 28.7873 16.1025 28.3219 6.46287Z" fill="#F3F3F3"/>
</svg>
