<svg width="85" height="62" viewBox="0 0 85 62" fill="none" xmlns="http://www.w3.org/2000/svg">
<path d="M82.2589 0H2.76273C1.24889 0 0.0214844 1.23153 0.0214844 2.75046V59.1348C0.0214844 60.6537 1.24889 61.8853 2.76273 61.8853H82.2589C83.7727 61.8853 85.0001 60.6537 85.0001 59.1348V2.75046C85.0001 1.23153 83.7727 0 82.2589 0ZM82.2589 2.75046V13.7523H2.76273V2.75046H82.2589ZM2.76273 59.1348V16.5027H82.2589V59.1348H2.76273Z" fill="#12B7B6"/>
<path d="M8.24518 12.3765C10.5159 12.3765 12.3571 10.5293 12.3571 8.25098C12.3571 5.97269 10.5159 4.12549 8.24518 4.12549C5.97441 4.12549 4.1333 5.97269 4.1333 8.25098C4.1333 10.5293 5.97441 12.3765 8.24518 12.3765ZM8.24518 6.87581C9.0021 6.87581 9.6158 7.49155 9.6158 8.25098C9.6158 9.0104 9.0021 9.62614 8.24518 9.62614C7.48826 9.62614 6.87455 9.0104 6.87455 8.25098C6.87455 7.49155 7.48826 6.87581 8.24518 6.87581Z" fill="#12B7B6"/>
<path d="M17.8394 12.3765C20.1102 12.3765 21.9513 10.5293 21.9513 8.25098C21.9513 5.97269 20.1102 4.12549 17.8394 4.12549C15.5686 4.12549 13.7275 5.97269 13.7275 8.25098C13.7275 10.5293 15.5686 12.3765 17.8394 12.3765ZM17.8394 6.87581C18.5963 6.87581 19.21 7.49155 19.21 8.25098C19.21 9.0104 18.5963 9.62614 17.8394 9.62614C17.0825 9.62614 16.4688 9.0104 16.4688 8.25098C16.4688 7.49155 17.0825 6.87581 17.8394 6.87581Z" fill="#12B7B6"/>
<path d="M27.4341 12.3765C29.7049 12.3765 31.546 10.5293 31.546 8.25098C31.546 5.97269 29.7049 4.12549 27.4341 4.12549C25.1634 4.12549 23.3223 5.97269 23.3223 8.25098C23.3223 10.5293 25.1634 12.3765 27.4341 12.3765ZM27.4341 6.87581C28.191 6.87581 28.8047 7.49155 28.8047 8.25098C28.8047 9.0104 28.191 9.62614 27.4341 9.62614C26.6772 9.62614 26.0635 9.0104 26.0635 8.25098C26.0635 7.49155 26.6772 6.87581 27.4341 6.87581Z" fill="#12B7B6"/>
<path d="M78.147 8.25195H79.5176C80.2745 8.25195 80.8882 7.63607 80.8882 6.87646C80.8882 6.11686 80.2745 5.50098 79.5176 5.50098H78.147C77.3901 5.50098 76.7764 6.11686 76.7764 6.87646C76.7764 7.63607 77.3901 8.25195 78.147 8.25195Z" fill="#12B7B6"/>
<path d="M63.0703 8.25195H72.6647C73.4216 8.25195 74.0353 7.63607 74.0353 6.87646C74.0353 6.11686 73.4216 5.50098 72.6647 5.50098H63.0703C62.3134 5.50098 61.6997 6.11686 61.6997 6.87646C61.6997 7.63607 62.3134 8.25195 63.0703 8.25195Z" fill="#12B7B6"/>
<path d="M28.805 19.2529H6.87502C6.1181 19.2529 5.50439 19.8687 5.50439 20.6282V28.8796C5.50439 29.6391 6.1181 30.2549 6.87502 30.2549H28.805C29.5619 30.2549 30.1756 29.6391 30.1756 28.8796V20.6282C30.1756 19.8687 29.5619 19.2529 28.805 19.2529ZM27.4344 27.5044H8.24564V22.0034H27.4344V27.5044Z" fill="#12B7B6"/>
<path d="M28.805 31.6299H6.87502C6.1181 31.6299 5.50439 32.2457 5.50439 33.0051V55.009C5.50439 55.7685 6.1181 56.3843 6.87502 56.3843H28.805C29.5619 56.3843 30.1756 55.7685 30.1756 55.009V33.0051C30.1756 32.2457 29.5619 31.6299 28.805 31.6299ZM27.4344 53.6338H8.24564V34.3804H27.4344V53.6338Z" fill="#12B7B6"/>
<path d="M78.1466 19.2529H34.2866C33.5297 19.2529 32.916 19.8687 32.916 20.6282V55.009C32.916 55.7685 33.5297 56.3843 34.2866 56.3843H78.1466C78.9035 56.3843 79.5172 55.7685 79.5172 55.009V20.6282C79.5172 19.8687 78.9035 19.2529 78.1466 19.2529ZM76.776 53.6338H35.6573V22.0034H76.776V53.6338Z" fill="#12B7B6"/>
</svg>
