<svg width="35" height="26" viewBox="0 0 35 26" fill="none" xmlns="http://www.w3.org/2000/svg">
<path d="M33.8203 3.75498L33.8626 4.04813C33.4543 2.50912 32.352 1.32159 30.9512 0.889351L30.9217 0.881872C28.2877 0.122091 17.6884 0.122091 17.6884 0.122091C17.6884 0.122091 7.11578 0.107135 4.45504 0.881872C3.02754 1.32159 1.92382 2.50912 1.5226 4.01672L1.51556 4.04813C0.531507 9.50868 0.524468 16.07 1.5592 21.9165L1.51556 21.6203C1.92382 23.1593 3.02613 24.3469 4.42689 24.7791L4.45645 24.7866C7.08763 25.5478 17.6898 25.5479 17.6898 25.5479C17.6898 25.5479 28.2609 25.5478 30.9231 24.7866C32.352 24.3469 33.4557 23.1593 33.8569 21.6517L33.864 21.6203C34.3117 19.0807 34.5679 16.1583 34.5679 13.173C34.5679 13.0638 34.5679 12.9531 34.5665 12.8424C34.5679 12.7407 34.5679 12.6196 34.5679 12.4985C34.5679 9.51167 34.3117 6.58921 33.8203 3.75498ZM14.3068 18.2955V7.38788L23.1281 12.8499L14.3068 18.2955Z" fill="#F3F3F3"/>
</svg>
