<svg width="22" height="24" viewBox="0 0 22 24" fill="none" xmlns="http://www.w3.org/2000/svg">
<path d="M14.6182 11.1284C16.1539 10.0084 17.1539 8.19581 17.1539 6.15384C17.1539 2.76061 14.3933 0 11.0001 0C7.60685 0 4.84624 2.76061 4.84624 6.15384C4.84624 8.19581 5.84622 10.0084 7.38194 11.1284C3.56444 12.5892 0.846252 16.2905 0.846252 20.6154C0.846252 22.4817 2.36458 24 4.23086 24H17.7693C19.6356 24 21.1539 22.4817 21.1539 20.6154C21.1539 16.2905 18.4357 12.5892 14.6182 11.1284ZM6.69241 6.15384C6.69241 3.77859 8.62483 1.84617 11.0001 1.84617C13.3753 1.84617 15.3078 3.77859 15.3078 6.15384C15.3078 8.52909 13.3753 10.4616 11.0001 10.4616C8.62483 10.4616 6.69241 8.52909 6.69241 6.15384ZM17.7693 22.1538H4.23086C3.38257 22.1538 2.69242 21.4637 2.69242 20.6153C2.69242 16.0344 6.41918 12.3076 11.0001 12.3076C15.5811 12.3076 19.3078 16.0344 19.3078 20.6153C19.3078 21.4637 18.6176 22.1538 17.7693 22.1538Z" fill="#555555"/>
</svg>
