<svg width="32" height="32" viewBox="0 0 32 32" fill="none" xmlns="http://www.w3.org/2000/svg">
<g clip-path="url(#clip0_0_337)">
<path d="M16 0.691406C7.43254 0.691406 0.484863 7.63909 0.484863 16.2066C0.484863 24.774 7.43254 31.7217 16 31.7217C24.5675 31.7217 31.5152 24.774 31.5152 16.2066C31.5152 7.63909 24.5675 0.691406 16 0.691406ZM24.8554 19.8796C24.8122 20.828 24.6614 21.4755 24.4413 22.0423C23.9785 23.239 23.0325 24.185 21.8357 24.6479C21.2692 24.868 20.6215 25.0186 19.6733 25.0619C18.7232 25.1052 18.4198 25.1157 16.0002 25.1157C13.5805 25.1157 13.2772 25.1052 12.327 25.0619C11.3788 25.0186 10.7311 24.868 10.1646 24.6479C9.56986 24.4242 9.0315 24.0735 8.58643 23.6202C8.1333 23.1753 7.78269 22.6367 7.55897 22.0423C7.3388 21.4757 7.18799 20.828 7.1449 19.8799C7.10111 18.9296 7.09092 18.6261 7.09092 16.2066C7.09092 13.7871 7.10111 13.4836 7.14466 12.5335C7.18775 11.5851 7.33832 10.9376 7.55849 10.3708C7.78221 9.77641 8.13307 9.23781 8.58643 8.79297C9.03127 8.33961 9.56986 7.989 10.1643 7.76527C10.7311 7.5451 11.3785 7.39453 12.327 7.35121C13.277 7.30788 13.5805 7.29747 16 7.29747C18.4195 7.29747 18.723 7.30788 19.673 7.35144C20.6215 7.39453 21.269 7.5451 21.8357 7.76503C22.4302 7.98875 22.9687 8.33961 23.4138 8.79297C23.867 9.23804 24.2178 9.77641 24.4413 10.3708C24.6617 10.9376 24.8122 11.5851 24.8556 12.5335C24.8989 13.4836 24.9091 13.7871 24.9091 16.2066C24.9091 18.6261 24.8989 18.9296 24.8554 19.8796Z" fill="black"/>
<path d="M16 21.0549C18.1422 21.0549 19.8788 19.3183 19.8788 17.1762C19.8788 15.034 18.1422 13.2974 16 13.2974C13.8578 13.2974 12.1212 15.034 12.1212 17.1762C12.1212 19.3183 13.8578 21.0549 16 21.0549Z" fill="black"/>
<path d="M20.3636 12.3278C21.1669 12.3278 21.8181 11.6766 21.8181 10.8732C21.8181 10.0699 21.1669 9.4187 20.3636 9.4187C19.5603 9.4187 18.9091 10.0699 18.9091 10.8732C18.9091 11.6766 19.5603 12.3278 20.3636 12.3278Z" fill="black"/>
</g>
<defs>
<clipPath id="clip0_0_337">
<rect width="32" height="32" fill="white"/>
</clipPath>
</defs>
</svg>
