<svg width="120" height="120" viewBox="0 0 120 120" fill="none" xmlns="http://www.w3.org/2000/svg">
<path fill-rule="evenodd" clip-rule="evenodd" d="M59.2169 30.133C58.9302 30.2894 58.9229 30.3278 59.1244 30.6208C59.4621 31.1123 59.7078 31.2448 60.2779 31.243C60.9268 31.2408 60.9797 31.174 60.7523 30.6423C60.6347 30.3673 60.4757 30.1556 60.3403 30.0935C60.0367 29.9544 59.5103 29.9729 59.2169 30.133ZM57.37 30.1955C56.9108 30.3132 56.8869 30.3825 57.1497 30.8335C57.4219 31.3008 57.5979 31.3742 58.3044 31.3152C59.1028 31.2486 59.171 31.096 58.6711 30.4938C58.4234 30.1953 57.8679 30.0679 57.37 30.1955ZM61.118 30.2514C60.9236 30.3754 61.1564 30.9551 61.4801 31.153C61.8211 31.3616 62.4694 31.4613 62.6949 31.3399C62.8636 31.2492 62.8641 31.2364 62.71 30.8283C62.6232 30.598 62.4791 30.3561 62.39 30.2905C62.2098 30.1579 61.3083 30.1303 61.118 30.2514ZM55.5296 30.3477C55.1987 30.4266 54.7699 30.688 54.8106 30.7861C54.8259 30.8228 55.0033 31.0013 55.2047 31.1827C55.5314 31.4768 55.6233 31.5126 56.0518 31.5126C56.3395 31.5126 56.6105 31.4576 56.7269 31.3756C56.8983 31.2548 56.9089 31.21 56.816 30.9956C56.6878 30.6997 56.3404 30.3502 56.1746 30.3502C56.1078 30.3502 55.9998 30.3342 55.9347 30.3147C55.8696 30.2953 55.6873 30.3101 55.5296 30.3477ZM63.1151 30.3743C62.9486 30.4999 62.9486 30.5079 63.1151 30.8496C63.3589 31.3503 63.7779 31.602 64.3671 31.602C64.9568 31.602 65.0319 31.4731 64.7645 30.9197C64.5552 30.4862 64.3272 30.3527 63.6844 30.2873C63.4206 30.2605 63.2267 30.2901 63.1151 30.3743ZM65.2122 30.6434C65.0948 30.7855 65.3464 31.3864 65.6291 31.6395C65.8994 31.8813 66.7701 31.9532 66.8512 31.7403C66.9581 31.4604 66.7172 30.8901 66.4135 30.7039C66.0871 30.5038 65.3576 30.467 65.2122 30.6434ZM53.4393 30.8365C52.8224 31.1602 52.8175 31.1729 53.1605 31.5387C53.3311 31.7207 53.5709 31.8948 53.6932 31.9256C54.0411 32.0134 54.6249 31.9012 54.815 31.7099C55.0237 31.5 54.9439 31.3301 54.4594 30.9537C54.1075 30.6803 53.8038 30.6453 53.4393 30.8365ZM67.3073 30.9558C67.1203 30.9959 67.0972 31.4413 67.2645 31.7808C67.4768 32.212 68.6786 32.6144 68.8001 32.295C68.8236 32.2336 68.791 32.0036 68.7277 31.7841C68.6437 31.4926 68.5347 31.3392 68.3235 31.2151C67.9961 31.0228 67.5386 30.906 67.3073 30.9558ZM51.3711 31.3841C50.8692 31.645 50.8198 31.7468 51.0649 32.014C51.5317 32.5231 52.2893 32.6109 52.791 32.214C53.091 31.9766 53.0749 31.8516 52.7015 31.5219C52.3394 31.202 51.8238 31.1487 51.3711 31.3841ZM69.2355 32.071C69.2695 32.329 69.3613 32.6111 69.4393 32.6978C69.5925 32.8682 70.3397 33.1221 70.6874 33.1221C70.8897 33.1221 70.8979 33.1014 70.8386 32.7421C70.7085 31.9544 70.3101 31.602 69.5495 31.602H69.1736L69.2355 32.071ZM49.3929 32.0997C49.1851 32.225 49.0151 32.3853 49.0151 32.4559C49.0151 32.5267 49.1771 32.7026 49.3751 32.8468C49.7864 33.1464 50.2172 33.156 50.7822 32.8782C51.1951 32.6751 51.1892 32.4905 50.7587 32.1465C50.3237 31.7987 49.9154 31.7848 49.3929 32.0997ZM71.3007 32.377C71.268 32.4097 71.2414 32.5955 71.2414 32.7898C71.2414 33.0797 71.302 33.2042 71.5791 33.4829C71.9578 33.8637 72.5347 34.0453 72.6722 33.8269C72.9205 33.4326 72.602 32.743 72.0354 32.4483C71.7718 32.3112 71.4017 32.2752 71.3007 32.377ZM57.9674 32.473L57.4513 32.5054L57.506 34.401C57.536 35.4435 57.5789 36.387 57.6014 36.4976C57.648 36.7272 57.8575 36.7447 59.3144 36.6407C60.093 36.5852 60.1282 36.5735 60.1282 36.3724C60.1282 36.1661 60.1125 36.1623 59.2514 36.1623H58.3746L58.3166 35.592C58.2846 35.2783 58.2814 34.9615 58.3095 34.8881C58.3606 34.7541 58.8905 34.6422 59.4739 34.6422C59.7332 34.6422 59.7726 34.6128 59.7726 34.4187C59.7726 34.1977 59.7637 34.1951 59.0169 34.1951H58.2612V32.9682L58.728 32.9118C58.9846 32.8808 59.3434 32.855 59.525 32.8547C59.756 32.8541 59.8819 32.8036 59.9442 32.6867C59.9931 32.5949 60.0077 32.4943 59.9769 32.4632C59.9209 32.4069 58.9445 32.4116 57.9674 32.473ZM62.8161 32.608C62.6881 32.767 60.8234 36.5337 60.8564 36.5664C60.8715 36.5812 61.0246 36.6199 61.1967 36.6522C61.4999 36.7092 61.5156 36.6982 61.7129 36.2896L61.9165 35.8684L62.7528 35.9275C63.2128 35.96 63.6494 36.0099 63.7229 36.0383C63.7964 36.0666 63.9091 36.2772 63.9731 36.5061C64.0856 36.9084 64.1018 36.9233 64.4591 36.9495L64.8285 36.9768L64.751 36.6813C64.7083 36.5188 64.4702 35.6012 64.2218 34.6422C63.644 32.412 63.6819 32.4962 63.2527 32.4962C63.062 32.4962 62.8656 32.5465 62.8161 32.608ZM47.637 32.7119C47.4903 32.7774 47.2788 32.9308 47.167 33.0529L46.9638 33.2747L47.2721 33.5112C47.7769 33.8985 48.0203 33.9576 48.4425 33.7954C48.6449 33.7177 48.903 33.555 49.0163 33.4337C49.2135 33.2226 49.2156 33.2061 49.0661 33.0399C48.863 32.8143 48.3773 32.5847 48.1126 32.5891C47.9977 32.5911 47.7837 32.6462 47.637 32.7119ZM54.3488 32.9374C53.8912 33.0774 53.5477 33.3127 53.3295 33.6356C53.0812 34.0031 53.0607 34.1662 53.1996 34.6692C53.3501 35.2144 53.6748 35.3568 54.7675 35.3572C55.7273 35.3575 56.0897 35.4547 56.1782 35.7352C56.3312 36.2199 55.852 36.6681 55.089 36.7541C54.7467 36.7926 54.5761 36.7586 54.2402 36.5849C53.8337 36.3747 53.815 36.3729 53.6723 36.5314C53.549 36.6685 53.5439 36.7188 53.6416 36.8371C54.1948 37.5076 55.8803 37.3433 56.5714 36.5517C56.883 36.1948 56.9684 35.9133 56.8978 35.4758C56.7927 34.8243 56.3935 34.6435 55.0582 34.6427C54.0821 34.6421 53.8159 34.5274 53.8159 34.107C53.8159 33.6633 54.2559 33.377 54.9396 33.376C55.142 33.3757 55.4272 33.4377 55.5733 33.5138C55.8202 33.6421 55.8501 33.6398 55.9921 33.4821C56.0761 33.3887 56.1161 33.2654 56.0809 33.208C55.901 32.9154 54.9211 32.7623 54.3488 32.9374ZM66.8374 33.3233C66.8143 33.3848 66.5187 34.2599 66.1805 35.2681C65.6818 36.7551 65.5882 37.1189 65.6845 37.195C65.7499 37.2466 66.3099 37.445 66.9291 37.6358C67.8741 37.9271 68.0679 37.9623 68.1354 37.855C68.3296 37.5463 68.2244 37.4497 67.4079 37.1872C66.9621 37.044 66.5784 36.877 66.5552 36.8163C66.532 36.7555 66.7516 35.9757 67.0431 35.0834L67.573 33.4609L67.2764 33.3362C66.9136 33.1838 66.8901 33.1831 66.8374 33.3233ZM73.0749 33.7257C73.1531 34.4299 73.541 34.821 74.1613 34.821C74.4569 34.821 74.5309 34.6983 74.5309 34.2077C74.5309 33.6165 74.0437 33.2115 73.3327 33.2115H73.018L73.0749 33.7257ZM45.7625 33.6068C45.4582 33.7401 45.0782 34.1714 45.1549 34.2963C45.182 34.3404 45.3679 34.4605 45.568 34.5632C45.8441 34.7048 46.019 34.7359 46.2925 34.6919C46.6888 34.6282 47.237 34.2599 47.237 34.0576C47.237 33.8761 46.5776 33.4791 46.283 33.4833C46.1475 33.4852 45.9133 33.5408 45.7625 33.6068ZM63.4432 34.3963C63.5692 34.9026 63.6374 35.3478 63.5956 35.3911C63.5061 35.4836 62.3732 35.3768 62.3073 35.2696C62.2485 35.1739 63.034 33.4798 63.137 33.4798C63.1801 33.4798 63.3178 33.8922 63.4432 34.3963ZM74.9604 34.441C74.9225 35.291 74.921 35.2852 75.2489 35.5521C75.4238 35.6944 75.7081 35.8339 75.8806 35.862C76.1557 35.9069 76.2012 35.8873 76.2505 35.7024C76.4176 35.0745 76.2333 34.6768 75.5977 34.2938C75.1248 34.0089 74.9782 34.0427 74.9604 34.441ZM48.2553 35.0094C47.6707 35.3108 47.1584 35.5891 47.1166 35.6278C47.0607 35.6795 48.512 38.6902 48.887 39.3004C48.9405 39.3875 49.5485 39.1162 49.5485 39.0052C49.5485 38.9639 49.3885 38.6102 49.1929 38.2189C48.9973 37.8276 48.8373 37.4459 48.8373 37.3706C48.8373 37.291 49.0795 37.1135 49.4151 36.947C49.9985 36.6577 50.0585 36.5838 49.9067 36.3423C49.8356 36.2292 49.7364 36.2524 49.2396 36.4988C48.9187 36.658 48.6175 36.7882 48.5704 36.7882C48.474 36.7882 48.0371 35.9643 48.0371 35.7826C48.0371 35.7179 48.3386 35.515 48.707 35.3316C49.3963 34.9886 49.5317 34.8453 49.3963 34.602C49.3296 34.4821 49.1627 34.5417 48.2553 35.0094ZM43.9493 34.7094C43.6825 34.8442 43.2362 35.358 43.2362 35.5303C43.2362 35.624 44.0108 35.8832 44.1856 35.8481C44.2746 35.8301 44.4586 35.7919 44.5943 35.7631C44.8428 35.7103 45.5478 35.1374 45.5478 34.9882C45.5478 34.8267 44.9613 34.5534 44.6143 34.5532C44.4187 34.5531 44.1194 34.6234 43.9493 34.7094ZM76.6125 35.2806C76.4813 35.4939 76.5447 36.2999 76.7129 36.5581C76.919 36.8745 77.526 37.1671 77.7386 37.0526C77.978 36.9238 78.0438 36.223 77.8479 35.8884C77.5911 35.4497 76.7599 35.0407 76.6125 35.2806ZM72.9969 35.9611C72.2808 36.9599 71.0615 38.884 71.0886 38.9724C71.1413 39.144 72.8746 40.2776 73.2329 40.3746C73.7231 40.5074 74.1234 40.408 74.3922 40.0868C74.6704 39.7541 74.6859 39.3687 74.4395 38.9062C74.2235 38.5009 74.2705 38.3856 74.6227 38.4565C75.2466 38.582 75.8006 37.977 75.6007 37.3884C75.547 37.2304 75.4343 37.0188 75.3504 36.918C75.1819 36.7158 73.4971 35.5364 73.3768 35.5364C73.3353 35.5364 73.1643 35.7276 72.9969 35.9611ZM42.3298 35.8977C42.0476 36.0475 41.547 36.5726 41.547 36.7186C41.547 36.7448 41.748 36.8531 41.9935 36.9594L42.44 37.1525L42.8159 36.9757C43.2747 36.7596 43.4414 36.6259 43.5814 36.3616C43.7166 36.1064 43.6597 36.0143 43.2637 35.848C42.8588 35.6778 42.7307 35.6846 42.3298 35.8977ZM74.2184 36.6581C74.6319 36.9018 74.8865 37.2164 74.8865 37.4835C74.8865 37.7296 74.5558 38.0401 74.2937 38.0401C73.966 38.0401 73.1084 37.5274 73.1084 37.3316C73.1084 37.1402 73.604 36.4306 73.7376 36.4306C73.7897 36.4306 74.0061 36.5329 74.2184 36.6581ZM78.1679 36.8695C78.0459 37.2791 78.0992 37.5602 78.3629 37.8974C78.6062 38.2084 79.2238 38.6031 79.3756 38.5445C79.5226 38.4877 79.6318 37.8597 79.5554 37.51C79.4683 37.1113 78.859 36.52 78.5352 36.52C78.3062 36.52 78.2585 36.5653 78.1679 36.8695ZM45.1443 36.8489C44.8085 36.9161 44.0975 37.5404 43.8897 37.9507C43.6009 38.5205 43.615 39.1071 43.9336 39.7845C44.3579 40.6863 45.0553 41.1714 45.9228 41.1677C46.5464 41.1651 47.0287 40.9311 47.4848 40.41C48.0796 39.7304 48.176 38.9292 47.7614 38.1117C47.2268 37.0579 46.31 36.6156 45.1443 36.8489ZM40.4697 37.4036C40.2799 37.5946 40.1245 37.8097 40.1245 37.8818C40.1245 38.0912 40.7724 38.3402 41.1379 38.2712C41.4613 38.2102 41.9916 37.7609 41.9916 37.5479C41.9916 37.3255 41.5412 37.0565 41.1689 37.0565C40.8762 37.0565 40.7551 37.1166 40.4697 37.4036ZM46.136 37.5852C46.7501 37.8657 47.237 38.6567 47.237 39.3739C47.237 39.7658 47.1984 39.8613 46.931 40.1301C46.3641 40.7004 45.76 40.664 45.1057 40.0203C44.1867 39.1161 44.2028 37.9517 45.1401 37.5412C45.51 37.3793 45.7039 37.3879 46.136 37.5852ZM73.2341 38.1337C74.0128 38.6623 74.1902 39.1904 73.7206 39.5825C73.4531 39.8059 73.13 39.7754 72.615 39.4784C71.8924 39.0615 71.8827 39.0279 72.3048 38.4028C72.5059 38.1049 72.707 37.8612 72.7516 37.8612C72.7962 37.8612 73.0133 37.9838 73.2341 38.1337ZM79.8323 38.1519C79.6497 38.8373 79.921 39.4779 80.5188 39.7726C80.8199 39.921 80.8741 39.9249 80.9912 39.8072C81.064 39.7341 81.1457 39.5079 81.1728 39.3045C81.2118 39.0121 81.1794 38.8724 81.0183 38.6359C80.6028 38.026 79.9382 37.7547 79.8323 38.1519ZM59.1947 38.1004C52.4178 38.4759 46.2282 41.8169 42.2435 47.2501C40.0203 50.2816 38.7287 53.4213 38.1054 57.3096C37.8625 58.8247 37.8876 62.3632 38.1521 63.9074C39.2608 70.3799 42.9606 75.9734 48.3561 79.3343C54.9632 83.4498 63.1738 83.812 70.1743 80.2968C72.2752 79.2418 73.6685 78.2573 75.5388 76.5058C79.2425 73.0374 81.7417 67.9713 82.2738 62.8535C82.4182 61.465 82.4201 58.6299 82.2776 57.4885C81.8439 54.0166 80.735 51.0032 78.839 48.1443C74.7333 41.9536 68.2414 38.3328 60.8395 38.1051C60.2282 38.0862 59.4881 38.0842 59.1947 38.1004ZM76.2201 38.9568C74.2672 41.3495 74.3277 41.2614 74.5042 41.4592C74.5922 41.5578 75.042 41.9325 75.5036 42.292C76.2596 42.8805 76.3542 42.9305 76.4565 42.7953C76.519 42.7127 76.5713 42.6229 76.5728 42.5958C76.5744 42.5688 76.2956 42.3149 75.9533 42.0317C75.611 41.7485 75.3313 41.4689 75.3315 41.4103C75.3325 41.2323 76.0459 40.4541 76.2048 40.4578C76.2866 40.4596 76.572 40.6392 76.8392 40.8567C77.297 41.2293 77.3345 41.2436 77.4877 41.1041C77.6432 40.9625 77.6266 40.9345 77.1131 40.4745C76.8175 40.2096 76.5757 39.95 76.5757 39.8976C76.5757 39.775 77.1857 39.0237 77.2853 39.0237C77.3267 39.0237 77.6511 39.2449 78.0059 39.5154C78.6172 39.9812 78.6599 39.9991 78.8157 39.8572C78.9062 39.7749 78.9493 39.6781 78.9116 39.6423C78.574 39.3222 77.0449 38.1318 76.9757 38.1353C76.9268 38.1377 76.5868 38.5074 76.2201 38.9568ZM39.5911 38.2981C39.2569 38.4358 38.9443 38.7213 38.7858 39.0338C38.554 39.4909 38.5631 39.5297 38.9301 39.6516C39.3148 39.7793 39.7619 39.7065 40.0647 39.4669C40.3851 39.2135 40.7015 38.674 40.5933 38.5652C40.4572 38.4283 39.7395 38.2371 39.5911 38.2981ZM59.9504 40.6919L67.8185 40.6779L68.6075 41.0356C69.0415 41.2323 69.4016 41.4335 69.4077 41.4827C69.4145 41.5378 68.7714 41.5938 67.7296 41.6287C65.9623 41.688 61.3413 41.7937 60.4616 41.7949L59.9504 41.7956V42.7114L61.2173 42.6568C61.9141 42.6268 64.5046 42.58 66.9739 42.5527L71.4636 42.5033L71.9908 42.8872C72.2808 43.0983 72.5112 43.3113 72.5029 43.3604C72.4854 43.4641 69.31 43.6019 67.8096 43.5641L66.8227 43.5393L66.8554 43.9417C66.8872 44.3329 66.8173 44.29 66.673 43.8299C66.6282 43.6872 66.4533 43.6734 64.6793 43.6734C63.6098 43.6734 62.1282 43.6998 61.387 43.7321L60.0393 43.7907V44.6706L63.3955 44.6065C65.3815 44.5686 66.7743 44.5071 66.8072 44.456C66.8987 44.3138 66.9656 44.504 67.0229 45.0697C67.0522 45.3591 67.1575 46.0484 67.2569 46.6017C67.3563 47.1548 67.4145 47.6678 67.3863 47.7417C67.3118 47.9371 67.1298 47.9076 67.1921 47.7102C67.2413 47.554 67.1883 47.5467 66.2868 47.5844L65.3292 47.6244L65.0402 47.1327C64.8813 46.8622 64.7513 46.617 64.7513 46.5879C64.7513 46.5586 65.249 46.5348 65.8574 46.5348C66.4657 46.5348 66.9831 46.5028 67.0071 46.4637C67.0312 46.4246 67.0282 46.2234 67.0007 46.0166L66.9505 45.6406H65.6395C64.2382 45.6406 64.1961 45.6279 64.082 45.1706C63.9851 44.7822 63.8383 44.8761 63.9067 45.2829L63.9668 45.6406H62.9503C62.3914 45.6406 61.511 45.6666 60.9941 45.6984L60.0542 45.7563L59.9961 46.0677C59.9642 46.2391 59.9757 46.4171 60.0217 46.4634C60.0694 46.5114 60.9445 46.5435 62.0623 46.5383L64.0193 46.5291L64.061 46.7331C64.084 46.8453 64.0948 47.078 64.0852 47.2501L64.0678 47.5631L62.1647 47.6316C61.118 47.6692 60.2116 47.7182 60.1504 47.7405C60.0866 47.7638 60.0393 47.9343 60.0393 48.1415C60.0393 48.367 60.0809 48.5043 60.1504 48.508C60.2116 48.5114 61.1479 48.5089 62.231 48.5025C63.3142 48.4961 64.2204 48.5235 64.2447 48.5634C64.2691 48.6034 64.3164 48.8574 64.3499 49.1279L64.4108 49.6197L63.4475 49.5881C62.9177 49.5708 61.9541 49.585 61.3062 49.6197L60.1282 49.6827V50.4692H62.3011C63.4963 50.4692 64.4954 50.5039 64.5216 50.5465C64.5477 50.589 64.5953 50.8479 64.6273 51.1218L64.6855 51.6199L62.4752 51.6285C61.2596 51.6332 60.2315 51.6708 60.1905 51.712C60.1495 51.7532 60.1288 51.943 60.1444 52.1339L60.1727 52.4811H61.9793C63.5907 52.4811 63.7981 52.4978 63.8996 52.6361C63.9621 52.7214 64.0414 52.7629 64.0758 52.7283C64.1102 52.6937 64.1144 52.7281 64.0851 52.8047C64.0559 52.8815 64.0838 52.9873 64.1471 53.04C64.2742 53.1457 65.02 53.2153 65.155 53.1341C65.2019 53.1058 65.4503 53.0542 65.7069 53.0194C65.9636 52.9846 66.196 52.9197 66.2234 52.875C66.2508 52.8305 66.3208 52.7946 66.379 52.7954C66.4443 52.7963 66.4337 52.8334 66.3516 52.892C66.2506 52.9642 66.283 52.9729 66.4849 52.9277C68.7441 52.4231 70.0461 52.3321 76.5589 52.2236L79.6093 52.1728L79.7797 52.5505C79.8734 52.7583 79.951 52.975 79.9521 53.0323C79.9548 53.1762 79.1371 53.2298 76.1311 53.283C74.7376 53.3075 71.1569 53.3707 68.1741 53.4232C65.1914 53.4756 62.1708 53.5467 61.4618 53.5811L60.1727 53.6435V54.4482H61.1951C61.7574 54.4482 65.198 54.3879 68.8409 54.3141C72.4838 54.2404 76.5601 54.18 77.8993 54.18H80.3342L80.4521 54.5811C80.517 54.8017 80.5415 55.0099 80.5065 55.0438C80.4403 55.108 75.574 55.2251 65.996 55.3931C62.8909 55.4476 60.3005 55.5075 60.2393 55.5263C60.1783 55.545 60.1282 55.6791 60.1282 55.8241C60.1282 56.3807 60.0983 56.3705 61.7158 56.3739L63.1954 56.3772L62.9732 56.5593C62.6757 56.8032 61.7196 57.3814 61.0617 57.7155L60.5283 57.9863L60.8395 57.7039C61.1265 57.4434 61.1335 57.4258 60.9284 57.4761C60.8061 57.5062 60.596 57.5313 60.4616 57.5319C60.243 57.5331 60.2171 57.5654 60.2171 57.8377C60.2171 58.1342 60.2057 58.1439 59.7855 58.202C59.2682 58.2735 58.9306 58.1502 58.1659 57.6109C57.6582 57.2526 56.9784 56.4431 56.599 55.7448C56.3785 55.3388 55.9914 54.0591 55.8823 53.3752C55.7397 52.4814 55.3704 51.2293 55.1251 50.8084C54.9978 50.5899 54.5874 50.1123 54.2132 49.7471C53.8389 49.3819 53.4601 48.9411 53.3712 48.7674C53.2489 48.5281 53.0158 47.6103 53.0158 47.3678C53.0158 47.3522 52.9589 47.3395 52.8894 47.3395C52.7522 47.3395 52.0394 48.1296 52.0384 48.2826C52.0376 48.4216 51.4139 48.9971 51.0821 49.165C50.7206 49.348 50.711 49.435 51.0599 49.3648C51.2066 49.3353 51.3266 49.3295 51.3266 49.3519C51.3266 49.4937 51.0255 50.1115 50.9563 50.1115C50.8589 50.1115 50.3486 50.6538 50.3486 50.7574C50.3486 50.891 50.5892 50.8253 50.7487 50.648C50.9349 50.4411 51.0599 50.4174 51.0599 50.589C51.0599 50.6548 50.8181 50.8976 50.5225 51.1284C50.227 51.3592 49.962 51.6089 49.9336 51.6831C49.8269 51.963 50.0027 51.9136 50.3893 51.5552C50.6092 51.3514 50.8301 51.1845 50.8801 51.1845C50.9304 51.1845 50.9711 51.3938 50.9712 51.6539C50.9713 51.9121 51.1109 52.8074 51.2815 53.6435C51.54 54.9102 51.5923 55.3574 51.5951 56.326C51.597 56.9654 51.6739 58.1524 51.766 58.9638C51.8581 59.7753 51.9269 60.446 51.9187 60.4544C51.9106 60.4627 51.334 60.4932 50.6372 60.5223C49.4109 60.5734 49.3654 60.5688 49.2149 60.3801C48.6907 59.7226 48.2585 59.5004 47.5037 59.5004C46.9996 59.5004 46.9302 59.5245 46.6895 59.7837C46.5448 59.9395 46.4045 60.1772 46.3777 60.3117L46.3291 60.5565L45.2494 60.6089C44.6556 60.6377 42.9776 60.6756 41.5205 60.693C39.1214 60.7218 38.8769 60.7112 38.9306 60.582C38.9632 60.5034 39.0048 60.1576 39.0231 59.8133C39.0522 59.2673 39.2232 57.6898 39.3722 56.5943C39.533 55.4128 40.3976 52.6766 40.9679 51.5446C41.2776 50.9301 42.9568 48.2807 43.45 47.6285C44.2152 46.6168 46.2857 44.6132 47.7845 43.4339C48.745 42.6784 50.0185 41.8415 50.9265 41.3691C53.3195 40.1244 56.4178 39.3442 59.128 39.3041L59.9504 39.2919V40.6919ZM81.3766 39.9176C81.1879 40.4251 81.1853 40.4651 81.3263 40.6816C81.5165 40.9735 81.9915 41.2692 82.2206 41.2383C82.3572 41.2199 82.4161 41.1136 82.4774 40.7749C82.5773 40.2227 82.402 39.849 81.9133 39.5728L81.5758 39.3821L81.3766 39.9176ZM37.8376 40.0448C37.4947 40.3351 37.2109 40.8682 37.3337 40.9917C37.3848 41.043 37.6251 41.1087 37.8676 41.1376C38.2589 41.1842 38.3413 41.1626 38.5975 40.9457C38.8702 40.7149 39.1466 40.2952 39.1466 40.1117C39.1466 40.0307 38.4886 39.8284 38.225 39.8284C38.1526 39.8284 37.9783 39.9258 37.8376 40.0448ZM41.0291 40.1248C40.9227 40.2386 40.8358 40.3917 40.8358 40.4649C40.8358 40.5381 40.9756 41.0154 41.1462 41.5254C41.317 42.0354 41.4367 42.4729 41.4122 42.4976C41.3875 42.5223 40.9013 42.4321 40.3314 42.2971L39.2954 42.0517L38.7581 42.5923L39.0026 42.6857C39.1371 42.7371 39.3283 42.7792 39.4276 42.7792C39.5269 42.7792 39.8144 42.8351 40.0664 42.9033C40.3185 42.9716 40.762 43.0804 41.0521 43.145C41.4961 43.2441 41.6788 43.3514 42.2079 43.8239L42.8362 44.3851L43.3696 43.8455L42.7993 43.29C42.1925 42.6991 42.1746 42.6597 41.5004 40.432C41.4149 40.1493 41.3173 39.9179 41.2836 39.9179C41.25 39.9179 41.1354 40.011 41.0291 40.1248ZM82.7506 41.146C82.4479 41.8691 82.4909 42.1259 82.993 42.5964C83.5962 43.1615 84.0458 42.2563 83.5779 41.419C83.4684 41.2231 83.2692 41.0057 83.1352 40.9361C82.8965 40.8119 82.8886 40.8162 82.7506 41.146ZM36.6005 41.4998C36.2834 41.6589 35.946 42.1978 35.946 42.5455C35.946 42.7679 35.9687 42.7792 36.4128 42.7789C36.9647 42.7785 37.3754 42.5611 37.6356 42.1318C37.8732 41.7399 37.8648 41.4728 37.613 41.4049C37.2818 41.3156 36.8957 41.3518 36.6005 41.4998ZM80.2652 42.0117C79.8741 42.1708 78.9446 42.5395 78.1999 42.8308C77.4551 43.1221 76.8452 43.3806 76.8445 43.4052C76.8438 43.4297 76.9346 43.5647 77.0462 43.7049C77.2485 43.9591 77.2502 43.9595 77.5901 43.8167C77.7776 43.7379 77.99 43.6734 78.062 43.6734C78.1341 43.6734 78.4507 43.945 78.7656 44.277C79.3777 44.9224 79.3985 44.9959 79.1444 45.6188C79.0328 45.8922 79.0401 45.9245 79.2649 46.1505C79.3965 46.2829 79.5199 46.3732 79.539 46.3512C79.6201 46.2582 81.4469 42.6279 81.5017 42.4509C81.5467 42.3058 81.4942 42.187 81.2944 41.9814C81.1473 41.8301 81.0156 41.7098 81.0017 41.7142C80.9879 41.7186 80.6564 41.8524 80.2652 42.0117ZM83.9248 42.89C83.7176 43.3285 83.7118 43.3786 83.8334 43.6724C84.0241 44.1328 84.5769 44.6791 84.7261 44.5546C84.9325 44.3823 85.1147 43.6067 85.0127 43.3342C84.9225 43.0931 84.3321 42.4216 84.2103 42.4216C84.175 42.4216 84.0466 42.6324 83.9248 42.89ZM80.3041 43.371C79.8221 44.2806 79.7504 44.3887 79.629 44.3887C79.4989 44.3887 78.7983 43.5978 78.7983 43.4508C78.7983 43.3915 78.9484 43.2777 79.1317 43.1981C79.9307 42.8509 80.5367 42.6291 80.5964 42.6621C80.6319 42.6816 80.5003 43.0006 80.3041 43.371ZM35.457 43.1504C35.0378 43.3917 34.7013 43.8943 34.7013 44.2789V44.5764L35.257 44.5156C35.8981 44.4455 35.9382 44.4208 36.299 43.8728C36.6591 43.326 36.6541 43.1373 36.2794 43.1356C36.1205 43.135 35.9104 43.115 35.8126 43.0913C35.7149 43.0675 35.5548 43.0942 35.457 43.1504ZM37.4028 44.5899C36.2286 46.3733 36.2502 46.3295 36.4417 46.5422C36.5265 46.6364 36.6274 46.7136 36.6658 46.7136C36.7042 46.7136 36.908 46.4526 37.1188 46.1336C37.3295 45.8145 37.5483 45.553 37.6052 45.5523C37.662 45.5517 38.3346 45.9737 39.1001 46.4901C39.8655 47.0065 40.5252 47.429 40.5661 47.429C40.6069 47.429 40.7209 47.2917 40.8193 47.1239L40.9983 46.8189L39.541 45.8497C38.7394 45.3166 38.0828 44.8316 38.0817 44.7718C38.0806 44.712 38.2421 44.4104 38.4405 44.1017L38.8012 43.5403L38.6084 43.3833C38.5024 43.297 38.3897 43.2263 38.3582 43.2263C38.3265 43.2263 37.8967 43.84 37.4028 44.5899ZM85.0748 44.5481C84.7919 45.1791 85.0172 46.1679 85.4773 46.3148C85.5763 46.3464 85.6675 46.3585 85.6797 46.3417C86.0907 45.7796 86.178 45.3137 85.9673 44.8065C85.8557 44.5378 85.4917 44.2099 85.305 44.2099C85.2618 44.2099 85.1582 44.3621 85.0748 44.5481ZM74.3629 44.7547C74.8377 45.1545 74.9064 45.3465 74.5975 45.4102C74.4876 45.4328 73.4173 45.4691 72.2193 45.4907L70.0411 45.5301L69.7999 45.1539C69.6671 44.9471 69.5332 44.7115 69.5024 44.6304C69.4425 44.4737 69.2937 44.4833 72.9627 44.4084L73.9282 44.3887L74.3629 44.7547ZM69.0268 44.7911C69.137 45.2584 69.1777 45.9088 69.0967 45.9088C69.0539 45.9088 69.0187 45.8252 69.0187 45.7229C69.0187 45.5668 68.9794 45.5455 68.7742 45.59C68.5579 45.6369 68.4811 45.5823 68.1075 45.1159C67.8751 44.826 67.6852 44.5621 67.6852 44.5296C67.6852 44.497 67.9728 44.4822 68.3244 44.4966C68.9533 44.5224 68.9646 44.5272 69.0268 44.7911ZM67.6503 44.9923C67.7894 45.1768 68.2376 45.6773 68.6463 46.1047C69.1179 46.5977 69.3784 46.9391 69.3594 47.0387C69.3355 47.1636 69.1665 47.2194 68.5355 47.311C68.099 47.3744 67.7291 47.4135 67.7136 47.3979C67.662 47.3461 67.5033 46.4989 67.4178 45.8194C67.3715 45.4506 67.3094 45.0381 67.28 44.9029C67.2056 44.5609 67.3514 44.5961 67.6503 44.9923ZM81.371 45.0966C80.8506 45.372 80.271 45.9432 80.1279 46.3217C80.0005 46.6588 80.0256 47.3031 80.1805 47.6777C80.4642 48.3633 81.0686 48.8295 81.8878 48.9945C82.1695 49.0513 82.1767 49.0449 82.1767 48.7415C82.1767 48.443 82.159 48.4261 81.7428 48.3257C80.6458 48.061 80.4129 46.888 81.3067 46.1292C81.6805 45.8118 82.2394 45.5556 82.5633 45.5531C82.9042 45.5505 83.3803 45.7879 83.5468 46.0434C83.6996 46.2779 83.751 46.821 83.6532 47.1662C83.5989 47.3578 83.6263 47.4127 83.8202 47.5016C84.1567 47.6557 84.1814 47.6433 84.3086 47.2556C84.5445 46.5367 84.1978 45.628 83.5028 45.1436C83.1884 44.9244 83.0275 44.8788 82.497 44.8587C81.9447 44.8378 81.8036 44.8676 81.371 45.0966ZM34.1347 45.1224C33.8686 45.3219 33.6345 45.7723 33.6345 46.0848C33.6345 46.2485 33.6907 46.2665 34.2003 46.2665C34.7541 46.2665 34.7709 46.2594 34.9954 45.9312C35.2695 45.5305 35.433 45.1202 35.3635 45.0072C35.2614 44.8411 34.4025 44.9217 34.1347 45.1224ZM69.9197 45.9759C70.0939 46.2096 70.5882 46.8165 71.0181 47.3248C71.783 48.2289 71.8065 48.2477 72.1053 48.1912C72.2854 48.1573 72.4598 48.1747 72.5306 48.2338C72.6133 48.3028 73.4066 48.3315 75.0806 48.326L77.5107 48.3181L77.7544 48.6962C77.8884 48.9042 77.9982 49.1203 77.9982 49.1765C77.9982 49.2863 76.3331 49.3444 70.0269 49.4544L66.6343 49.5136L66.3374 49.0899C66.174 48.8569 66.0404 48.6228 66.0404 48.5696C66.0404 48.5053 66.5421 48.4637 67.5405 48.4453C68.3656 48.4301 69.1132 48.3944 69.202 48.3661C69.3899 48.3061 69.73 48.4938 69.73 48.6576C69.73 48.7195 69.77 48.7702 69.8189 48.7702C69.9385 48.7702 69.9389 48.775 69.6855 47.3219C69.4535 45.9915 69.4156 45.5512 69.5332 45.5512C69.5716 45.5512 69.7456 45.7423 69.9197 45.9759ZM86.016 46.3457C85.6766 46.9531 85.8279 47.6968 86.3829 48.1489C86.5693 48.3006 86.5821 48.296 86.8612 47.9787C87.1855 47.6098 87.2415 47.1834 87.0318 46.6787C86.8859 46.3274 86.5584 45.9983 86.3549 45.9983C86.2753 45.9983 86.1228 46.1547 86.016 46.3457ZM76.2542 46.7139C76.431 46.9107 76.5757 47.1265 76.5757 47.1934C76.5757 47.3432 75.4764 47.4224 73.1542 47.4401L71.5554 47.4523L70.6966 46.4901L71.1691 46.4376C71.4289 46.4087 72.6069 46.3786 73.7871 46.3705L75.9326 46.3559L76.2542 46.7139ZM33.9456 46.6222C33.1988 46.7588 32.9528 46.9451 32.8369 47.462C32.7269 47.9525 32.8169 48.0126 33.4562 47.8761C33.9323 47.7746 34.0337 47.7158 34.2136 47.4374C34.4544 47.0648 34.5496 46.5155 34.3679 46.5459C34.3313 46.5521 34.1412 46.5865 33.9456 46.6222ZM64.8973 47.4737C65.0073 47.8202 66.2372 49.6294 66.9127 50.4383C67.5458 51.1966 67.6985 51.4483 67.5296 51.4557C67.4929 51.4573 66.9228 51.5354 66.2627 51.6291C65.6026 51.7229 65.0308 51.7681 64.992 51.7297C64.9534 51.6913 64.8216 50.8991 64.6993 49.9691C64.3715 47.4771 64.3162 46.9494 64.3731 46.8569C64.4323 46.7605 64.8132 47.2084 64.8973 47.4737ZM35.7213 47.2861C35.6412 47.409 35.589 47.577 35.6052 47.6594C35.6215 47.7418 35.9758 47.9952 36.3926 48.2226C36.8093 48.45 37.5858 48.874 38.1181 49.1648L39.086 49.6935L39.2496 49.4902C39.3396 49.3784 39.4133 49.2356 39.4133 49.173C39.4133 49.1104 38.7432 48.6863 37.9241 48.2306C37.1051 47.7748 36.3071 47.3256 36.1508 47.2323L35.8668 47.0627L35.7213 47.2861ZM67.574 48.0298C67.4885 48.0509 67.4184 48.123 67.4184 48.1903C67.4184 48.2576 67.3722 48.3413 67.3158 48.3763C67.2509 48.4167 67.2373 48.4008 67.279 48.3331C67.3152 48.2741 67.3015 48.1734 67.2486 48.1092C67.1729 48.0175 67.2139 47.9925 67.441 47.9922C67.5997 47.9918 67.6595 48.0088 67.574 48.0298ZM87.0376 48.2314C86.6943 48.6417 86.6483 49.1419 86.9072 49.648C87.025 49.8781 87.19 50.0797 87.274 50.0959C87.3585 50.1123 87.5446 49.9985 87.6911 49.8408C87.906 49.6094 87.9554 49.4782 87.9552 49.1408C87.9548 48.6902 87.7275 48.2192 87.4341 48.0613C87.2883 47.9829 87.2216 48.0114 87.0376 48.2314ZM32.9397 48.3221C32.3902 48.453 31.9453 49.057 31.9453 49.672C31.9453 49.9232 31.9668 49.9467 32.1453 49.8898C32.2553 49.8549 32.5124 49.7786 32.7167 49.7204C33.2 49.5827 33.4358 49.3593 33.5505 48.9305C33.7197 48.2984 33.5885 48.1677 32.9397 48.3221ZM84.0882 48.7598C83.4525 48.9943 82.6323 49.2946 82.2656 49.4272C81.3212 49.7687 81.337 49.7537 81.5028 50.153C81.5836 50.3474 81.6893 50.4717 81.754 50.4485C81.8153 50.4264 82.1801 50.2943 82.5644 50.1549C83.0468 49.98 83.3046 49.9276 83.3964 49.9859C83.5843 50.105 84.1816 51.6583 84.0942 51.8006C84.0685 51.8423 83.6866 52.0074 83.2455 52.1674C82.8044 52.3273 82.4434 52.4876 82.4434 52.5233C82.4434 52.7321 82.6577 53.1517 82.7643 53.1517C82.8334 53.1517 83.2595 53.0126 83.7113 52.8427C84.163 52.6727 85.0055 52.3609 85.5834 52.1497L86.634 51.7657L86.5819 51.5002C86.4936 51.051 86.4112 51.0339 85.6194 51.301C85.2173 51.4367 84.8412 51.5464 84.7836 51.5449C84.726 51.5434 84.5941 51.3108 84.4905 51.028C84.387 50.7453 84.2379 50.341 84.1593 50.1297C84.0749 49.903 84.0493 49.7144 84.0967 49.6695C84.1703 49.5998 84.6359 49.3989 85.3453 49.1306L85.6244 49.025L85.4874 48.674C85.412 48.481 85.3263 48.3255 85.2971 48.3284C85.2678 48.3314 84.7238 48.5255 84.0882 48.7598ZM35.4619 49.0869C34.9427 49.2665 34.6847 49.4958 34.4124 50.0194C34.0912 50.6371 34.0921 51.1068 34.4157 51.7332C34.7052 52.2937 35.2683 52.7209 35.9997 52.9347C36.9007 53.1981 37.7416 52.8916 38.21 52.1289C38.4487 51.7402 38.4798 51.6108 38.4798 51.0083C38.4798 50.5066 38.4382 50.2632 38.3222 50.0851C38.1357 49.799 38.0759 49.79 37.8081 50.0081C37.615 50.1653 37.6125 50.1828 37.7538 50.3856C37.9882 50.7222 37.9499 51.4173 37.6773 51.7768C37.2788 52.3022 36.6508 52.3532 35.7038 51.9369C34.625 51.4629 34.5856 50.1232 35.6392 49.74C35.9031 49.6441 35.946 49.5879 35.946 49.3387C35.946 48.9688 35.8891 48.9392 35.4619 49.0869ZM87.7976 50.2853C87.5395 50.5224 87.511 50.5986 87.511 51.0539C87.511 51.6119 87.6835 51.9978 88.012 52.1745C88.1735 52.2615 88.2437 52.2614 88.3479 52.1745C88.5703 51.9889 88.7844 51.3066 88.7207 50.9864C88.6605 50.6839 88.2702 50.0221 88.1519 50.0221C88.1146 50.0221 87.9551 50.1405 87.7976 50.2853ZM32.1231 50.2941C31.6157 50.5211 31.3229 50.9382 31.3229 51.434C31.3229 51.784 31.3351 51.8018 31.523 51.7284C31.6329 51.6854 31.899 51.5973 32.1141 51.5328C32.4469 51.4328 32.5305 51.3577 32.6754 51.0284C32.8665 50.5937 32.8575 50.1685 32.6565 50.1363C32.5832 50.1246 32.3431 50.1955 32.1231 50.2941ZM78.8753 50.5564C78.9797 50.7431 79.065 50.975 79.065 51.0717C79.065 51.2388 78.976 51.2503 77.2647 51.3049C76.2745 51.3364 74.1241 51.385 72.486 51.4128C69.3107 51.4667 69.0183 51.4881 69.1837 51.6544C69.2397 51.7107 69.2847 51.8593 69.2839 51.9848C69.2825 52.2095 69.2798 52.2086 69.0974 51.9222C68.9956 51.7624 68.8644 51.6316 68.8058 51.6316C68.6691 51.6316 67.4472 50.5055 67.5109 50.4381C67.5373 50.4102 68.7975 50.3609 70.3114 50.3283C71.8253 50.2958 74.1641 50.2437 75.5088 50.2127C78.706 50.1388 78.6381 50.1319 78.8753 50.5564ZM54.0298 50.784C54.0017 50.8968 54.0162 51.0632 54.062 51.1538C54.1563 51.34 54.0381 51.8998 53.9046 51.8998C53.7903 51.8998 53.5492 51.4158 53.5492 51.1861C53.5492 51.0837 53.6092 50.8554 53.6826 50.6789C53.7945 50.4096 53.8373 50.3756 53.9484 50.4684C54.03 50.5365 54.0612 50.6578 54.0298 50.784ZM31.5452 52.1371C31.1923 52.3232 30.9891 52.585 30.8735 53.0027C30.7695 53.3786 30.8357 53.867 30.9908 53.867C31.0448 53.867 31.2602 53.7837 31.4694 53.6818C32.0386 53.4046 32.3967 52.7016 32.2143 52.219C32.115 51.9563 31.9309 51.9337 31.5452 52.1371ZM88.7549 52.1348C88.7545 52.1777 88.6168 52.3586 88.4489 52.5367C88.1462 52.8578 88.0928 53.0247 88.1195 53.5665C88.138 53.9409 88.4016 54.2649 88.6278 54.1915C89.0668 54.049 89.3868 53.1128 89.1726 52.5976C89.0525 52.3085 88.7564 51.9805 88.7549 52.1348ZM31.4118 54.0195C30.662 54.2901 30.4339 54.5775 30.4339 55.2514C30.4339 55.7825 30.5659 55.8288 31.1632 55.5069C31.5651 55.2902 31.6522 55.1954 31.7578 54.8597C31.9382 54.2863 31.7745 53.8886 31.4118 54.0195ZM88.9702 54.4799C88.5125 54.8906 88.3684 55.1609 88.4333 55.4871C88.4986 55.8153 88.7426 56.1919 88.89 56.1919C89.0845 56.1919 89.544 55.5863 89.6074 55.2463C89.6651 54.9369 89.5335 54.2758 89.3978 54.193C89.3625 54.1715 89.1701 54.3005 88.9702 54.4799ZM30.6201 56.1538C30.2857 56.4368 30.1249 56.9391 30.2028 57.4572C30.2931 58.058 30.3384 58.0901 30.7787 57.8653C31.2695 57.6145 31.4486 57.276 31.4437 56.6082C31.4383 55.8784 31.1401 55.7138 30.6201 56.1538ZM80.8283 56.1695C80.9834 56.4717 81.0296 56.9677 80.9115 57.0631C80.8404 57.1207 79.0588 57.1782 76.0849 57.2189L71.3711 57.2833L70.7232 56.8345C70.3669 56.5876 70.0677 56.3559 70.0583 56.3197C70.0323 56.2196 70.0511 56.2188 73.9533 56.1487C75.958 56.1127 77.6148 56.0674 77.6352 56.0481C77.6555 56.0288 78.3643 56.0131 79.21 56.0131C80.5849 56.0131 80.7564 56.0297 80.8283 56.1695ZM89.4892 56.2511C89.4281 56.2759 89.378 56.3355 89.378 56.3834C89.378 56.4314 89.418 56.4458 89.4669 56.4154C89.5158 56.385 89.5558 56.4055 89.5558 56.4609C89.5558 56.521 89.484 56.5387 89.378 56.5049C89.272 56.4711 89.2002 56.4888 89.2002 56.5489C89.2002 56.6042 89.163 56.6264 89.1173 56.598C89.0718 56.5698 88.9718 56.6367 88.8951 56.7468C88.728 56.9867 88.7053 57.8938 88.8624 58.0518C89.132 58.323 89.6121 58.0478 89.8166 57.505C89.9354 57.1899 89.9356 56.9537 89.8178 56.5272C89.7252 56.1914 89.6962 56.1671 89.4892 56.2511ZM89.4647 57.4911C89.4006 57.5688 89.2648 57.6756 89.163 57.7284C89.0227 57.8013 89.0409 57.7572 89.2382 57.5457C89.4973 57.2679 89.6864 57.2224 89.4647 57.4911ZM81.0818 58.1062C81.0908 58.1125 81.1252 58.3222 81.1582 58.5721C81.2082 58.9508 81.1932 59.0363 81.0688 59.0843C80.9866 59.1159 79.3455 59.1687 77.4218 59.2014L73.9242 59.2609L73.489 58.9799C73.2495 58.8254 72.9609 58.5997 72.8475 58.4783L72.6414 58.2576L72.8526 58.2101C73.3352 58.1016 80.9368 58.0056 81.0818 58.1062ZM30.6288 58.3089C30.1134 58.5644 29.8465 59.3554 30.0926 59.8985C30.2143 60.1672 30.2379 60.1716 30.5252 59.9785C31.111 59.5845 31.234 59.399 31.234 58.9097C31.234 58.1266 31.155 58.0481 30.6288 58.3089ZM89.3054 58.5344C88.8833 58.8318 88.755 59.075 88.757 59.5732C88.7598 60.2248 88.9875 60.2664 89.62 59.731C89.9214 59.476 90.0746 58.916 89.9642 58.4732C89.893 58.1885 89.7816 58.1988 89.3054 58.5344ZM30.6978 60.3477C30.1252 60.6451 29.9453 61.0687 30.0938 61.7693C30.2095 62.3143 30.3485 62.4169 30.6246 62.1606C30.7438 62.0499 30.9345 61.8976 31.0482 61.8222C31.2234 61.7059 31.2614 61.5896 31.2968 61.0621C31.3262 60.6226 31.3035 60.395 31.2195 60.2888C31.1091 60.1491 31.072 60.1533 30.6978 60.3477ZM80.4788 60.2152L81.137 60.2157L81.0783 61.3195C80.9311 64.0881 80.4615 66.2728 79.4606 68.8445C78.9072 70.2666 78.1419 71.6623 77.6222 72.1977C77.455 72.3698 77.2231 72.6515 77.1068 72.8236C76.9905 72.9957 76.8717 73.1567 76.8428 73.1813C76.8138 73.2059 76.5067 73.57 76.16 73.9903C75.3342 74.9922 74.1937 76.0158 71.9971 77.727C71.6961 77.9615 70.3463 78.7375 69.5522 79.1326C67.2227 80.2916 63.823 81.2345 61.486 81.3699C60.2722 81.4402 60.3594 81.4843 60.2612 80.7488L60.2031 80.3135L53.5048 80.3787L52.6602 80.0432C51.6892 79.6575 51.5266 79.5672 51.6247 79.4686C51.6817 79.4113 55.4937 79.3152 59.5281 79.2695L60.2171 79.2617V78.2628L58.5501 78.3146C57.6334 78.343 55.1952 78.3902 53.1323 78.4194L49.3814 78.4725L48.7537 78.0641C48.4085 77.8395 48.126 77.6208 48.126 77.5779C48.126 77.4533 49.5719 77.3839 52.1704 77.3839C53.4995 77.3839 55.8538 77.3573 57.4021 77.3247L60.2171 77.2656V76.372L55.6163 76.4314C53.0859 76.4643 50.0545 76.5168 48.88 76.5483L46.7446 76.6057L46.2573 76.1525C45.9315 75.8495 45.7995 75.6695 45.8589 75.6093C45.9325 75.5347 55.933 75.327 59.4392 75.3272L60.2171 75.3273V74.3153L57.063 74.3691C55.3283 74.3986 53.889 74.3903 53.8646 74.3505C53.8401 74.3107 53.8993 74.2062 53.9959 74.1183C54.2307 73.9045 54.2173 73.7674 53.9493 73.6446C53.4332 73.4081 53.7434 73.36 55.8385 73.3519C56.9999 73.3474 58.0501 73.3351 58.1723 73.3246C58.2945 73.3141 58.8047 73.2977 59.3058 73.2881L60.2171 73.2707V72.3673L58.1278 72.3943C56.2143 72.419 56.0384 72.4085 56.0385 72.27C56.0387 72.0387 55.8927 71.9977 55.6038 72.1479C55.3708 72.269 55.3 72.2695 54.9677 72.1515C54.4337 71.9621 53.9976 71.987 53.511 72.2348C53.0931 72.4475 53.0494 72.4507 50.5398 72.4579C49.1389 72.4619 46.8869 72.4892 45.5354 72.5185L43.0782 72.5718L42.7918 72.1532C42.6343 71.9229 42.5398 71.7029 42.5819 71.6644C42.6239 71.6259 43.7865 71.5677 45.1653 71.5354L47.6723 71.4764L47.6582 71.8331C47.6504 72.0293 47.6712 72.2171 47.7043 72.2505C47.8058 72.3525 48.2948 72.1001 48.5222 71.8284C48.7937 71.5039 48.9595 71.5067 49.8004 71.8502C50.5405 72.1524 51.4846 72.2771 51.86 72.1219C52.0784 72.0318 52.0772 72.0301 51.7934 72.0245C51.5344 72.0195 51.5044 71.9917 51.5044 71.7566C51.5044 71.4508 51.5613 71.4258 52.4485 71.3423C53.3071 71.2615 53.375 71.4036 52.6438 71.7515C52.335 71.8985 52.1287 72.0188 52.1855 72.0188C52.2422 72.0188 52.6023 71.8705 52.9857 71.6892C53.6411 71.3791 53.7276 71.3609 54.4367 71.3845C54.8515 71.3983 56.3017 71.3803 57.6595 71.3445C59.5863 71.2938 60.1282 71.2541 60.1282 71.1638C60.1282 71.0893 60.3104 71.0274 60.6394 70.9898C61.8667 70.8499 62.7852 70.6533 63.2378 70.4337C63.903 70.111 64.7513 69.2756 64.7513 68.9431C64.7513 68.6001 64.3445 68.2384 63.7459 68.0491C63.324 67.9156 63.1125 67.9076 62.0755 67.9857C61.1088 68.0586 60.8668 68.1047 60.773 68.2338C60.7096 68.321 60.6787 68.4472 60.7043 68.5145C60.7299 68.5816 60.776 68.7941 60.8066 68.9864C60.8503 69.2615 60.8339 69.3363 60.7301 69.3363C60.5466 69.3363 60.3663 67.9704 60.382 66.6985C60.3968 65.4933 60.4641 64.9932 60.6301 64.8547C60.7379 64.7646 60.7481 64.8046 60.6979 65.1201C60.6554 65.3875 60.6697 65.4913 60.7489 65.4913C60.989 65.4913 61.908 64.9172 62.6652 64.2942C63.4596 63.6407 64.8451 62.7345 65.8626 62.203C67.4461 61.3759 68.8545 61.0774 71.0635 61.1008C72.1654 61.1124 72.2481 61.1268 73.953 61.6052C74.5827 61.7818 75.5742 61.8034 76.1194 61.6521C76.5477 61.5333 77.8267 60.7284 78.176 60.3579C78.3888 60.1321 78.4285 60.124 79.1095 60.1684C79.5007 60.1938 80.1169 60.2149 80.4788 60.2152ZM89.3241 60.3793C88.886 60.6985 88.736 61.0332 88.7725 61.6102C88.7925 61.9263 88.8397 62.0547 88.9434 62.0744C89.1406 62.1121 89.698 61.7356 89.8152 61.4857C89.947 61.2045 89.9365 60.4632 89.798 60.2727C89.6924 60.1273 89.6599 60.1347 89.3241 60.3793ZM52.0378 61.6432C52.0378 61.748 51.8277 61.9947 51.5152 62.2562C50.996 62.6908 50.2917 62.9688 49.593 63.0147C49.1611 63.0433 49.2676 62.8 49.7485 62.659C50.2132 62.5227 50.2448 62.4447 50.0375 61.9456C49.9641 61.769 49.9041 61.5892 49.9041 61.5461C49.9041 61.5029 50.3842 61.4675 50.971 61.4675C51.972 61.4675 52.0378 61.4784 52.0378 61.6432ZM46.8424 61.8693C46.9137 62.0411 46.9817 62.2725 46.9935 62.3835L47.0147 62.5853L39.2355 62.6402V61.6513L40.5024 61.6238C41.1992 61.6087 42.8815 61.5875 44.2409 61.5766L46.7126 61.557L46.8424 61.8693ZM30.9389 62.349C30.6873 62.4487 30.2559 63.1585 30.2573 63.4705C30.2591 63.8837 30.3502 64.1501 30.4899 64.1501C30.6681 64.1501 31.5008 63.2831 31.5002 63.0983C31.4993 62.7945 31.3129 62.2724 31.2076 62.2786C31.1488 62.2821 31.0279 62.3137 30.9389 62.349ZM89.1397 62.446C88.8384 62.5836 88.7501 62.6806 88.6734 62.9581C88.545 63.4235 88.5539 63.7253 88.7022 63.9294C88.8155 64.0851 88.8497 64.089 89.0801 63.9729C89.6986 63.6614 89.9589 63.0895 89.7424 62.5182C89.6323 62.228 89.6203 62.2265 89.1397 62.446ZM47.7595 63.9654C47.8633 64.2082 47.9482 64.4467 47.9482 64.4955C47.9482 64.5951 46.6865 64.6353 42.4219 64.6711L39.6073 64.6949L39.5158 64.266C39.4572 63.9914 39.4551 63.8058 39.5098 63.7501C39.5611 63.6979 40.8851 63.6516 42.816 63.6345C44.5874 63.6188 46.1168 63.5931 46.2146 63.5773C46.3124 63.5614 46.6575 63.543 46.9815 63.5363L47.5707 63.5242L47.7595 63.9654ZM30.8995 64.3632C30.7542 64.5296 30.6083 64.8106 30.5753 64.9877C30.5103 65.3364 30.6249 65.8895 30.8168 66.1535C30.929 66.3077 30.9631 66.2904 31.35 65.8825C31.795 65.4132 31.8473 65.2027 31.6742 64.5759C31.5972 64.2973 31.3816 64.0607 31.2046 64.0607C31.182 64.0607 31.0448 64.1968 30.8995 64.3632ZM88.9426 64.4089C88.5572 64.6154 88.3196 65.0646 88.3149 65.5958C88.3081 66.354 88.5132 66.4898 89.0187 66.0619C89.393 65.7451 89.5558 65.3997 89.5558 64.9218C89.5558 64.2062 89.4641 64.1294 88.9426 64.4089ZM54.5422 65.2325C56.3058 66.2806 56.5688 66.3557 56.442 65.7752C56.371 65.4498 56.4691 64.6866 56.5821 64.6866C56.7129 64.6866 56.6807 66.3849 56.5498 66.3891C55.9959 66.407 51.6153 66.4879 46.4897 66.5749C40.5127 66.6763 40.2703 66.6741 40.1564 66.5174C40.023 66.334 39.8992 65.7777 39.9747 65.7016C40.0019 65.6743 42.0081 65.6147 44.4329 65.5692L48.8417 65.4865L49.2045 65.7795C49.5457 66.055 49.608 66.0722 50.2469 66.0665C51.0911 66.059 51.6659 65.8458 52.6277 65.1837C53.0123 64.919 53.3937 64.6988 53.4754 64.6945C53.5569 64.6902 54.037 64.9322 54.5422 65.2325ZM31.4831 66.2972C30.9521 66.7374 30.868 67.4222 31.2693 68.0382L31.4113 68.2562L31.8116 67.8258C32.1608 67.4503 32.212 67.345 32.2116 67.0021C32.2114 66.6826 31.9573 66.0279 31.8335 66.0279C31.8195 66.0279 31.6618 66.149 31.4831 66.2972ZM88.4915 66.6901C88.1027 66.8313 87.8677 67.214 87.8671 67.7072C87.8665 68.1674 88.0007 68.2483 88.4701 68.0708C88.8689 67.9199 89.1109 67.4946 89.1111 66.9444C89.1113 66.5195 89.0408 66.4906 88.4915 66.6901ZM56.7319 67.6661C56.7907 67.8294 56.8387 68.0643 56.8387 68.1882V68.4133L52.7713 68.472C50.5342 68.5044 46.9405 68.5575 44.7851 68.59L40.8664 68.6494L40.7177 68.2757C40.5845 67.9407 40.5302 67.6609 40.5913 67.6239C40.6203 67.6063 52.7291 67.4041 54.9316 67.3843L56.6252 67.3691L56.7319 67.6661ZM31.8235 68.4446C31.5367 68.7875 31.5134 69.2825 31.761 69.7706C31.9866 70.2156 32.1577 70.3604 32.2789 70.2092C32.7014 69.6826 32.8141 69.4192 32.7464 69.1171C32.6538 68.7039 32.3694 68.2257 32.1964 68.1922C32.1199 68.1774 31.952 68.291 31.8235 68.4446ZM88.1337 68.5085C87.7363 68.5567 87.6105 68.6655 87.4 69.1431C87.1977 69.602 87.2486 69.9622 87.5155 69.9622C87.927 69.9622 88.3146 69.7056 88.4899 69.3174C88.6882 68.8778 88.7221 68.435 88.5556 68.4564C88.4946 68.4643 88.3047 68.4877 88.1337 68.5085ZM56.9591 69.4139C57.1606 69.4588 57.2398 69.5508 57.3439 69.8613C57.4161 70.0763 57.4419 70.2836 57.4014 70.322C57.2753 70.4413 48.117 70.4944 47.9283 70.377C47.804 70.2995 47.7485 70.3018 47.6961 70.3864C47.6447 70.4695 46.8911 70.5129 44.7291 70.5572L41.8311 70.6167L41.6011 70.16C41.4322 69.8249 41.3994 69.6858 41.4777 69.6371C41.5364 69.6006 44.1064 69.5384 47.189 69.4988C52.4789 69.4308 55.3956 69.3886 56.3053 69.367C56.5253 69.3618 56.8195 69.3829 56.9591 69.4139ZM32.5918 70.4559C32.3187 70.7327 32.2454 70.8713 32.2623 71.08C32.2941 71.4739 32.427 71.7644 32.7015 72.04L32.9451 72.2847L33.2457 71.7827C33.5157 71.3317 33.5373 71.2477 33.4581 70.9567C33.4096 70.7786 33.2739 70.513 33.1565 70.3665L32.9431 70.1001L32.5918 70.4559ZM87.2091 70.453C86.8767 70.6783 86.6448 71.0745 86.6068 71.4823L86.5775 71.7953L86.9776 71.7769C87.3054 71.7618 87.4273 71.7042 87.6525 71.4583C87.9174 71.1691 88.1165 70.5096 87.9975 70.3159C87.9165 70.184 87.4987 70.2567 87.2091 70.453ZM48.4413 71.3995C48.5072 71.5068 48.1374 71.947 48.0348 71.8833C47.9512 71.8313 47.8698 71.4121 47.9313 71.3504C48.0152 71.2659 48.3809 71.3013 48.4413 71.3995ZM50.7709 71.4423C50.9496 71.4976 50.8993 71.8225 50.7023 71.8853C50.3854 71.9865 49.4596 71.689 49.4596 71.486C49.4596 71.3382 50.3404 71.3088 50.7709 71.4423ZM51.0827 71.9065C51.0072 72.1093 50.9051 71.938 50.9526 71.6882C50.9938 71.4713 51.0065 71.4632 51.0618 71.619C51.0961 71.716 51.1055 71.8454 51.0827 71.9065ZM33.3704 72.1924C33.2712 72.3881 33.1899 72.6779 33.1899 72.8365C33.1899 73.188 33.4712 73.7952 33.7608 74.0688L33.9745 74.2707L34.1673 73.8378C34.4865 73.121 34.2772 72.2275 33.7199 71.9275C33.5753 71.8497 33.5249 71.8878 33.3704 72.1924ZM86.7852 72.1927C86.1317 72.3206 85.6836 72.859 85.7501 73.4364C85.7736 73.6403 85.8244 73.677 86.1175 73.7012C86.5563 73.7375 86.8197 73.56 87.0563 73.0682C87.2381 72.6906 87.3138 72.0975 87.1776 72.1185C87.1409 72.1242 86.9643 72.1575 86.7852 72.1927ZM49.6982 73.8988C49.6691 74.1458 49.6248 74.3813 49.5998 74.422C49.5747 74.4627 48.7428 74.5026 47.751 74.5107C46.7593 74.5187 45.6782 74.5499 45.3485 74.5801L44.7493 74.6349L44.3493 74.1987C44.1294 73.9588 43.949 73.7133 43.9485 73.6531C43.9475 73.5403 44.5448 73.5143 48.1606 73.4693L49.7511 73.4495L49.6982 73.8988ZM50.9328 73.5902C50.7761 73.7477 50.5161 73.7318 50.4598 73.5613C50.4346 73.4855 50.5273 73.4495 50.7477 73.4495C51.0432 73.4495 51.06 73.4622 50.9328 73.5902ZM50.2721 73.7112C50.4616 73.8666 50.4668 73.8893 50.3264 73.9443C50.0998 74.033 49.9041 73.9293 49.9041 73.7206C49.9041 73.4934 50.0036 73.4908 50.2721 73.7112ZM34.2544 74.1872C34.1601 74.3962 34.0829 74.6276 34.0829 74.7014C34.0829 75.0658 34.6463 75.9532 34.8776 75.9532C34.9257 75.9532 35.0699 75.745 35.1982 75.4905C35.4062 75.0777 35.4205 74.9911 35.3307 74.6898C35.2031 74.2615 34.827 73.8072 34.6002 73.8072C34.4814 73.8072 34.3714 73.9281 34.2544 74.1872ZM85.2572 74.2591C85.0113 74.4543 84.6263 75.1902 84.704 75.3167C84.7845 75.4477 85.3936 75.4172 85.642 75.2695C85.8947 75.1194 86.4202 74.2899 86.324 74.193C86.2971 74.166 86.1031 74.1245 85.8928 74.1009C85.5891 74.0669 85.4586 74.0993 85.2572 74.2591ZM35.4486 75.784C35.1033 76.1681 35.3217 77.1132 35.8538 77.5375C36.0655 77.7063 36.1027 77.6811 36.2974 77.2384C36.5743 76.6089 36.5398 76.3171 36.1423 75.9267C35.7519 75.5432 35.6785 75.5281 35.4486 75.784ZM84.159 75.9545C84.0083 76.1026 83.8154 76.3714 83.7304 76.5517C83.5677 76.8963 83.6068 77.0611 83.8943 77.2435C84.1218 77.3878 84.7563 77.011 85.0481 76.5585C85.3892 76.0293 85.3641 75.9042 84.8934 75.785C84.6762 75.73 84.4837 75.685 84.4657 75.685C84.4478 75.685 84.3098 75.8062 84.159 75.9545ZM36.5827 77.4328C36.3394 77.9696 36.5226 78.6843 37.0246 79.1574C37.3598 79.4733 37.4574 79.5056 37.4574 79.3006C37.4574 79.2237 37.541 78.9653 37.6431 78.7264L37.8289 78.2921L37.6094 77.9673C37.4083 77.6697 36.8803 77.2051 36.7431 77.2051C36.7116 77.2051 36.6394 77.3075 36.5827 77.4328ZM82.875 77.7038C82.5087 77.9659 82.2116 78.4547 82.2914 78.6638C82.3654 78.8575 82.9067 78.9476 83.1675 78.8096C83.4911 78.6384 83.7621 78.3359 83.9094 77.9813C84.0352 77.6785 84.0328 77.6526 83.8717 77.5659C83.5831 77.4106 83.2132 77.4617 82.875 77.7038ZM38.0848 78.9426C38.0267 79.0129 37.9562 79.2959 37.9278 79.5715L37.8764 80.0725L38.2935 80.4745C38.5229 80.6956 38.746 80.8545 38.7892 80.8276C38.8324 80.8007 38.9163 80.5605 38.9757 80.2937C39.1045 79.7152 39.0035 79.3823 38.5948 79.0364C38.2915 78.7796 38.2288 78.7681 38.0848 78.9426ZM44.9044 79.0825C44.0565 79.3393 43.155 80.4703 43.1493 81.2847C43.1426 82.2324 44.021 83.2234 44.9255 83.289C45.8073 83.3528 46.0351 83.2569 45.9035 82.8772C45.8146 82.6205 45.7992 82.6149 45.1855 82.6149C44.5663 82.6149 44.5543 82.6103 44.2435 82.2591C43.9584 81.9368 43.9325 81.864 43.9686 81.4861C44.0529 80.6036 44.7687 79.8043 45.5415 79.7296C45.9346 79.6916 46.0012 79.7146 46.3022 79.9921C46.5667 80.2358 46.6413 80.378 46.6784 80.7087C46.7201 81.0808 46.7507 81.1266 46.9899 81.1747C47.3809 81.2534 47.4435 81.1726 47.3838 80.6662C47.3133 80.0674 46.9858 79.5938 46.4145 79.2643C45.9307 78.9852 45.4262 78.9245 44.9044 79.0825ZM81.6785 79.2106C81.3929 79.3357 81.0889 79.698 80.9839 80.0386C80.8734 80.3966 81.4236 80.543 81.9161 80.2868C82.1573 80.1613 82.7101 79.5067 82.7101 79.3465C82.7101 79.2751 82.2177 79.0804 82.0523 79.0863C81.9984 79.0883 81.8302 79.1442 81.6785 79.2106ZM72.8107 79.8677C72.5661 80.0165 72.5592 80.0401 72.6099 80.5582C72.6388 80.8533 72.6965 81.2758 72.7382 81.4971C72.7799 81.7184 72.9275 82.5031 73.0662 83.2408C73.205 83.9785 73.3275 84.5951 73.3385 84.611C73.3675 84.653 73.889 84.3731 73.9418 84.2872C73.9663 84.2474 73.9475 84.0405 73.8999 83.8276C73.7922 83.3459 73.8484 83.2755 74.7559 82.7533L75.4277 82.3666L76.1902 82.9174L76.4718 82.745C76.6267 82.6503 76.7535 82.5495 76.7535 82.521C76.7535 82.4544 76.5398 82.2762 74.9754 81.0381C73.0704 79.5303 73.2263 79.6147 72.8107 79.8677ZM39.2006 80.4762C39.0773 80.799 39.15 81.3863 39.3501 81.6851C39.6069 82.0686 40.2881 82.4697 40.393 82.2991C40.546 82.0502 40.5775 81.4222 40.4522 81.1205C40.2021 80.5185 39.3515 80.0806 39.2006 80.4762ZM80.1695 80.7441C79.6339 81.0934 79.3444 81.6825 79.6502 81.8005C80.1302 81.9858 80.9932 81.6256 81.2456 81.1349C81.3794 80.8746 81.3771 80.8671 81.1349 80.7806C80.9989 80.7321 80.8181 80.652 80.7332 80.603C80.5352 80.4883 80.5784 80.4774 80.1695 80.7441ZM74.842 81.9566C74.842 82.0901 73.9192 82.6781 73.782 82.632C73.6722 82.5953 73.4879 81.8833 73.409 81.1907L73.3486 80.6608L74.0953 81.2487C74.506 81.5721 74.842 81.8907 74.842 81.9566ZM48.0816 81.8193C47.5437 82.3366 46.813 83.0273 46.4578 83.3542C46.1026 83.6812 45.8239 83.9845 45.8384 84.0283C45.8529 84.0721 45.9949 84.1629 46.1539 84.2302C46.4317 84.3477 46.456 84.3406 46.7771 84.0488L47.1112 83.7453L47.9048 84.1006C48.3413 84.2961 48.7304 84.5045 48.7695 84.5637C48.8086 84.623 48.8173 84.8539 48.7888 85.0769C48.738 85.4743 48.7434 85.4854 49.0649 85.6396C49.2452 85.7261 49.4034 85.7851 49.4165 85.7707C49.4423 85.7422 49.6873 83.3009 49.7976 81.9739L49.8657 81.1541L49.5707 81.0127C49.4085 80.9349 49.2271 80.8729 49.1676 80.8751C49.1082 80.8771 48.6194 81.3021 48.0816 81.8193ZM70.7751 81.2071C70.5959 81.3187 70.5449 81.4072 70.5831 81.54C70.6467 81.7606 72.0138 84.8914 72.1206 85.061C72.1839 85.1614 72.2525 85.1558 72.5194 85.0284C72.6967 84.9438 72.8394 84.849 72.8367 84.8177C72.8219 84.6498 71.1797 81.1043 71.1062 81.0818C71.0583 81.0671 70.9093 81.1235 70.7751 81.2071ZM69.2165 81.769C69.0494 81.8366 69.025 81.8937 69.0755 82.0986C69.126 82.3032 69.7262 83.985 69.9537 84.5597C70.0481 84.798 69.8495 84.751 69.4795 84.4476C69.2994 84.3 68.7013 83.8143 68.1504 83.3682L67.1486 82.5573L66.8168 82.6639C66.6343 82.7226 66.4505 82.8024 66.4085 82.8412C66.3664 82.88 66.4017 83.1265 66.4871 83.3892C66.7505 84.2001 67.6976 86.7242 67.7655 86.7963C67.8447 86.8803 68.3964 86.6965 68.3964 86.5861C68.3964 86.5422 68.1764 85.9166 67.9074 85.196C67.6385 84.4754 67.4184 83.8713 67.4184 83.8538C67.4184 83.7196 67.7711 83.9618 68.923 84.8866L70.2487 85.9511L70.6562 85.8038C70.8802 85.7227 71.0635 85.6137 71.0635 85.5614C71.0635 85.4646 70.043 82.6208 69.7896 82.0113C69.6456 81.6651 69.5617 81.6296 69.2165 81.769ZM40.8029 81.9666C40.6924 82.3815 40.7459 82.9025 40.9223 83.1279C41.0866 83.3381 41.602 83.6432 41.7926 83.6432C41.8395 83.6432 41.9011 83.3917 41.9294 83.0843C41.9735 82.6058 41.9532 82.4844 41.7878 82.2397C41.4637 81.7602 40.8996 81.6037 40.8029 81.9666ZM49.0745 82.2795C49.0458 82.464 48.9952 82.8865 48.962 83.2184C48.9108 83.7299 48.8759 83.822 48.7331 83.822C48.4914 83.822 47.6815 83.3922 47.6815 83.2638C47.6815 83.1121 48.85 81.9442 49.0018 81.9442C49.0961 81.9442 49.1139 82.0263 49.0745 82.2795ZM78.7446 82.072C78.4543 82.1992 78.0871 82.6408 78.0871 82.8627C78.0871 83.0793 78.9044 83.2003 79.2454 83.0341C79.4975 82.9113 80.0265 82.3334 79.9442 82.2706C79.8909 82.23 79.109 81.9438 79.0621 81.9477C79.0392 81.9497 78.8964 82.0056 78.7446 82.072ZM51.2669 82.369C50.7318 83.6547 49.8262 85.9192 49.8414 85.9335C49.8514 85.943 50.4118 86.1733 51.0866 86.4452L52.3135 86.9398L52.4012 86.7076C52.5162 86.4033 52.4549 86.3494 51.6163 86.0171C51.2028 85.8532 50.9175 85.6868 50.901 85.5999C50.8859 85.5203 51.0805 84.9369 51.3334 84.3033C51.5862 83.6697 51.8687 82.9584 51.9611 82.7225L52.1291 82.2938L51.8196 82.1636C51.4096 81.9914 51.4266 81.9851 51.2669 82.369ZM42.304 83.3656C42.26 83.6874 42.282 83.877 42.387 84.0813C42.5311 84.3615 43.0246 84.7386 43.389 84.8467C43.5824 84.9041 43.5851 84.8939 43.5314 84.2965C43.4708 83.6222 43.3934 83.4659 42.9624 83.1461C42.5074 82.8084 42.3741 82.8529 42.304 83.3656ZM54.1319 83.2113C53.874 83.9884 53.1164 87.0886 53.1711 87.1436C53.2109 87.1836 53.3684 87.2416 53.5209 87.2723C53.743 87.317 53.8074 87.2951 53.8451 87.1622C53.871 87.071 53.9947 86.6141 54.1202 86.1469C54.2456 85.6796 54.4677 84.8559 54.6136 84.3163C54.7596 83.7767 54.8498 83.3082 54.8142 83.2751C54.6673 83.1386 54.1715 83.0923 54.1319 83.2113ZM77.0647 83.3435C76.7647 83.4965 76.2874 84.0722 76.3611 84.1921C76.4806 84.3867 76.9647 84.5509 77.2565 84.4958C77.5691 84.4369 78.3538 83.7708 78.3538 83.5645C78.3538 83.432 77.8156 83.1938 77.5342 83.2018C77.4227 83.2049 77.2113 83.2687 77.0647 83.3435ZM63.3428 83.4188C62.9349 83.4824 62.5647 83.5712 62.52 83.6161C62.471 83.6654 62.4736 83.8907 62.5268 84.1847C62.5752 84.4524 62.7001 85.2945 62.8042 86.056C63.0455 87.8215 63.0457 87.8223 63.4604 87.7735C63.64 87.7524 63.8068 87.6831 63.8312 87.6194C63.8555 87.5556 63.8197 87.2031 63.7517 86.836C63.5926 85.9771 63.6563 85.7892 64.1065 85.7892C64.4206 85.7892 64.4877 85.8401 65.0201 86.4822C65.845 87.477 65.7634 87.4179 66.2174 87.3494C66.4379 87.3162 66.6183 87.2696 66.6183 87.246C66.6183 87.2223 66.3165 86.841 65.9475 86.3988L65.2767 85.5947L65.6808 85.2163C66.0499 84.8705 66.0849 84.8014 66.0849 84.4162C66.0849 83.3652 65.3655 83.1035 63.3428 83.4188ZM55.3751 83.4867C55.2503 83.8791 54.6574 87.4715 54.7098 87.5183C54.7316 87.5378 54.8983 87.5808 55.0803 87.6139C55.4544 87.682 55.4158 87.7551 55.603 86.6226C55.6614 86.2694 55.7384 85.9331 55.7741 85.8749C55.824 85.7937 55.9847 85.7941 56.4687 85.8762C57.144 85.9907 57.2832 85.9613 57.2832 85.7041C57.2832 85.5061 57.1912 85.4663 56.5442 85.385C56.269 85.3504 56.0063 85.2764 55.9604 85.2204C55.8458 85.0806 56.0311 84.1769 56.1866 84.1169C56.2534 84.0911 56.6355 84.1182 57.0358 84.1771C57.7034 84.2752 57.7732 84.271 57.8794 84.1249C57.9522 84.0249 57.9639 83.9343 57.911 83.8811C57.8512 83.8209 55.7746 83.3976 55.4357 83.3764C55.4219 83.3756 55.3946 83.4252 55.3751 83.4867ZM59.6392 83.5479C58.9564 83.7151 58.3435 84.2695 58.1776 84.8702C58.06 85.2964 58.0573 86.183 58.1725 86.5998C58.5394 87.9284 60.4967 88.3782 61.535 87.3725C62.2244 86.7046 62.4062 85.5104 61.9586 84.5901C61.6885 84.0349 61.375 83.7695 60.7745 83.5877C60.3354 83.4548 60.059 83.4452 59.6392 83.5479ZM64.9982 83.9612C65.1433 84.0634 65.1958 84.1905 65.1958 84.4392C65.1958 84.8736 65.0048 85.047 64.3996 85.1625C63.5524 85.3241 63.5511 85.3234 63.4351 84.6965C63.3182 84.0641 63.3493 84.0031 63.8355 83.9084C64.4037 83.7978 64.7912 83.8153 64.9982 83.9612ZM43.8586 84.5166C43.8586 85.1856 44.253 85.6847 44.9378 85.8822C45.1609 85.9465 45.1934 85.9315 45.202 85.7606C45.2409 84.9898 45.0774 84.582 44.6216 84.3134C44.4134 84.1907 44.1565 84.0902 44.0508 84.0902C43.8806 84.0902 43.8586 84.1392 43.8586 84.5166ZM60.8305 84.3401C61.1917 84.6082 61.3729 85.0576 61.3729 85.6848C61.3729 86.6853 60.9752 87.2237 60.1876 87.2894C59.7528 87.3256 59.6847 87.3047 59.389 87.0435C58.7296 86.4613 58.6997 85.0937 59.3322 84.4575C59.7238 84.0637 60.3881 84.0116 60.8305 84.3401ZM75.4316 84.473C75.0398 84.5989 74.5118 85.0987 74.5805 85.2786C74.6983 85.5875 75.5479 85.7351 75.9648 85.519C76.2121 85.3907 76.6646 84.9804 76.6646 84.8843C76.6646 84.8476 76.5745 84.7895 76.4645 84.7552C76.3546 84.7208 76.1584 84.6175 76.0285 84.5256C75.8988 84.4337 75.7787 84.3626 75.7618 84.3676C75.7449 84.3726 75.5963 84.4201 75.4316 84.473ZM45.637 85.588C45.6375 86.1433 45.8716 86.5192 46.3673 86.7605C46.9473 87.043 47.0959 87.0204 47.0203 86.661C46.9867 86.5011 46.9455 86.2384 46.9288 86.077C46.89 85.701 46.7843 85.5788 46.2999 85.3498C45.7043 85.0682 45.6366 85.0926 45.637 85.588ZM73.3154 85.5619C72.932 85.7296 72.798 85.99 73.0003 86.1741C73.3405 86.4837 73.6366 86.5761 74.0152 86.4906C74.3856 86.4069 74.8865 86.1073 74.8865 85.9695C74.8865 85.841 74.0773 85.4313 73.8306 85.435C73.7023 85.437 73.4705 85.494 73.3154 85.5619ZM47.3852 86.1171C47.1698 86.3336 47.4759 87.1213 47.9026 87.4486C48.1995 87.6763 48.9843 87.8787 49.0646 87.7482C49.1498 87.6094 48.8343 86.7118 48.6335 86.5221C48.283 86.1908 47.5487 85.9526 47.3852 86.1171ZM71.7748 86.3553C71.4374 86.5139 71.0635 86.7841 71.0635 86.8693C71.0635 87.0172 71.731 87.3987 71.9896 87.3987C72.2697 87.3987 72.9433 87.1069 73.0991 86.9182C73.17 86.8321 73.0948 86.7346 72.7925 86.5203C72.3705 86.2211 72.1398 86.1837 71.7748 86.3553ZM49.3255 87.2422C49.5036 88.1363 49.751 88.3921 50.498 88.4545C50.7581 88.4761 50.9692 88.4587 50.9671 88.4157C50.955 88.175 50.7277 87.4902 50.6143 87.3526C50.4317 87.1312 49.9726 86.9516 49.5888 86.9516C49.2739 86.9516 49.2688 86.9572 49.3255 87.2422ZM69.8112 87.1226C69.4432 87.2411 69.1076 87.4963 69.1076 87.6579C69.1076 87.8286 69.558 88.129 69.9522 88.2212C70.4956 88.3482 71.4323 87.8847 71.3053 87.5516C71.183 87.2312 70.2797 86.9718 69.8112 87.1226ZM51.2272 87.8234C51.2102 88.2197 51.2421 88.3256 51.4455 88.5473C51.7062 88.8316 52.0057 88.9742 52.4824 89.0411C53.1044 89.1285 53.1697 89.033 52.8973 88.4344C52.7064 88.0152 52.6029 87.9003 52.286 87.7557C52.0762 87.6598 51.7545 87.5806 51.5711 87.5795C51.2687 87.5777 51.2367 87.6004 51.2272 87.8234ZM67.7668 87.6962C67.3363 87.8379 66.9411 88.1673 67.004 88.332C67.1571 88.7333 68.3169 88.9678 68.8295 88.7012C69.3081 88.4523 69.323 88.3478 68.9309 87.9915C68.7344 87.813 68.517 87.667 68.4479 87.667C68.3786 87.667 68.2687 87.65 68.2037 87.6291C68.1385 87.6083 67.9419 87.6385 67.7668 87.6962ZM53.2423 88.1965C53.1504 88.3461 53.5002 89.1203 53.7413 89.301C54.0461 89.5294 55.0383 89.5815 54.9797 89.3659C54.9596 89.2921 54.9243 89.0927 54.9012 88.9228C54.878 88.7529 54.8029 88.5574 54.7342 88.4883C54.4709 88.2235 53.3593 88.0061 53.2423 88.1965ZM65.5638 88.2928C65.3995 88.3318 65.1995 88.4306 65.1193 88.5122C64.984 88.6501 64.9968 88.6824 65.2983 88.9618C65.7237 89.3563 66.2973 89.458 66.803 89.2286L67.1542 89.0694L66.6862 88.6404C66.2098 88.2038 66.0919 88.1673 65.5638 88.2928ZM63.6968 88.5611C63.5325 88.6 63.3356 88.6948 63.2592 88.7716C63.1334 88.8982 63.1528 88.9411 63.4662 89.2298C64.0003 89.7218 64.6133 89.826 65.0512 89.4991C65.2107 89.38 65.2055 89.3592 64.9269 89.0054C64.5275 88.4983 64.3027 88.4171 63.6968 88.5611ZM55.4385 88.6486C55.2029 88.7495 55.2029 88.7495 55.3616 89.1316C55.5407 89.5627 56.0346 89.8386 56.6274 89.8386C56.8927 89.8386 57.1343 89.8138 57.1644 89.7835C57.2717 89.6755 56.8558 88.8739 56.6344 88.7619C56.3281 88.6069 55.6795 88.5455 55.4385 88.6486ZM57.3193 88.8637C57.2312 89.0947 57.5805 89.6704 57.9059 89.8304C58.2195 89.9846 58.6699 90.0344 58.9107 89.9414C59.1133 89.8632 58.7338 89.0275 58.4221 88.8653C58.1046 88.7001 57.3822 88.6991 57.3193 88.8637ZM59.568 88.8338C59.09 88.9164 58.9862 89.0443 59.1538 89.3447C59.4508 89.8767 60.1934 90.1276 60.9041 89.936L61.1022 89.8826L60.8673 89.4677C60.7381 89.2396 60.6039 89.0197 60.569 88.9789C60.4595 88.8511 59.9201 88.7729 59.568 88.8338ZM61.3951 88.8353C61.2362 88.884 61.1062 88.9666 61.1062 89.0189C61.1062 89.1939 61.5931 89.8017 61.773 89.8511C62.2649 89.9863 63.2984 89.8391 63.2249 89.6444C63.2087 89.6015 63.0397 89.3941 62.8494 89.1836C62.5507 88.8531 62.4473 88.797 62.0937 88.7737C61.8684 88.7588 61.5541 88.7866 61.3951 88.8353Z" fill="#393737"/>
<path d="M64.4488 66.6418C64.4424 66.6444 64.4328 66.647 64.4199 66.6496C64.407 66.6535 64.3929 66.6554 64.3775 66.6554C64.3209 66.6554 64.2926 66.6315 64.2926 66.5836V65.47C64.299 65.4674 64.3087 65.4649 64.3215 65.4623C64.3357 65.4584 64.3504 65.4564 64.3659 65.4564C64.4212 65.4564 64.4488 65.4804 64.4488 65.5282V66.6418Z" fill="#393737"/>
<path d="M65.0154 66.6554C64.9588 66.6554 64.9305 66.6321 64.9305 66.5856V65.4894C64.9537 65.4661 64.9884 65.4545 65.0347 65.4545C65.0655 65.4545 65.0919 65.461 65.1138 65.4739C65.1356 65.4855 65.1556 65.5075 65.1736 65.5399L65.542 66.1607C65.5574 66.1878 65.5735 66.2169 65.5902 66.248C65.6069 66.2777 65.623 66.3081 65.6384 66.3392C65.6539 66.3689 65.668 66.3974 65.6809 66.4245C65.695 66.4504 65.7066 66.4724 65.7156 66.4905L65.7233 66.4885C65.713 66.3838 65.7066 66.2784 65.704 66.1723C65.7027 66.0663 65.7021 65.9628 65.7021 65.8619V65.47C65.7098 65.4674 65.7201 65.4649 65.7329 65.4623C65.7458 65.4584 65.7599 65.4564 65.7754 65.4564C65.832 65.4564 65.8602 65.4797 65.8602 65.5263V66.6244C65.8487 66.6347 65.8339 66.6425 65.8159 66.6476C65.7979 66.6541 65.778 66.6573 65.7561 66.6573C65.7252 66.6573 65.6989 66.6515 65.677 66.6399C65.6551 66.6269 65.6352 66.6043 65.6172 66.572L65.2507 65.9512C65.2353 65.9253 65.2186 65.8968 65.2006 65.8658C65.1838 65.8348 65.1671 65.8044 65.1504 65.7746C65.135 65.7449 65.1202 65.7164 65.106 65.6893C65.0932 65.6621 65.0823 65.6395 65.0732 65.6213L65.0655 65.6233C65.072 65.6854 65.0771 65.7565 65.081 65.8367C65.0848 65.9156 65.0868 65.9906 65.0868 66.0617V66.6418C65.0803 66.6444 65.07 66.647 65.0559 66.6496C65.043 66.6535 65.0295 66.6554 65.0154 66.6554Z" fill="#393737"/>
<path d="M67.1954 65.5961C67.1954 65.6142 67.1896 65.6298 67.178 65.6427C67.1677 65.6556 67.1555 65.6653 67.1414 65.6718C67.1079 65.6485 67.0687 65.6265 67.0237 65.6058C66.9787 65.5851 66.9202 65.5748 66.8482 65.5748C66.789 65.5748 66.7344 65.5851 66.6842 65.6058C66.634 65.6265 66.5903 65.6569 66.553 65.697C66.5157 65.7371 66.4862 65.7875 66.4643 65.8483C66.4437 65.9091 66.4334 65.979 66.4334 66.0579C66.4334 66.138 66.4437 66.2079 66.4643 66.2674C66.4849 66.3269 66.5132 66.3767 66.5492 66.4168C66.5865 66.4569 66.6308 66.4873 66.6823 66.5079C66.7337 66.5274 66.7909 66.537 66.8539 66.537C66.9208 66.537 66.9787 66.528 67.0275 66.5099C67.0777 66.4905 67.1195 66.4679 67.1529 66.442C67.1658 66.4472 67.178 66.4569 67.1896 66.4711C67.2012 66.484 67.2069 66.4995 67.2069 66.5176C67.2069 66.5448 67.1915 66.5694 67.1606 66.5914C67.1311 66.6121 67.0906 66.6302 67.0391 66.6457C66.9877 66.6625 66.9221 66.6709 66.8424 66.6709C66.7614 66.6709 66.6861 66.658 66.6167 66.6321C66.5472 66.6062 66.4868 66.5681 66.4354 66.5176C66.3852 66.4659 66.3454 66.4019 66.3158 66.3256C66.2862 66.2493 66.2714 66.16 66.2714 66.0579C66.2714 65.9557 66.2862 65.8664 66.3158 65.7901C66.3466 65.7125 66.3878 65.6479 66.4392 65.5961C66.4907 65.5444 66.5505 65.5056 66.6186 65.4797C66.6881 65.4539 66.7607 65.4409 66.8366 65.4409C66.8893 65.4409 66.9375 65.4455 66.9813 65.4545C67.0263 65.4636 67.0642 65.4758 67.0951 65.4914C67.1272 65.5056 67.1516 65.5224 67.1684 65.5418C67.1864 65.5599 67.1954 65.578 67.1954 65.5961Z" fill="#393737"/>
<path d="M68.6404 66.0559C68.6404 66.1568 68.6262 66.246 68.5979 66.3236C68.5696 66.4 68.5304 66.464 68.4803 66.5157C68.4301 66.5662 68.371 66.605 68.3028 66.6321C68.2346 66.658 68.1607 66.6709 68.081 66.6709C68.0013 66.6709 67.9273 66.658 67.8592 66.6321C67.791 66.605 67.7318 66.5662 67.6817 66.5157C67.6315 66.464 67.5923 66.4 67.564 66.3236C67.5357 66.246 67.5216 66.1568 67.5216 66.0559C67.5216 65.955 67.5357 65.8664 67.564 65.7901C67.5936 65.7138 67.6335 65.6498 67.6836 65.5981C67.7338 65.5463 67.7929 65.5075 67.8611 65.4817C67.9292 65.4545 68.0025 65.4409 68.081 65.4409C68.1594 65.4409 68.2327 65.4545 68.3009 65.4817C68.369 65.5075 68.4282 65.5463 68.4783 65.5981C68.5285 65.6498 68.5677 65.7138 68.596 65.7901C68.6256 65.8664 68.6404 65.955 68.6404 66.0559ZM68.4803 66.0559C68.4803 65.9007 68.4436 65.7817 68.3703 65.699C68.2983 65.6162 68.2019 65.5748 68.081 65.5748C68.0205 65.5748 67.9659 65.5858 67.917 65.6078C67.8682 65.6285 67.8264 65.6595 67.7916 65.7009C67.7569 65.741 67.7299 65.7908 67.7106 65.8503C67.6926 65.9098 67.6836 65.9783 67.6836 66.0559C67.6836 66.2111 67.7196 66.3301 67.7916 66.4129C67.8637 66.4957 67.9601 66.537 68.081 66.537C68.2031 66.537 68.3002 66.4957 68.3722 66.4129C68.4443 66.3301 68.4803 66.2111 68.4803 66.0559Z" fill="#393737"/>
<path d="M69.2122 66.6418C69.2045 66.6444 69.1942 66.647 69.1813 66.6496C69.1685 66.6535 69.1543 66.6554 69.1389 66.6554C69.0823 66.6554 69.054 66.6315 69.054 66.5836V65.5515C69.054 65.5308 69.0592 65.5153 69.0695 65.5049C69.0797 65.4933 69.0958 65.4843 69.1177 65.4778C69.155 65.4661 69.2006 65.4577 69.2546 65.4526C69.3099 65.4474 69.3633 65.4448 69.4147 65.4448C69.5768 65.4448 69.697 65.4778 69.7754 65.5438C69.8552 65.6084 69.895 65.7009 69.895 65.8212C69.895 65.9104 69.8719 65.9854 69.8256 66.0462C69.7806 66.107 69.7118 66.1503 69.6192 66.1762C69.6514 66.2176 69.6835 66.259 69.7156 66.3004C69.7478 66.3418 69.778 66.3812 69.8063 66.4187C69.8359 66.4549 69.8616 66.4879 69.8835 66.5176C69.9066 66.5474 69.9246 66.5707 69.9375 66.5875C69.9323 66.6095 69.9208 66.6269 69.9028 66.6399C69.886 66.6528 69.8687 66.6593 69.8507 66.6593C69.8288 66.6593 69.8108 66.6541 69.7967 66.6438C69.7825 66.6334 69.7677 66.6172 69.7523 66.5953L69.4707 66.1995H69.2122V66.6418ZM69.4321 66.0676C69.5273 66.0676 69.6018 66.0469 69.6559 66.0055C69.7099 65.9641 69.7369 65.9027 69.7369 65.8212C69.7369 65.7397 69.7086 65.6789 69.652 65.6388C69.5954 65.5974 69.5144 65.5767 69.409 65.5767C69.3742 65.5767 69.3389 65.5787 69.3029 65.5826C69.2681 65.5851 69.2373 65.589 69.2103 65.5942V66.0676H69.4321Z" fill="#393737"/>
<path d="M70.4831 66.2247V66.6418C70.4754 66.6444 70.4651 66.647 70.4522 66.6496C70.4394 66.6535 70.4252 66.6554 70.4098 66.6554C70.3532 66.6554 70.3249 66.6315 70.3249 66.5836V65.5515C70.3249 65.5308 70.3301 65.5153 70.3404 65.5049C70.3507 65.4933 70.3667 65.4843 70.3886 65.4778C70.4259 65.4661 70.4709 65.4577 70.5236 65.4526C70.5776 65.4474 70.6297 65.4448 70.6799 65.4448C70.8432 65.4448 70.9621 65.4797 71.0367 65.5496C71.1126 65.6181 71.1505 65.7112 71.1505 65.8289C71.1505 65.9492 71.1119 66.0456 71.0348 66.118C70.9576 66.1891 70.8387 66.2247 70.6779 66.2247H70.4831ZM70.6683 66.0928C70.7712 66.0928 70.8509 66.0714 70.9075 66.0288C70.964 65.9861 70.9923 65.9201 70.9923 65.8309C70.9923 65.7429 70.9647 65.6789 70.9094 65.6388C70.8554 65.5974 70.7776 65.5767 70.676 65.5767C70.6413 65.5767 70.6066 65.5787 70.5718 65.5826C70.5384 65.5851 70.5082 65.589 70.4812 65.5942V66.0928H70.6683Z" fill="#393737"/>
<path d="M72.6057 66.0559C72.6057 66.1568 72.5915 66.246 72.5632 66.3236C72.5349 66.4 72.4957 66.464 72.4456 66.5157C72.3954 66.5662 72.3362 66.605 72.2681 66.6321C72.1999 66.658 72.126 66.6709 72.0463 66.6709C71.9665 66.6709 71.8926 66.658 71.8244 66.6321C71.7563 66.605 71.6971 66.5662 71.647 66.5157C71.5968 66.464 71.5576 66.4 71.5293 66.3236C71.501 66.246 71.4869 66.1568 71.4869 66.0559C71.4869 65.955 71.501 65.8664 71.5293 65.7901C71.5589 65.7138 71.5988 65.6498 71.6489 65.5981C71.6991 65.5463 71.7582 65.5075 71.8264 65.4817C71.8945 65.4545 71.9678 65.4409 72.0463 65.4409C72.1247 65.4409 72.198 65.4545 72.2662 65.4817C72.3343 65.5075 72.3935 65.5463 72.4436 65.5981C72.4938 65.6498 72.533 65.7138 72.5613 65.7901C72.5909 65.8664 72.6057 65.955 72.6057 66.0559ZM72.4456 66.0559C72.4456 65.9007 72.4089 65.7817 72.3356 65.699C72.2636 65.6162 72.1671 65.5748 72.0463 65.5748C71.9858 65.5748 71.9312 65.5858 71.8823 65.6078C71.8334 65.6285 71.7916 65.6595 71.7569 65.7009C71.7222 65.741 71.6952 65.7908 71.6759 65.8503C71.6579 65.9098 71.6489 65.9783 71.6489 66.0559C71.6489 66.2111 71.6849 66.3301 71.7569 66.4129C71.8289 66.4957 71.9254 66.537 72.0463 66.537C72.1684 66.537 72.2655 66.4957 72.3375 66.4129C72.4095 66.3301 72.4456 66.2111 72.4456 66.0559Z" fill="#393737"/>
<path d="M73.1775 66.6418C73.1698 66.6444 73.1595 66.647 73.1466 66.6496C73.1338 66.6535 73.1196 66.6554 73.1042 66.6554C73.0476 66.6554 73.0193 66.6315 73.0193 66.5836V65.5515C73.0193 65.5308 73.0245 65.5153 73.0347 65.5049C73.045 65.4933 73.0611 65.4843 73.083 65.4778C73.1203 65.4661 73.1659 65.4577 73.2199 65.4526C73.2752 65.4474 73.3286 65.4448 73.38 65.4448C73.5421 65.4448 73.6623 65.4778 73.7407 65.5438C73.8205 65.6084 73.8603 65.7009 73.8603 65.8212C73.8603 65.9104 73.8372 65.9854 73.7909 66.0462C73.7459 66.107 73.6771 66.1503 73.5845 66.1762C73.6166 66.2176 73.6488 66.259 73.6809 66.3004C73.7131 66.3418 73.7433 66.3812 73.7716 66.4187C73.8012 66.4549 73.8269 66.4879 73.8488 66.5176C73.8719 66.5474 73.8899 66.5707 73.9028 66.5875C73.8976 66.6095 73.886 66.6269 73.868 66.6399C73.8513 66.6528 73.834 66.6593 73.816 66.6593C73.7941 66.6593 73.7761 66.6541 73.762 66.6438C73.7478 66.6334 73.733 66.6172 73.7176 66.5953L73.436 66.1995H73.1775V66.6418ZM73.3974 66.0676C73.4925 66.0676 73.5671 66.0469 73.6211 66.0055C73.6751 65.9641 73.7022 65.9027 73.7022 65.8212C73.7022 65.7397 73.6739 65.6789 73.6173 65.6388C73.5607 65.5974 73.4797 65.5767 73.3742 65.5767C73.3395 65.5767 73.3042 65.5787 73.2681 65.5826C73.2334 65.5851 73.2026 65.589 73.1756 65.5942V66.0676H73.3974Z" fill="#393737"/>
<path d="M74.9592 66.3314H74.4422C74.4332 66.3573 74.4236 66.3857 74.4133 66.4168C74.403 66.4465 74.3927 66.4763 74.3824 66.506C74.3734 66.5345 74.3644 66.5616 74.3554 66.5875C74.3464 66.6121 74.3394 66.6328 74.3342 66.6496C74.3162 66.6573 74.295 66.6612 74.2706 66.6612C74.25 66.6612 74.2313 66.656 74.2146 66.6457C74.1992 66.6341 74.1915 66.6159 74.1915 66.5914C74.1915 66.5797 74.1934 66.5681 74.1973 66.5564C74.2011 66.5435 74.2056 66.5299 74.2108 66.5157C74.2301 66.4614 74.2545 66.3915 74.2841 66.3062C74.3149 66.2208 74.3477 66.1303 74.3824 66.0346C74.4184 65.9376 74.4545 65.8406 74.4905 65.7436C74.5278 65.6453 74.5618 65.5573 74.5927 65.4797C74.603 65.4746 74.6184 65.4694 74.639 65.4642C74.6596 65.459 74.6808 65.4564 74.7026 65.4564C74.7284 65.4564 74.7528 65.4603 74.7759 65.4681C74.8004 65.4758 74.8158 65.4888 74.8222 65.5069C74.8531 65.5819 74.8859 65.6679 74.9206 65.7649C74.9566 65.8606 74.9926 65.9589 75.0286 66.0598C75.0646 66.1607 75.0987 66.2603 75.1309 66.3586C75.1643 66.4556 75.1939 66.5435 75.2196 66.6224C75.2093 66.6341 75.1971 66.6431 75.1829 66.6496C75.1688 66.6573 75.1527 66.6612 75.1347 66.6612C75.1103 66.6612 75.0916 66.656 75.0788 66.6457C75.0659 66.6341 75.055 66.6153 75.046 66.5894L74.9592 66.3314ZM74.7007 65.5884C74.6866 65.6272 74.6705 65.6718 74.6525 65.7222C74.6345 65.7714 74.6158 65.8231 74.5966 65.8774C74.5773 65.9318 74.558 65.9867 74.5387 66.0423C74.5194 66.098 74.5014 66.151 74.4847 66.2014H74.9187C74.8994 66.1432 74.8795 66.085 74.8589 66.0268C74.8383 65.9673 74.8184 65.9104 74.7991 65.8561C74.7811 65.8018 74.7637 65.752 74.747 65.7067C74.7316 65.6602 74.7187 65.6207 74.7084 65.5884H74.7007Z" fill="#393737"/>
<path d="M75.9061 65.6V66.6418C75.8996 66.6444 75.8893 66.647 75.8752 66.6496C75.8623 66.6535 75.8488 66.6554 75.8347 66.6554C75.7781 66.6554 75.7498 66.6315 75.7498 66.5836V65.6H75.3891C75.3852 65.5935 75.3814 65.5851 75.3775 65.5748C75.3737 65.5631 75.3717 65.5502 75.3717 65.536C75.3717 65.514 75.3769 65.4972 75.3872 65.4855C75.3975 65.4726 75.4122 65.4661 75.4315 65.4661H76.2668C76.2706 65.4726 76.2745 65.4817 76.2783 65.4933C76.2822 65.5037 76.2841 65.5153 76.2841 65.5282C76.2841 65.5502 76.279 65.5677 76.2687 65.5806C76.2584 65.5935 76.2436 65.6 76.2243 65.6H75.9061Z" fill="#393737"/>
<path d="M76.7248 66.6457C76.699 66.6457 76.6785 66.6379 76.663 66.6224C76.6476 66.6069 76.6399 66.5862 76.6399 66.5603V65.5515C76.6399 65.5256 76.6476 65.5049 76.663 65.4894C76.6785 65.4739 76.699 65.4661 76.7248 65.4661H77.3652C77.369 65.4726 77.3729 65.4817 77.3767 65.4933C77.3806 65.5037 77.3825 65.5153 77.3825 65.5282C77.3825 65.5502 77.3774 65.5677 77.3671 65.5806C77.3568 65.5935 77.342 65.6 77.3227 65.6H76.7961V65.9744H77.3054C77.3092 65.9809 77.3131 65.99 77.3169 66.0016C77.3208 66.0119 77.3227 66.0236 77.3227 66.0365C77.3227 66.0585 77.3176 66.076 77.3073 66.0889C77.297 66.1005 77.2822 66.1064 77.2629 66.1064H76.7961V66.5138H77.3748C77.3787 66.5202 77.3825 66.5286 77.3864 66.539C77.3902 66.5493 77.3922 66.5616 77.3922 66.5759C77.3922 66.5978 77.387 66.6153 77.3767 66.6282C77.3664 66.6399 77.3517 66.6457 77.3324 66.6457H76.7248Z" fill="#393737"/>
<path d="M78.6214 66.0423C78.6214 65.9596 78.6085 65.8891 78.5828 65.8309C78.5584 65.7714 78.5243 65.7229 78.4806 65.6854C78.4381 65.6479 78.388 65.6207 78.3301 65.6039C78.2735 65.5858 78.2124 65.5767 78.1469 65.5767C78.1057 65.5767 78.0697 65.578 78.0388 65.5806C78.0093 65.5832 77.9816 65.5871 77.9559 65.5923V66.5157C77.9867 66.5235 78.0195 66.5286 78.0543 66.5312C78.0903 66.5338 78.1269 66.5351 78.1642 66.5351C78.316 66.5351 78.4298 66.4937 78.5056 66.4109C78.5828 66.3282 78.6214 66.2053 78.6214 66.0423ZM78.7815 66.0423C78.7815 66.1484 78.7667 66.2409 78.7371 66.3198C78.7088 66.3974 78.6677 66.462 78.6136 66.5138C78.5609 66.5655 78.4966 66.6043 78.4208 66.6302C78.3449 66.6547 78.26 66.667 78.1661 66.667C78.125 66.667 78.0787 66.6651 78.0273 66.6612C77.9758 66.6586 77.927 66.6502 77.8807 66.636C77.8266 66.6192 77.7996 66.5894 77.7996 66.5467V65.5496C77.7996 65.5289 77.8048 65.5134 77.8151 65.503C77.8254 65.4914 77.8414 65.4823 77.8633 65.4758C77.9032 65.4629 77.9482 65.4545 77.9983 65.4506C78.0485 65.4467 78.0986 65.4448 78.1488 65.4448C78.2427 65.4448 78.3282 65.4577 78.4053 65.4836C78.4838 65.5082 78.5506 65.5457 78.6059 65.5961C78.6612 65.6453 78.7043 65.7074 78.7352 65.7824C78.766 65.8561 78.7815 65.9427 78.7815 66.0423Z" fill="#393737"/>
<path d="M68.8352 68.8379C68.8185 68.8315 68.8043 68.8218 68.7928 68.8088C68.7825 68.7959 68.7773 68.7797 68.7773 68.7603C68.7773 68.7396 68.7825 68.7228 68.7928 68.7099C68.803 68.697 68.821 68.6853 68.8468 68.675L69.1168 68.5566H69.1535C69.1792 68.5566 69.1998 68.5644 69.2152 68.5799C69.2306 68.5954 69.2383 68.6161 69.2383 68.642V69.7517C69.2306 69.7543 69.2203 69.7569 69.2075 69.7595C69.1946 69.7633 69.1805 69.7653 69.165 69.7653C69.1097 69.7653 69.0821 69.7414 69.0821 69.6935V68.7215L68.8352 68.8379Z" fill="#393737"/>
<path d="M69.7809 69.6547C69.7809 69.6392 69.7848 69.6243 69.7925 69.6101C69.8015 69.5958 69.8124 69.5855 69.8253 69.579C69.8497 69.5933 69.8812 69.6075 69.9198 69.6217C69.9596 69.6346 70.0066 69.6411 70.0606 69.6411C70.1107 69.6411 70.1577 69.6334 70.2014 69.6178C70.2464 69.6023 70.2856 69.5771 70.3191 69.5422C70.3525 69.5073 70.3789 69.462 70.3982 69.4064C70.4174 69.3495 70.4271 69.2803 70.4271 69.1988C70.4181 69.2091 70.4052 69.2214 70.3885 69.2356C70.3718 69.2486 70.3506 69.2615 70.3249 69.2744C70.3004 69.2861 70.2721 69.2964 70.24 69.3055C70.2078 69.3133 70.1718 69.3171 70.132 69.3171C70.078 69.3171 70.0259 69.31 69.9757 69.2958C69.9256 69.2816 69.8818 69.2596 69.8446 69.2298C69.8073 69.2001 69.777 69.1613 69.7539 69.1134C69.732 69.0656 69.7211 69.0074 69.7211 68.9388C69.7211 68.878 69.7314 68.8237 69.752 68.7759C69.7738 68.7267 69.8028 68.6853 69.8388 68.6517C69.8761 68.6181 69.9191 68.5922 69.968 68.5741C70.0182 68.556 70.0715 68.5469 70.1281 68.5469C70.1937 68.5469 70.2541 68.5586 70.3094 68.5819C70.366 68.6038 70.4142 68.6388 70.4541 68.6866C70.4952 68.7332 70.5267 68.7927 70.5486 68.8651C70.5718 68.9375 70.5833 69.0235 70.5833 69.1231C70.5833 69.2421 70.5705 69.343 70.5448 69.4258C70.5203 69.5085 70.485 69.5758 70.4387 69.6275C70.3937 69.6793 70.339 69.7168 70.2747 69.7401C70.2104 69.7633 70.1397 69.775 70.0625 69.775C70.0239 69.775 69.9873 69.7724 69.9526 69.7672C69.9191 69.762 69.8896 69.7543 69.8638 69.7439C69.8381 69.7336 69.8176 69.7213 69.8021 69.7071C69.788 69.6916 69.7809 69.6741 69.7809 69.6547ZM70.1532 69.1871C70.1853 69.1871 70.2155 69.1833 70.2438 69.1755C70.2734 69.1665 70.3004 69.1548 70.3249 69.1406C70.3493 69.1251 70.3699 69.1083 70.3866 69.0901C70.4046 69.0707 70.4181 69.0513 70.4271 69.0319C70.4245 68.922 70.3969 68.8354 70.3441 68.772C70.2927 68.7086 70.2207 68.6769 70.1281 68.6769C70.0561 68.6769 69.9963 68.6996 69.9487 68.7448C69.9011 68.7901 69.8773 68.8535 69.8773 68.9349C69.8773 68.9802 69.8844 69.019 69.8986 69.0513C69.9127 69.0824 69.932 69.1083 69.9564 69.1289C69.9822 69.1483 70.0117 69.1632 70.0452 69.1736C70.0786 69.1826 70.1146 69.1871 70.1532 69.1871Z" fill="#393737"/>
<path d="M70.9474 68.8379C70.9307 68.8315 70.9166 68.8218 70.905 68.8088C70.8947 68.7959 70.8896 68.7797 70.8896 68.7603C70.8896 68.7396 70.8947 68.7228 70.905 68.7099C70.9153 68.697 70.9333 68.6853 70.959 68.675L71.2291 68.5566H71.2657C71.2914 68.5566 71.312 68.5644 71.3274 68.5799C71.3429 68.5954 71.3506 68.6161 71.3506 68.642V69.7517C71.3429 69.7543 71.3326 69.7569 71.3197 69.7595C71.3069 69.7633 71.2927 69.7653 71.2773 69.7653C71.222 69.7653 71.1943 69.7414 71.1943 69.6935V68.7215L70.9474 68.8379Z" fill="#393737"/>
<path d="M72.5994 68.5702C72.6033 68.5767 72.6071 68.5857 72.611 68.5974C72.6148 68.6077 72.6168 68.6194 72.6168 68.6323C72.6168 68.6543 72.6116 68.6717 72.6013 68.6847C72.591 68.6963 72.5763 68.7021 72.557 68.7021H72.0632L72.0323 69.0513C72.0542 69.0397 72.0844 69.0287 72.123 69.0184C72.1615 69.0067 72.2033 69.0009 72.2483 69.0009C72.3062 69.0009 72.3596 69.0093 72.4084 69.0261C72.4586 69.0429 72.5023 69.0675 72.5396 69.0998C72.5769 69.1309 72.6058 69.1703 72.6264 69.2182C72.6483 69.2648 72.6592 69.3191 72.6592 69.3812C72.6592 69.4381 72.6496 69.4904 72.6303 69.5383C72.611 69.5862 72.5827 69.6275 72.5454 69.6625C72.5081 69.6974 72.4618 69.7252 72.4065 69.7459C72.3525 69.7653 72.2908 69.775 72.2213 69.775C72.166 69.775 72.1152 69.7698 72.0689 69.7595C72.0239 69.7504 71.9854 69.7381 71.9532 69.7226C71.9211 69.7071 71.896 69.6903 71.878 69.6722C71.8613 69.6528 71.8529 69.634 71.8529 69.6159C71.8529 69.5952 71.8593 69.5777 71.8722 69.5635C71.8863 69.548 71.9005 69.537 71.9146 69.5305C71.9429 69.5564 71.9828 69.5823 72.0342 69.6081C72.0857 69.6327 72.148 69.645 72.2213 69.645C72.3101 69.645 72.3789 69.6204 72.4277 69.5713C72.4766 69.5221 72.501 69.4588 72.501 69.3812C72.501 69.3023 72.4759 69.2408 72.4258 69.1968C72.3756 69.1529 72.3101 69.1309 72.229 69.1309C72.184 69.1309 72.1429 69.138 72.1056 69.1522C72.0683 69.1665 72.0336 69.1826 72.0014 69.2007C71.9667 69.1981 71.9384 69.1878 71.9166 69.1697C71.896 69.1503 71.8857 69.1257 71.8857 69.096C71.8857 69.0882 71.8857 69.0785 71.8857 69.0669C71.887 69.0539 71.8883 69.0416 71.8896 69.03L71.9223 68.6595C71.9249 68.6323 71.9333 68.611 71.9474 68.5954C71.9616 68.5786 71.9821 68.5702 72.0092 68.5702H72.5994Z" fill="#393737"/>
</svg>
