<svg width="120" height="120" viewBox="0 0 120 120" fill="none" xmlns="http://www.w3.org/2000/svg">
<path fill-rule="evenodd" clip-rule="evenodd" d="M50.8561 46.7987C49.835 47.4318 49.3093 48.6278 49.4646 49.9649C49.5917 51.0606 49.9124 51.5562 51.736 53.4735C53.3985 55.2219 53.4005 55.2247 53.4005 55.9983C53.4005 56.6493 53.3361 56.8242 52.9964 57.0959C52.7741 57.2736 52.441 57.4191 52.2561 57.4191C51.8164 57.4191 51.3127 56.8554 51.1415 56.1717C51.0075 55.6362 50.9884 55.625 50.1321 55.5791C49.2978 55.5344 49.2592 55.5492 49.2592 55.9103C49.2592 56.4352 49.648 57.503 50.046 58.0714C50.7746 59.1115 52.614 59.4489 53.8711 58.7729C54.7716 58.2889 55.2922 57.2863 55.2922 56.036C55.2922 54.8197 54.733 53.8104 53.2832 52.4102C51.7515 50.9311 51.4066 50.3881 51.4066 49.4561C51.4066 48.8338 51.4743 48.6554 51.8141 48.3836C52.4621 47.8654 53.1597 48.2358 53.3541 49.2015C53.4482 49.6694 53.3493 49.6572 54.781 49.3763C55.3042 49.2735 55.3427 49.0797 55.0037 48.2553C54.7232 47.5727 54.2498 47.0262 53.6766 46.7229C53.0594 46.3964 51.4345 46.44 50.8561 46.7987ZM61.6587 46.954C61.1946 47.2531 60.8502 47.6356 60.6317 48.0946C60.3223 48.7444 60.3028 49.0159 60.3037 52.6735C60.3042 54.8119 60.3743 56.8167 60.4594 57.1286C60.6634 57.8749 61.7813 58.9245 62.5229 59.0659C63.9118 59.3308 65.3197 58.6758 65.8334 57.5258C66.0806 56.9717 66.1251 56.4908 66.128 54.3394L66.1314 51.8055H63.2171V53.6569L64.2141 53.7547L64.2584 55.12C64.2998 56.3976 64.2782 56.5105 63.9202 56.8743C63.4545 57.3479 63.08 57.3658 62.5476 56.9399L62.1434 56.6168V52.8425C62.1434 48.5827 62.1896 48.375 63.1379 48.375C63.8903 48.375 64.2908 48.951 64.2908 50.0334V50.8699H66.1314V49.7706C66.1314 48.2316 65.6818 47.3783 64.5653 46.7992C63.68 46.3398 62.5152 46.4018 61.6587 46.954ZM67.8186 58.9784H69.6698L69.6262 55.2359C69.6021 53.1776 69.617 51.4941 69.6592 51.4951C69.7014 51.4959 70.2648 53.1625 70.911 55.1986L72.086 58.9005L74.1109 58.9928L74.0306 46.5818L72.2718 46.4884L72.19 54.6903L71.3064 51.6496C70.8203 49.9772 70.2822 48.1352 70.1105 47.5564L69.7982 46.5038H67.8186V58.9784ZM104.58 46.6078C104.523 46.6649 104.477 49.4717 104.477 52.8451V58.9784H109.692V57.1072H106.307L106.395 53.7547L108.772 53.6636V51.8055H106.318V48.5309H109.692V46.5038H107.187C105.809 46.5038 104.636 46.5506 104.58 46.6078ZM56.9353 58.9784H58.769V46.6598L56.8517 46.6596L56.9353 58.9784ZM77.6352 46.8063C77.6352 46.8868 77.1865 49.6276 76.6382 52.8971C76.0898 56.1665 75.6412 58.8723 75.6412 58.9098C75.6412 58.9476 76.0766 58.9784 76.6089 58.9784H77.5764L77.9672 56.1717H78.9325C80.0284 56.1717 79.9592 56.0697 80.1741 58.0039L80.2822 58.9784H81.2595C81.9027 58.9784 82.2367 58.9162 82.2367 58.7962C82.2367 58.6198 80.4757 47.9551 80.3036 47.0886C80.2186 46.6616 80.2128 46.6598 78.9268 46.6598C78.2163 46.6598 77.6352 46.7257 77.6352 46.8063ZM82.0833 48.5309H84.0773V58.9784H85.9179V48.5458L87.8352 48.453L87.9272 46.6598H82.0833V48.5309ZM89.2932 51.6106C89.2937 54.4637 89.3596 56.8018 89.4489 57.1286C89.6529 57.8749 90.7708 58.9245 91.5124 59.0659C92.9036 59.3313 94.2365 58.7101 94.7956 57.5361C95.1068 56.8825 95.1209 56.6312 95.1209 51.7563V46.6598H93.2926L93.2036 56.6674L92.8415 56.9652C92.3761 57.3482 92.0393 57.3416 91.5371 56.9399L91.1329 56.6168V46.6598H89.2923L89.2932 51.6106ZM96.8081 58.9784H98.6487V54.3005H99.8126L100.251 56.1327C101.014 59.3182 100.811 58.9784 101.954 58.9784C102.498 58.9784 102.943 58.961 102.941 58.9395C102.94 58.9179 102.632 57.7144 102.257 56.2649L101.575 53.6293L101.941 53.1868C102.442 52.5818 102.696 51.2181 102.584 49.7333C102.477 48.3156 102.173 47.5692 101.506 47.0854C101.076 46.7737 100.808 46.7324 98.9171 46.6869L96.8081 46.6362V58.9784ZM100.489 48.8428C100.744 49.1018 100.796 49.3625 100.796 50.3811C100.796 52.0098 100.511 52.4293 99.4044 52.4293H98.6487V48.5309H99.4156C99.9781 48.5309 100.264 48.6141 100.489 48.8428ZM79.2435 51.5849C79.3687 52.521 79.5098 53.515 79.5571 53.7937L79.6431 54.3005H78.9355C78.335 54.3005 78.2395 54.2591 78.3039 54.0276C78.3456 53.8774 78.499 52.8592 78.6447 51.7647C78.7904 50.6702 78.9335 49.799 78.9628 49.8288C78.992 49.8584 79.1184 50.6487 79.2435 51.5849ZM54.2248 61.7408C54.0455 61.7743 53.7349 61.9792 53.5346 62.196C53.1898 62.569 53.1705 62.6981 53.1705 64.6181V66.6461L53.6009 67.0225C53.8961 67.2808 54.2182 67.3988 54.6276 67.3988C55.037 67.3988 55.3591 67.2808 55.6544 67.0225L56.0848 66.6461V64.609C56.0848 62.6401 56.0719 62.5594 55.7013 62.1972C55.2974 61.8025 54.7684 61.639 54.2248 61.7408ZM71.3868 61.8147C70.6057 62.026 70.4261 62.5607 70.4261 64.6742C70.4261 66.4701 70.4304 66.4914 70.8745 66.943C71.4656 67.5438 72.3416 67.5752 72.9346 67.0165C73.3332 66.6408 73.3404 66.5979 73.3404 64.6168C73.3404 62.9257 73.297 62.5459 73.072 62.2682C72.7232 61.8376 72.0109 61.646 71.3868 61.8147ZM81.9259 61.8446C81.28 62.0576 80.9401 62.6856 81.0751 63.4168C81.1418 63.778 81.4447 64.1885 82.0974 64.8018C82.8658 65.5237 83.0165 65.7475 82.976 66.1072C82.9082 66.7074 82.3491 66.7827 81.9986 66.2388C81.8415 65.9951 81.5987 65.8395 81.3754 65.8395C80.9677 65.8395 80.9033 66.1248 81.188 66.6684C81.4696 67.2058 81.803 67.3885 82.512 67.3938C83.4116 67.4007 83.9239 66.8903 83.9239 65.9873C83.9239 65.4032 83.8375 65.2569 83.0224 64.4599C82.0043 63.4643 81.7988 63.0324 82.1655 62.6595C82.4552 62.365 83.0036 62.5725 83.0036 62.9769C83.0036 63.1364 83.0884 63.1889 83.2462 63.1273C83.3797 63.0753 83.5867 63.0327 83.7064 63.0327C84.0039 63.0327 83.9796 62.6683 83.6555 62.2682C83.2806 61.8055 82.5715 61.6318 81.9259 61.8446ZM90.0867 61.8216C89.7057 61.922 89.5202 62.0948 89.3506 62.5077C89.0256 63.2982 89.2811 63.955 90.2266 64.7598C91.1673 65.5605 91.3552 65.885 91.128 66.3168C90.909 66.7327 90.3407 66.6602 90.1379 66.1903C90.0335 65.9483 89.8551 65.8395 89.5627 65.8395C88.9851 65.8395 88.9963 66.3422 89.5873 66.943C90.7445 68.1195 92.7367 66.8647 92.0018 65.4221C91.8785 65.1799 91.4256 64.6574 90.9952 64.2607C90.1626 63.4933 89.9914 62.9455 90.4608 62.5496C90.6743 62.3695 90.7548 62.3949 91.036 62.7316C91.4115 63.1811 92.0532 63.1846 92.0532 62.7372C92.0532 62.38 91.4661 61.8435 90.9795 61.7562C90.7686 61.7183 90.3669 61.7478 90.0867 61.8216ZM108.05 61.8135C107.436 61.9797 107.085 62.474 107.085 63.1729C107.085 63.6298 107.237 63.8641 108.09 64.7183C108.893 65.5225 109.086 65.8074 109.049 66.1333C109.013 66.4478 108.906 66.5524 108.58 66.5905C108.246 66.6296 108.128 66.5568 108.009 66.2396C107.896 65.9376 107.751 65.8395 107.417 65.8395C107.028 65.8395 106.983 65.8869 107.047 66.2256C107.256 67.3374 108.831 67.8209 109.623 67.016C110.033 66.5993 110.118 65.8992 109.828 65.3224C109.734 65.1351 109.286 64.6268 108.831 64.1928C107.965 63.3651 107.848 63.0587 108.246 62.6542C108.531 62.3644 109.079 62.5766 109.079 62.9769C109.079 63.1364 109.164 63.1889 109.321 63.1273C109.455 63.0753 109.662 63.0327 109.782 63.0327C110.079 63.0327 110.055 62.6683 109.731 62.2682C109.383 61.8387 108.67 61.6458 108.05 61.8135ZM49.329 62.168C48.9674 62.5354 48.9524 62.6326 48.9524 64.592C48.9524 66.5515 48.9674 66.6486 49.329 67.016C50.2072 67.909 51.8667 67.1986 51.8667 65.9295C51.8667 65.4136 51.832 65.3717 51.4066 65.3717C51.0216 65.3717 50.9464 65.4336 50.9464 65.7504C50.9464 66.1078 50.597 66.6191 50.3527 66.6191C49.9805 66.6191 49.8727 66.1379 49.8727 64.478C49.8727 62.9859 49.9118 62.6959 50.1236 62.6131C50.4882 62.4709 50.8624 62.7676 50.9182 63.2434C50.9584 63.585 51.0446 63.6564 51.4167 63.6564C51.7975 63.6564 51.8667 63.595 51.8667 63.2563C51.8667 62.3442 51.3062 61.7972 50.3643 61.7902C49.865 61.7865 49.6141 61.878 49.329 62.168ZM57.4652 67.3208H58.3855V65.7352C58.3855 64.863 58.42 64.1836 58.4622 64.2254C58.5044 64.2672 58.7865 64.9808 59.0891 65.8111C59.6144 67.2529 59.661 67.323 60.1244 67.3697L60.6096 67.4186V61.7852H59.6893L59.6652 65.2937L58.515 61.8632L57.3813 61.7659L57.4652 67.3208ZM61.99 62.1751C61.99 62.5042 62.0617 62.5649 62.4502 62.5649H62.9103V67.3988H63.8227L63.9073 62.6429L64.4058 62.5941C64.8187 62.5535 64.9043 62.4799 64.9043 62.1652C64.9043 61.7891 64.8891 61.7852 63.4472 61.7852C61.9951 61.7852 61.99 61.7866 61.99 62.1751ZM66.1314 67.3988H67.0517V66.3073C67.0517 65.333 67.0834 65.2158 67.3476 65.2158C67.5767 65.2158 67.6994 65.4178 67.8915 66.1124C68.028 66.6054 68.1688 67.0968 68.2044 67.2039C68.2728 67.41 69.1991 67.4821 69.1991 67.2814C69.1991 67.2168 69.0619 66.6767 68.8944 66.0812C68.6214 65.1103 68.6134 64.9617 68.8177 64.6447C68.9506 64.4386 69.0457 63.9281 69.0457 63.421C69.0457 62.7049 68.979 62.4829 68.6691 62.168C68.3407 61.834 68.1548 61.7852 67.212 61.7852H66.1314V67.3988ZM74.7209 67.4114L75.9863 67.3661C77.2219 67.3219 77.2517 67.3116 77.2517 66.931C77.2517 66.5707 77.1908 66.5376 76.4464 66.4941L75.6412 66.4468V61.7852H74.7209V67.4114ZM85.4692 63.3556C85.9892 64.7118 86.0713 65.0944 86.0713 66.1624V67.3988H86.9916V66.2594C86.9916 65.301 87.089 64.8661 87.6051 63.5197C87.9425 62.6394 88.2186 61.8891 88.2186 61.8521C88.2186 61.8153 87.9879 61.7852 87.706 61.7852C87.2126 61.7852 87.1831 61.8202 86.9133 62.7258C86.7593 63.2432 86.5843 63.6115 86.5245 63.5445C86.4647 63.4774 86.2981 63.0541 86.1545 62.6039C85.9084 61.8325 85.8636 61.7852 85.3803 61.7852H84.8673L85.4692 63.3556ZM93.3976 62.167C93.3354 62.4986 93.3881 62.5548 93.8016 62.5958L94.2773 62.6429L94.3619 67.3988H95.2743V62.5649H95.7344C96.1229 62.5649 96.1946 62.5042 96.1946 62.1751C96.1946 61.7885 96.1832 61.7852 94.8321 61.7852C93.5082 61.7852 93.4674 61.7961 93.3976 62.167ZM97.575 67.3988H100.183V66.931C100.183 66.4679 100.174 66.4632 99.3389 66.4632H98.4953V65.0598H99.1089C99.6883 65.0598 99.7224 65.0338 99.7224 64.592C99.7224 64.1503 99.6883 64.1242 99.1089 64.1242H98.4953V62.5649H99.3389C100.137 62.5649 100.183 62.5437 100.183 62.1751C100.183 61.7898 100.167 61.7852 98.8788 61.7852H97.575V67.3988ZM101.41 67.3988H102.33L102.356 64.2022L102.764 65.7615C103.143 67.2041 103.202 67.3208 103.553 67.3208C103.905 67.3208 103.957 67.2162 104.274 65.8598C104.462 65.0562 104.654 64.3605 104.7 64.3135C104.746 64.2666 104.784 64.9416 104.784 65.8134V67.3988H105.704V61.7852H104.377L104.043 63.3988C103.86 64.2864 103.71 65.1425 103.71 65.3012C103.71 65.9853 103.422 65.1729 103.084 63.5395L102.722 61.7852H101.41V67.3988ZM55.0546 64.4138C55.1057 66.491 54.8901 67.0196 54.255 66.3742C54.0675 66.1833 54.0141 65.7762 54.0141 64.5342C54.0141 62.8504 54.1334 62.515 54.7025 62.598C54.9879 62.6394 55.0143 62.7756 55.0546 64.4138ZM72.236 62.752C72.3565 62.8744 72.4201 63.5201 72.4201 64.6177C72.4201 66.154 72.3933 66.3109 72.1035 66.4685C71.4937 66.8003 71.3464 66.4375 71.3464 64.6042C71.3464 62.9803 71.4558 62.5649 71.8833 62.5649C71.9761 62.5649 72.1348 62.6491 72.236 62.752ZM68.097 63.4851C68.1488 64.2212 67.995 64.4295 67.3968 64.4337C67.0799 64.4359 67.0517 64.365 67.0517 63.5686V62.701L67.5502 62.75C68.0211 62.7961 68.0513 62.8367 68.097 63.4851Z" fill="#393737"/>
<path d="M66.3956 70.5911V70.3681H68.4363V70.5911H67.5403V72.6087H67.223V70.5911H66.3956Z" fill="#393737"/>
<path d="M69.6769 70.3681V72.6087H69.3596V70.3681H69.6769Z" fill="#393737"/>
<path d="M70.8769 72.6051V70.3681C71.1084 70.3397 71.3414 70.3256 71.5757 70.3256C71.9044 70.3256 72.1474 70.3905 72.3046 70.5203C72.4275 70.6241 72.4889 70.761 72.4889 70.9309C72.4889 71.0489 72.4446 71.1515 72.356 71.2388C72.2703 71.3261 72.1559 71.3839 72.013 71.4123V71.4158C72.1874 71.4394 72.3246 71.5055 72.4246 71.614C72.5246 71.7202 72.5747 71.8547 72.5747 72.0176C72.5747 72.2323 72.4732 72.3951 72.2703 72.506C72.0959 72.6028 71.8644 72.6512 71.5757 72.6512C71.3642 72.6512 71.1313 72.6358 70.8769 72.6051ZM71.1942 70.5592V71.3132H71.64C71.7944 71.3132 71.9187 71.2813 72.013 71.2176C72.1102 71.1515 72.1588 71.0642 72.1588 70.9556C72.1588 70.6748 71.9616 70.5344 71.5672 70.5344C71.4157 70.5344 71.2913 70.5427 71.1942 70.5592ZM71.1942 71.5326V72.4175C71.3142 72.4317 71.4543 72.4388 71.6143 72.4388C72.0288 72.4388 72.236 72.2972 72.236 72.014C72.236 71.863 72.1831 71.745 72.0773 71.66C71.9744 71.5751 71.8287 71.5326 71.64 71.5326H71.1942Z" fill="#393737"/>
<path d="M74.1721 70.3681H74.5022L75.4754 72.6087H75.1496L74.9309 72.0848H73.7519L73.529 72.6087H73.1989L74.1721 70.3681ZM74.335 70.6618L73.8377 71.8653H74.8366L74.335 70.6618Z" fill="#393737"/>
<path d="M79.5602 70.5486L79.4316 70.7008C79.2372 70.6017 79.0371 70.5521 78.8314 70.5521C78.5713 70.5521 78.3612 70.6442 78.2011 70.8282C78.0525 71.0005 77.9782 71.227 77.9782 71.5078C77.9782 71.8099 78.0682 72.0435 78.2483 72.2087C78.4026 72.3503 78.6027 72.4211 78.8485 72.4211C79.0314 72.4211 79.2029 72.3928 79.363 72.3361V71.6494H78.8785V71.4193H79.6759V72.4494C79.4044 72.5839 79.1157 72.6512 78.8099 72.6512C78.4041 72.6512 78.0954 72.5167 77.8839 72.2476C77.721 72.04 77.6395 71.7887 77.6395 71.4937C77.6395 71.1633 77.751 70.8837 77.9739 70.6548C78.1883 70.4353 78.4627 70.3256 78.7971 70.3256C79.0829 70.3256 79.3372 70.3999 79.5602 70.5486Z" fill="#393737"/>
<path d="M80.7853 72.6087V70.3681C81.0396 70.3397 81.2597 70.3256 81.4455 70.3256C82.0857 70.3256 82.4058 70.5521 82.4058 71.0052C82.4058 71.3143 82.2458 71.522 81.9257 71.6282L82.4701 72.6087H82.1486L81.647 71.6919L81.6427 71.6884C81.5941 71.6931 81.5341 71.6954 81.4626 71.6954C81.3512 71.6954 81.2311 71.6884 81.1025 71.6742V72.6087H80.7853ZM81.1025 70.5592V71.4618C81.2054 71.476 81.3197 71.4831 81.4455 71.4831C81.8628 71.4831 82.0714 71.3238 82.0714 71.0052C82.0714 70.6913 81.8628 70.5344 81.4455 70.5344C81.314 70.5344 81.1997 70.5427 81.1025 70.5592Z" fill="#393737"/>
<path d="M84.4443 72.6512C84.0528 72.6512 83.7484 72.5178 83.5312 72.2512C83.3625 72.0435 83.2782 71.791 83.2782 71.4937C83.2782 71.1491 83.3897 70.866 83.6126 70.6442C83.8241 70.4318 84.1014 70.3256 84.4443 70.3256C84.8359 70.3256 85.1403 70.4601 85.3575 70.7291C85.5261 70.9415 85.6105 71.1963 85.6105 71.4937C85.6105 71.8382 85.499 72.1202 85.2761 72.3397C85.0646 72.5473 84.7873 72.6512 84.4443 72.6512ZM83.6169 71.4937C83.6169 71.791 83.6955 72.0235 83.8527 72.191C83.9985 72.3444 84.1957 72.4211 84.4443 72.4211C84.7301 72.4211 84.9459 72.322 85.0917 72.1237C85.2117 71.9609 85.2718 71.7509 85.2718 71.4937C85.2718 71.1963 85.1932 70.9627 85.036 70.7928C84.8902 70.6324 84.693 70.5521 84.4443 70.5521C84.1614 70.5521 83.9456 70.6548 83.797 70.8601C83.6769 71.0253 83.6169 71.2365 83.6169 71.4937Z" fill="#393737"/>
<path d="M86.6375 70.3681H86.959V71.7521C86.959 72.1981 87.1748 72.4211 87.6064 72.4211C88.0351 72.4211 88.2495 72.1981 88.2495 71.7521V70.3681H88.5753V71.6742C88.5753 72.3255 88.2523 72.6512 87.6064 72.6512C86.9604 72.6512 86.6375 72.3255 86.6375 71.6742V70.3681Z" fill="#393737"/>
<path d="M89.775 72.6087V70.3681C90.0294 70.3397 90.2495 70.3256 90.4353 70.3256C91.0755 70.3256 91.3956 70.5521 91.3956 71.0052C91.3956 71.2341 91.3056 71.4099 91.1255 71.5326C90.9626 71.6412 90.7439 71.6954 90.4696 71.6954C90.3466 71.6954 90.2209 71.6884 90.0923 71.6742V72.6087H89.775ZM90.0923 70.5592V71.4618C90.1952 71.476 90.3152 71.4831 90.4524 71.4831C90.8583 71.4831 91.0612 71.3238 91.0612 71.0052C91.0612 70.6913 90.8525 70.5344 90.4353 70.5344C90.3038 70.5344 90.1895 70.5427 90.0923 70.5592Z" fill="#393737"/>
<path d="M94.304 70.907H110.002V71.4884H94.304V70.907Z" fill="#393737"/>
<path d="M48.9524 70.907H64.6501V71.4884H48.9524V70.907Z" fill="#393737"/>
<path fill-rule="evenodd" clip-rule="evenodd" d="M43.7209 59.5698C43.7209 68.721 36.1722 76.1395 26.8605 76.1395C17.5487 76.1395 10 68.721 10 59.5698C10 50.4185 17.5487 43 26.8605 43C36.1722 43 43.7209 50.4185 43.7209 59.5698ZM34.376 48.2735L22.4122 63.8913C18.0238 60.6445 17.1445 54.5164 20.4482 50.2036C23.7519 45.8909 29.9876 45.0267 34.376 48.2735ZM31.3742 55.0792L19.4105 70.697C23.7989 73.9437 30.0345 73.0796 33.3383 68.7668C36.642 64.4541 35.7626 58.3259 31.3742 55.0792Z" fill="#393737"/>
</svg>
