<svg width="120" height="120" viewBox="0 0 120 120" fill="none" xmlns="http://www.w3.org/2000/svg">
<path fill-rule="evenodd" clip-rule="evenodd" d="M13.3978 45.2528C12.0278 45.7412 10.5361 47.3888 10.1432 48.8479C10.0236 49.2923 9.97785 53.1058 10.01 59.9604C10.0585 70.3398 10.0609 70.4006 10.4464 71.182C11.3695 73.0535 12.9677 74.0571 15.3396 74.2546L16.7798 74.3745L16.7824 62.6095C16.784 56.1388 16.8526 50.7383 16.9348 50.6082C17.0575 50.4148 18.1104 50.3862 22.7366 50.4499C27.9845 50.5222 28.4625 50.5548 29.4221 50.9052C30.9498 51.4631 31.8176 52.0283 32.8046 53.1082C35.4722 56.027 35.314 61.0368 32.4671 63.798C30.7026 65.5093 28.827 66.1044 24.7632 66.2429L21.8358 66.3425L21.9296 74.2369H28.3887C34.618 74.2369 34.8764 74.2237 35.6546 73.8639C36.8584 73.3072 37.839 72.3256 38.4318 71.0835L38.9582 69.9807L38.8629 48.9243L38.3479 47.908C37.7512 46.7303 36.9768 45.9914 35.7319 45.4116L34.8477 45L24.4609 45.0059C16.0826 45.0106 13.9432 45.0585 13.3978 45.2528ZM44.7109 58.9621H46.6171L46.7185 56.0817L48.1899 56.0415C50.6062 55.9754 51.8697 55.0859 52.1438 53.2584C52.3779 51.6981 51.4333 50.1193 50.0332 49.7305C49.6504 49.6242 48.2961 49.5369 47.024 49.5364L44.7109 49.5353V58.9621ZM53.9631 58.9621H55.8698L55.9707 55.9071L57.6078 55.8015L59.733 58.9621H62.0014L61.6997 58.482C61.5337 58.2181 61.0606 57.5207 60.6483 56.9324C60.2359 56.3441 59.8985 55.7823 59.8985 55.684C59.8985 55.5856 60.1771 55.3408 60.5175 55.1399C61.7435 54.4165 62.1646 52.5137 61.4131 51.0925C60.7216 49.785 60.2679 49.6317 56.8872 49.5643L53.9631 49.5058V58.9621ZM63.9136 58.9621H71.071V57.2256L65.9212 57.1291L65.8164 55.1215H70.3727V53.3863L65.9212 53.2886L65.8168 51.2904L70.9837 51.1937L71.0902 49.5353H63.9136V58.9621ZM73.1658 58.9621H75.078L75.1733 52.7649L76.4826 54.7246C77.2027 55.8024 77.8357 56.686 77.8891 56.6885C77.9427 56.6908 78.5319 55.832 79.1984 54.7801C79.8651 53.7281 80.4693 52.864 80.5414 52.8598C80.6135 52.8556 80.6723 54.2269 80.6723 55.9071V58.9621H82.7729L82.6798 49.6226L80.4104 49.524L79.5451 50.9699C79.069 51.7651 78.5062 52.6795 78.2943 53.0017L77.9089 53.5878L77.4812 52.9145C77.246 52.5442 76.6757 51.6324 76.2138 50.8882L75.3743 49.5353H73.1658V58.9621ZM85.2111 58.9621H87.3059V49.5353H85.2111V58.9621ZM89.5853 52.2764C89.5645 55.4239 89.7466 56.6686 90.3641 57.6017C91.5595 59.4081 95.1506 59.6364 96.7776 58.0095C97.6885 57.0986 97.8674 56.2231 97.8674 52.6776V49.6226L95.8466 49.5175L95.8721 52.6533C95.9 56.0702 95.7848 56.5682 94.8512 57.0678C94.3001 57.3627 93.2239 57.3595 92.6668 57.0614C91.798 56.5963 91.5843 55.6983 91.5836 52.5102L91.5829 49.6226L89.6033 49.5187L89.5853 52.2764ZM100.224 58.9621H102.144V55.9071C102.144 54.2269 102.203 52.8567 102.275 52.8621C102.347 52.8677 102.956 53.7311 103.628 54.781C104.3 55.8307 104.889 56.6901 104.937 56.6908C104.985 56.6913 105.535 55.9001 106.159 54.9328C106.784 53.9654 107.392 53.0918 107.512 52.9916C107.686 52.8469 107.731 53.4438 107.731 55.8858V58.9621H109.651V49.5353L107.469 49.5467L106.475 51.1557C105.929 52.0407 105.429 52.9022 105.365 53.0704C105.138 53.6684 104.797 53.3512 103.628 51.4556L102.444 49.5353H100.224V58.9621ZM49.694 51.7096C50.1931 52.2085 50.2657 53.0939 49.8557 53.6794C49.3733 54.3678 46.9608 54.7296 46.7372 54.1471C46.5937 53.7732 46.6021 51.5429 46.7476 51.3975C46.8115 51.3334 47.4044 51.281 48.0648 51.281C49.1069 51.281 49.3222 51.3376 49.694 51.7096ZM59.3882 51.7913C59.9662 52.3693 60.0104 52.6531 59.6354 53.3781C59.3132 54.0013 58.397 54.2883 56.9678 54.2136L55.9707 54.1614L55.8693 51.281H57.3735C58.8036 51.281 58.9031 51.3063 59.3882 51.7913ZM21.9649 55.0571C21.8975 55.1245 21.8423 56.6665 21.8423 58.4834V61.7871L24.4172 61.7276C26.7123 61.6744 27.0766 61.6236 27.7702 61.2591C29.0368 60.5936 29.5916 59.671 29.5569 58.2877C29.5225 56.9119 28.9249 55.9829 27.741 55.4646C26.9589 55.1221 26.4551 55.0505 24.4525 54.9974C23.1516 54.9629 22.0322 54.9897 21.9649 55.0571ZM105.077 61.2551C101.372 61.7948 99.6677 66.2699 102.057 69.1861C103.62 71.0928 106.657 71.4911 109.084 70.1077L110 69.5852V65.4212H105.985V67.122L107.992 67.0796L108.044 67.8709C108.094 68.628 108.07 68.6713 107.508 68.8747C107.185 68.9915 106.486 69.0871 105.955 69.0871C104.741 69.0871 103.958 68.6053 103.41 67.5212C102.905 66.5215 102.916 65.7338 103.45 64.5857C103.799 63.8371 104.021 63.599 104.627 63.3239C105.651 62.8592 106.604 62.8869 107.586 63.4099L108.399 63.8427L108.938 63.2293C109.234 62.892 109.476 62.5165 109.476 62.3948C109.476 62.0534 107.927 61.3753 106.858 61.2489C106.33 61.1866 105.528 61.1894 105.077 61.2551ZM44.7109 70.8328H46.6312V69.6251C46.6312 67.8788 46.6417 67.8651 48.004 67.8651C50.5192 67.8651 51.8913 66.9244 52.1523 65.0209C52.3454 63.6117 51.6949 62.3798 50.4115 61.7239C49.8044 61.4136 49.2812 61.3394 47.1986 61.2683L44.7109 61.1833V70.8328ZM56.4368 61.537C56.3504 61.7051 55.7533 63.0994 55.1101 64.6356C54.4668 66.1718 53.6803 68.0179 53.3623 68.738C52.3801 70.9618 52.3711 70.8599 53.5457 70.7983L54.5542 70.7455L54.9133 69.872C55.4756 68.5044 55.3614 68.5634 57.4435 68.5634C59.5523 68.5634 59.5176 68.5458 60.0382 69.8741L60.3798 70.7455L62.5287 70.8497L62.2416 70.1867C62.0836 69.8219 61.6559 68.8165 61.2909 67.9524C60.926 67.0883 60.2218 65.4386 59.7264 64.2865C59.2308 63.1343 58.7448 61.9755 58.6465 61.7116C58.482 61.2697 58.3932 61.2315 57.5308 61.2315C56.8149 61.2315 56.5569 61.3036 56.4368 61.537ZM64.5255 61.6033C64.4684 61.8308 64.445 63.981 64.4733 66.3813L64.5246 70.7455H66.4449L66.5458 67.6906H68.2148L70.2854 70.7455L71.3765 70.7976C71.9766 70.826 72.4675 70.7862 72.4675 70.7087C72.4675 70.6312 71.9878 69.8631 71.4016 69.0014C70.428 67.5705 70.3634 67.4196 70.6555 67.2573C72.4553 66.257 72.9703 63.9354 71.7106 62.5006C70.8479 61.518 70.2697 61.357 67.2826 61.2683L64.629 61.1894L64.5255 61.6033ZM74.7369 70.8328H76.8318V69.2943C76.8318 67.8042 76.8487 67.7398 77.3684 67.2431L77.9052 66.7304L78.3722 67.2782C78.6291 67.5795 79.3316 68.5025 79.9333 69.3294L81.0272 70.8328H82.0427C82.6011 70.8328 83.106 70.7848 83.1646 70.7263C83.2231 70.6677 82.4478 69.5276 81.4416 68.1928C80.4354 66.8579 79.5678 65.6498 79.5133 65.5083C79.4498 65.3426 80.0437 64.5869 81.1782 63.3897C82.1481 62.3662 82.9417 61.4708 82.9417 61.4001C82.9417 61.3294 82.4632 61.2781 81.8784 61.2861L80.8149 61.301L76.919 65.4657L76.7445 61.3188L74.7369 61.214V70.8328ZM85.3394 61.4492C85.29 61.5782 85.2605 63.7226 85.2739 66.2146L85.2984 70.7455L87.3115 70.8504L87.2187 61.3188L86.324 61.2667C85.698 61.2304 85.4024 61.2851 85.3394 61.4492ZM90.23 61.331C90.1579 61.4043 90.0991 63.5721 90.0991 66.1486V70.8328H92.1939V67.8302C92.1939 65.4299 92.2377 64.8707 92.4121 65.0427C92.5322 65.1611 93.5746 66.4925 94.7286 68.0016L96.827 70.7455L98.6585 70.8513L98.5657 61.3188H96.6454L96.5974 64.1555C96.5711 65.7158 96.4925 66.9897 96.4228 66.9865C96.3532 66.9834 95.4322 65.838 94.376 64.4415C93.3199 63.0449 92.3603 61.7793 92.2436 61.6292C92.0172 61.3375 90.4513 61.1056 90.23 61.331ZM70.0459 63.6598C70.5041 64.2255 70.4617 64.9989 69.9441 65.5163C69.5569 65.9037 69.374 65.9449 68.0408 65.9449H66.5658L66.5054 65.1157C66.4721 64.6595 66.4691 64.0358 66.4988 63.7294C66.5458 63.2444 66.6248 63.1654 67.1098 63.1184C67.4162 63.0887 68.1286 63.1076 68.693 63.1603C69.4832 63.2341 69.7942 63.3488 70.0459 63.6598ZM49.694 63.5803C50.2218 64.1079 50.2647 65.0322 49.7892 65.62C49.49 65.9897 49.3147 66.0322 48.0871 66.0322H46.7185L46.6663 64.8274C46.6375 64.165 46.6548 63.5168 46.7043 63.3872C46.7684 63.2204 47.1546 63.1518 48.0302 63.1518C49.109 63.1518 49.3199 63.206 49.694 63.5803ZM58.1285 65.1553C58.904 67.0024 58.9076 66.9923 57.4545 66.9923C56.5939 66.9923 56.2322 66.9277 56.2317 66.7741C56.2301 66.4291 57.3047 63.85 57.45 63.85C57.5219 63.85 57.8272 64.4375 58.1285 65.1553Z" fill="#393737"/>
</svg>
