<svg width="120" height="120" viewBox="0 0 120 120" fill="none" xmlns="http://www.w3.org/2000/svg">
<path fill-rule="evenodd" clip-rule="evenodd" d="M56.5291 26.808C55.0073 28.3524 53.7432 29.6369 53.72 29.6623C53.6527 29.7361 59.2821 35.4037 59.3689 35.3494C59.4697 35.2863 59.4724 24 59.3717 24C59.3301 24 58.0509 25.2636 56.5291 26.808ZM60.322 27.246C60.322 29.0313 60.3553 30.492 60.396 30.492C60.4367 30.492 61.1906 29.7617 62.0713 28.869L63.6726 27.246L62.0713 25.623C61.1906 24.7304 60.4367 24 60.396 24C60.3553 24 60.322 25.4607 60.322 27.246ZM62.2868 30.0303L60.322 32.0276V34.4567C60.322 35.7927 60.355 36.8857 60.3955 36.8857C60.4358 36.8857 61.9081 35.4285 63.6672 33.6475L66.8655 30.4091L65.6708 29.2211C65.0138 28.5675 64.4256 28.0329 64.3639 28.0329C64.3021 28.0329 63.3675 28.9318 62.2868 30.0303ZM52.9073 30.4557C52.8698 30.4937 52.839 32.1331 52.839 34.0988C52.839 36.8767 52.8658 37.6726 52.9595 37.6726C53.1034 37.6726 56.5319 34.227 56.5319 34.0823C56.5319 33.9268 52.9845 30.3775 52.9073 30.4557ZM45.3559 38.1285V39.8678C45.3559 40.8245 45.389 41.6072 45.4294 41.6072C45.4697 41.6072 46.9358 40.1562 48.6872 38.3829L51.8717 35.1586L51.8186 31.5781L45.3559 38.1285ZM67.805 37.9677C67.805 41.4843 67.8381 44.3614 67.8785 44.3614C67.9904 44.3614 74.2193 38.0299 74.2175 37.918C74.2154 37.7819 68.0461 31.5741 67.913 31.5741C67.835 31.5741 67.805 33.3464 67.805 37.9677ZM64.3308 34.3652C63.0347 35.6808 61.9741 36.7975 61.9741 36.8468C61.9741 36.8961 63.0666 38.0415 64.4019 39.3923L66.8296 41.848L66.8558 36.9078C66.8729 33.6608 66.8485 31.9685 66.7846 31.9704C66.7312 31.9719 65.6269 33.0496 64.3308 34.3652ZM55.3655 36.7384L53.4722 38.6566L56.3808 41.6018C57.9805 43.2217 59.3249 44.5248 59.3684 44.4976C59.4118 44.4704 59.4474 42.7569 59.4474 40.6899V36.9316L58.4011 35.8758C57.8256 35.2952 57.3332 34.8201 57.3068 34.8201C57.2805 34.8201 56.4069 35.6833 55.3655 36.7384ZM49.6555 38.78C48.4666 39.9842 47.4939 41.0137 47.4939 41.0678C47.4939 41.122 48.4779 42.1614 49.6805 43.3778L51.8671 45.5893V41.09C51.8671 38.6154 51.8559 36.5906 51.8421 36.5906C51.8283 36.5906 50.8443 37.5759 49.6555 38.78ZM60.7291 38.0196L60.322 38.4649V41.4623C60.322 43.1109 60.3552 44.4598 60.3959 44.4598C60.4364 44.4598 61.3215 43.5967 62.3627 42.5418L64.2558 40.6238L62.7517 39.099C61.9244 38.2605 61.2225 37.5743 61.1919 37.5743C61.1613 37.5743 60.953 37.7747 60.7291 38.0196ZM75.3853 45.4902L76.843 44.0171C77.6448 43.207 78.3007 42.4968 78.3007 42.4391C78.3007 42.3375 78.0972 42.0336 77.5457 41.3121C77.401 41.1228 76.8557 40.5276 76.334 39.9895L75.3853 39.0112V45.4902ZM43.552 39.9612C42.6102 40.9377 41.7804 42.0013 41.242 42.922L40.7896 43.6957L42.5276 45.4548C43.4835 46.4224 44.3141 47.214 44.3734 47.214C44.4507 47.214 44.4813 46.0828 44.4813 43.2302C44.4813 40.108 44.455 39.2468 44.3598 39.248C44.293 39.2489 43.9295 39.5698 43.552 39.9612ZM73.3437 40.2801L72.5212 41.1169L74.3163 42.9338V41.1885C74.3163 40.2285 74.2825 39.4432 74.2412 39.4432C74.1999 39.4432 73.7961 39.8197 73.3437 40.2801ZM52.9072 39.6037C52.8697 39.6417 52.839 40.794 52.839 42.1647C52.839 44.1077 52.866 44.6565 52.9618 44.6565C53.0294 44.6565 53.6417 44.0915 54.3224 43.401L55.5601 42.1455L54.2677 40.8401C53.5569 40.1221 52.9446 39.5658 52.9072 39.6037ZM62.9288 43.3493L64.838 45.2816C65.888 46.3444 66.7774 47.214 66.8145 47.2141C66.8515 47.2142 66.8692 46.3152 66.8538 45.2166L66.8258 43.219L64.9347 41.3121L62.9288 43.3493ZM46.0093 42.4704C44.952 43.5487 44.7814 43.2402 48.5392 47.0424C50.29 48.8139 51.755 50.2633 51.7948 50.2633C51.8346 50.2633 51.8671 49.5215 51.8671 48.615V46.9667L49.3154 44.3853C47.912 42.9655 46.741 41.804 46.7132 41.804C46.6854 41.804 46.3687 42.1039 46.0093 42.4704ZM67.805 45.8877V50.5182C67.805 53.065 67.8352 55.1792 67.8721 55.2165C67.9089 55.2539 69.3739 53.8337 71.1274 52.0607L74.3157 48.837L74.3163 44.3094L71.8359 41.8044L67.805 45.8877ZM54.5143 44.5837L52.839 46.2816V49.9774C52.839 52.0101 52.8699 53.7045 52.9076 53.7426C52.9453 53.7808 54.4322 52.3388 56.2118 50.5381L59.4474 47.2643V46.0805L57.8671 44.4833C56.9979 43.6047 56.2649 42.886 56.2382 42.886C56.2115 42.886 55.4358 43.65 54.5143 44.5837ZM77.1039 45.1301L75.3853 46.8717V54.1473L80.5417 48.9354L80.4798 48.3944C80.3796 47.5175 80.1758 46.6155 79.8621 45.6596C79.5628 44.7481 79.0283 43.5174 78.8957 43.4343C78.8555 43.4092 78.0491 44.1723 77.1039 45.1301ZM61.2677 45.0272L60.322 45.988V47.2643L63.5539 50.5344C65.3314 52.3329 66.8074 53.8044 66.8338 53.8045C66.8601 53.8045 66.8695 52.6514 66.8543 51.242L66.8269 48.6794L64.5496 46.3729C63.2971 45.1043 62.259 44.0663 62.2428 44.0663C62.2267 44.0663 61.7878 44.4987 61.2677 45.0272ZM40.1282 45.2661C39.9579 45.7284 39.8537 46.0983 39.524 47.4107C39.4765 47.6001 39.4071 48.1023 39.3698 48.5268L39.3021 49.2985L41.7695 51.7974C43.1266 53.1717 44.2919 54.2962 44.3591 54.2962C44.4543 54.2962 44.4813 53.6918 44.4813 51.559V48.8218L42.492 46.8139C41.3979 45.7096 40.4616 44.7922 40.4115 44.7752C40.3613 44.7583 40.2338 44.9792 40.1282 45.2661ZM45.3559 47.8042C45.3559 49.1567 45.3894 50.2633 45.4303 50.2633C45.4712 50.2633 46.05 49.71 46.7165 49.0337L47.9283 47.8042L46.7165 46.5746C46.05 45.8984 45.4712 45.3451 45.4303 45.3451C45.3894 45.3451 45.3559 46.4517 45.3559 47.8042ZM45.3559 51.79V61.4615L46.088 61.8132C47.341 62.4151 48.6551 62.8233 51.3514 63.448C51.5755 63.5 51.7832 63.5425 51.813 63.5425C51.8428 63.5425 51.8671 60.8973 51.8671 57.6641V51.7858L48.6094 48.4927L45.3559 51.79ZM56.0643 52.0645L52.839 55.3301V63.6269L53.3492 63.7227C54.3193 63.9046 56.1223 64.0343 57.6847 64.0343H59.253V72.6013L60.4678 72.5428L60.5184 64.0343H62.2258C63.1649 64.0343 64.3561 63.9888 64.8731 63.9332C65.3899 63.8775 66.0424 63.808 66.323 63.7786L66.8332 63.725V55.2278L65.5928 53.9752C64.9106 53.2861 64.3092 52.7224 64.2565 52.7224C64.2039 52.7224 63.297 53.6021 62.2414 54.6773L60.322 56.6321V63.9359H59.4474V56.4169C59.4474 52.2813 59.4118 48.8756 59.3685 48.8484C59.325 48.8213 57.8381 50.2685 56.0643 52.0645ZM60.322 51.9355C60.322 53.6667 60.3553 55.0831 60.3961 55.0831C60.4368 55.0831 61.1688 54.3749 62.0227 53.5093L63.5754 51.9355L62.0227 50.3617C61.1688 49.496 60.4368 48.7878 60.3961 48.7878C60.3553 48.7878 60.322 50.2043 60.322 51.9355ZM72.3969 52.1566C71.368 53.1992 70.5262 54.0844 70.5262 54.1239C70.5262 54.1634 71.368 55.0454 72.3969 56.0838L74.2677 57.9719L74.294 56.0357C74.3085 54.9708 74.3085 53.2359 74.294 52.1803L74.2677 50.2611L72.3969 52.1566ZM77.934 52.946L75.3821 55.5304L75.4339 60.892L75.7254 60.668C76.063 60.4086 77.0585 59.4139 77.4594 58.9352C78.716 57.4351 79.7775 55.196 80.292 52.9602C80.4377 52.3269 80.6145 50.3617 80.5256 50.3617C80.5039 50.3617 79.3376 51.5246 77.934 52.946ZM39.3717 51.542C39.5241 53.5693 40.397 56.0277 41.5984 57.8135C42.2716 58.8141 42.4436 59.0235 43.2745 59.8538C44.0587 60.6374 44.2372 60.7883 44.38 60.7883C44.4476 60.7883 44.4813 59.9767 44.4813 58.3531V55.9179L39.3089 50.7059L39.3717 51.542ZM68.7507 55.8472L67.805 56.8081V60.1753C67.805 63.4133 67.8121 63.5425 67.989 63.5425C68.7539 63.5425 72.3541 62.4871 73.6697 61.8772L74.3163 61.5775V59.382L72.0959 57.1342C70.8747 55.8979 69.8353 54.8864 69.786 54.8864C69.7367 54.8864 69.2709 55.3188 68.7507 55.8472ZM27.4744 76.4149C26.4589 76.8194 25.6931 77.53 25.2567 78.4724C25.0225 78.9781 24.9966 79.144 25.0003 80.1169C25.0039 81.0846 25.0319 81.2564 25.2648 81.7435C26.0081 83.2978 27.4105 84.1036 29.1391 83.9694C29.6098 83.9329 30.0775 83.8237 30.4198 83.6705C31.0216 83.4011 31.8476 82.6876 31.8476 82.4371C31.8476 82.3475 31.7158 82.1953 31.5548 82.099L31.262 81.924L30.8664 82.3164C30.3263 82.8524 29.8833 83.0431 29.054 83.097C27.861 83.1746 27.0247 82.7929 26.431 81.8997C25.3742 80.3099 25.8985 78.1629 27.5422 77.3488C27.9706 77.1367 28.1964 77.0915 28.8135 77.0944C29.7185 77.0987 30.1849 77.2757 30.7487 77.8289C31.1521 78.2247 31.1588 78.2271 31.41 78.0605C31.7898 77.8087 31.8095 77.6329 31.4958 77.2986C31.0842 76.8601 30.7324 76.6269 30.1675 76.4179C29.4957 76.1693 28.0947 76.1677 27.4744 76.4149ZM32.8842 76.2971C32.8486 76.3331 32.8194 78.0594 32.8194 80.1333V83.9039H33.694V76.2315H33.3215C33.1166 76.2315 32.9198 76.261 32.8842 76.2971ZM34.635 76.2955C34.5985 76.3324 34.5687 76.5323 34.5687 76.7397V77.1168H36.9011V83.9039H37.7757V77.1168H40.1193L40.0595 76.2807L37.3804 76.2546C35.9069 76.2401 34.6714 76.2586 34.635 76.2955ZM40.6912 76.3352C40.6912 76.4272 41.0995 77.2197 41.4233 77.7561C41.4886 77.8643 41.6841 78.2184 41.8578 78.543C42.4784 79.7033 42.8138 80.3202 43.0615 80.7562C43.2982 81.1731 43.3129 81.2775 43.3139 82.5514L43.3151 83.9039H44.1897V81.1265L44.6588 80.2282C44.917 79.7341 45.2602 79.0865 45.4217 78.789C46.3433 77.0913 46.7072 76.3532 46.6505 76.2959C46.5384 76.1825 45.8691 76.2271 45.771 76.3544C45.7189 76.4221 45.4677 76.8758 45.2127 77.3627C44.9577 77.8496 44.6714 78.3807 44.5765 78.543C44.4816 78.7053 44.2516 79.1361 44.0655 79.5002L43.7271 80.1623L43.4412 79.5986C43.1407 79.0056 42.5826 77.9603 42.1688 77.2151C42.0337 76.9717 41.8614 76.6508 41.7859 76.502C41.6644 76.2623 41.5943 76.2315 41.17 76.2315C40.8991 76.2315 40.6912 76.2765 40.6912 76.3352ZM51.4766 76.3648C50.3938 76.7214 49.6579 77.3675 49.166 78.3932C48.8289 79.096 48.8112 79.1827 48.8141 80.1169C48.8168 81.0009 48.8468 81.1652 49.1104 81.7399C49.4889 82.5648 50.1776 83.2619 50.9925 83.6448C51.5664 83.9145 51.7176 83.942 52.6446 83.945C53.589 83.9481 53.7121 83.9255 54.2967 83.643C55.095 83.2574 55.4982 82.91 55.9168 82.2478C56.3712 81.5292 56.5686 80.6985 56.506 79.7699C56.4615 79.1107 56.2172 78.3382 55.9313 77.9529C55.3258 77.1364 54.65 76.6255 53.8512 76.3803C53.2946 76.2094 51.9744 76.2008 51.4766 76.3648ZM57.5685 76.2971C57.5329 76.3331 57.5037 78.0594 57.5037 80.1333V83.9039H58.3784V80.6579H61.7797V79.871H58.3784V77.1168H62.0713V76.2315H59.8523C58.6318 76.2315 57.6041 76.261 57.5685 76.2971ZM66.8332 76.3309C66.8332 76.3856 66.7494 76.618 66.6468 76.8473C66.5443 77.0766 66.3256 77.5662 66.1609 77.9352C65.9962 78.3041 65.8614 78.6239 65.8614 78.6458C65.8614 78.6678 65.7302 78.9755 65.5699 79.33C65.4095 79.6844 65.2783 79.9921 65.2783 80.0138C65.2783 80.0355 65.1252 80.3888 64.9382 80.7986C64.7511 81.2086 64.598 81.5627 64.598 81.5856C64.598 81.6085 64.4501 81.9513 64.2694 82.3475C63.9166 83.1205 63.6262 83.8064 63.6262 83.8667C63.6262 83.8872 63.9893 83.9039 64.433 83.9039H65.2399L65.5894 82.9203H68.4469L68.7964 83.9039H69.6612C70.1369 83.9039 70.5262 83.8683 70.5262 83.8248C70.5262 83.7813 70.4195 83.5269 70.2893 83.2592C70.1591 82.9917 69.8795 82.3743 69.668 81.8874C69.4566 81.4005 69.1518 80.7144 68.9908 80.3628C68.3117 78.8796 67.9994 78.1822 67.9994 78.1483C67.9994 78.1284 67.8027 77.689 67.5624 77.1718C67.2952 76.5969 67.0686 76.2315 66.9793 76.2315C66.8989 76.2315 66.8332 76.2762 66.8332 76.3309ZM71.9408 76.4328C71.1539 76.8302 70.723 77.4919 70.7269 78.2971C70.7321 79.361 71.1949 79.9816 72.4472 80.6039C72.9425 80.85 73.3927 81.0513 73.4477 81.0513C73.6576 81.0513 74.0247 81.5395 74.0247 81.8186C74.0247 82.7102 72.485 82.7545 71.8272 81.8817L71.5844 81.5594L70.2263 82.3519L70.3888 82.6115C70.6872 83.0883 71.0349 83.4004 71.5769 83.6779C72.0596 83.925 72.214 83.9531 73.0938 83.9531C73.9549 83.9531 74.132 83.9225 74.5592 83.7002C75.2957 83.317 75.6161 82.7924 75.6608 81.8969C75.6895 81.3209 75.6577 81.104 75.498 80.7871C75.2285 80.2524 74.6908 79.7966 73.9305 79.4583C72.6798 78.9018 72.3726 78.6653 72.3726 78.2591C72.3726 77.9087 72.6206 77.7069 73.0516 77.7069C73.3407 77.7069 73.4873 77.7736 73.7003 78.002C73.8516 78.1643 74.0076 78.2971 74.0468 78.2971C74.2206 78.2971 75.1909 77.5884 75.1909 77.4614C75.1909 77.221 74.627 76.6557 74.1704 76.4385C73.5845 76.1597 72.4872 76.1569 71.9408 76.4328ZM76.4219 76.2971C76.3862 76.3331 76.3571 78.0594 76.3571 80.1333V83.9039H78.0092V81.4701L79.0539 81.4205C80.1748 81.3674 80.591 81.24 81.1219 80.7879C81.5686 80.4074 81.8965 79.6091 81.8965 78.9021C81.8965 77.4662 81.168 76.611 79.7133 76.3388C79.0918 76.2225 76.5276 76.19 76.4219 76.2971ZM82.7711 83.9039H87.9218V82.433L84.4718 82.3793V80.9038L87.3387 80.8494V79.3791H84.4151L84.4718 77.8545L87.776 77.7561V76.2807L82.7711 76.2281V83.9039ZM88.7964 80.0677V83.9039H90.3513V79.7517L90.619 80.0327C90.7662 80.1872 91.4112 80.8069 92.0524 81.4099C92.6936 82.0127 93.5681 82.8417 93.9957 83.2518C94.4233 83.662 94.8283 83.9987 94.8958 84C94.9928 84.0018 95.0131 83.198 94.993 80.1415L94.9675 76.2807H93.5098L93.4126 80.3483L92.9753 79.9512C92.7347 79.7328 91.9257 78.9691 91.1774 78.2541C89.3807 76.5376 89.037 76.2315 88.9062 76.2315C88.8266 76.2315 88.7964 77.284 88.7964 80.0677ZM53.9783 77.3813C56.0922 78.3772 56.0767 81.8087 53.9534 82.8743C53.6516 83.0258 53.3672 83.0678 52.6446 83.0678C51.9221 83.0678 51.6376 83.0258 51.3358 82.8743C50.8216 82.6162 50.3175 82.0889 50.0207 81.4985C49.8107 81.0807 49.7782 80.8876 49.7811 80.0742C49.7839 79.2965 49.8219 79.0611 50.0004 78.7179C50.7846 77.209 52.4353 76.6544 53.9783 77.3813ZM79.7595 77.9534C79.9505 78.0534 80.0796 78.2265 80.1562 78.4855C80.2934 78.9487 80.224 79.2778 79.9119 79.645C79.6953 79.8999 79.6168 79.9227 78.8437 79.9549L78.0092 79.9895V77.8053H78.7429C79.2063 77.8053 79.5808 77.8599 79.7595 77.9534ZM67.3313 80.3136C67.56 80.8433 67.805 81.4603 67.805 81.506C67.805 81.5264 67.4356 81.5432 66.984 81.5432H66.1629L66.3099 81.1743C66.3908 80.9715 66.5395 80.6222 66.6405 80.3982C66.7415 80.1743 66.8552 79.8658 66.8931 79.7128L66.9621 79.4346L67.0618 79.6774C67.1166 79.8109 67.2379 80.0972 67.3313 80.3136Z" fill="#393737"/>
</svg>
