<svg width="120" height="120" viewBox="0 0 120 120" fill="none" xmlns="http://www.w3.org/2000/svg">
<path d="M89.3565 73.0357C89.2794 72.9833 89.1766 72.9833 89.0738 72.9571C88.2255 72.7475 87.6857 72.1971 87.48 71.3322C87.2744 70.4411 87.3772 69.6025 87.9427 68.8686C88.4054 68.2658 89.0224 67.9775 89.7421 67.9513C90.2048 67.9251 90.6675 68.0037 91.0788 68.2396C91.6443 68.5803 91.9785 69.0783 92.107 69.7335C92.2613 70.4935 92.1841 71.2274 91.7729 71.8826C91.413 72.4854 90.8732 72.8261 90.1791 72.9571C90.1534 72.9571 90.102 72.9309 90.0763 72.9833C89.8706 73.0357 89.6136 73.0357 89.3565 73.0357ZM91.5672 70.677C91.5672 70.1266 91.4901 69.6287 91.2073 69.1569C90.8732 68.6065 90.4105 68.2658 89.7678 68.2396C89.1252 68.2134 88.5339 68.5279 88.2512 69.2617C87.9684 69.9956 87.9941 70.7556 88.2512 71.5157C88.4311 72.0398 88.7653 72.4592 89.3051 72.6688C90.0249 72.9833 90.8475 72.7212 91.2587 72.066C91.4901 71.6205 91.5672 71.1487 91.5672 70.677Z" fill="#393737"/>
<path d="M57.1984 73.0357C57.0955 73.0095 56.967 72.9833 56.8642 72.9571C56.1187 72.7737 55.6303 72.3019 55.399 71.5419C55.1933 70.9129 55.1933 70.2577 55.399 69.6549C55.7074 68.7376 56.3244 68.161 57.2755 68.0037C57.9695 67.8989 58.6636 68.0037 59.2291 68.4493C59.6147 68.7638 59.846 69.1831 59.9489 69.6549C60.1288 70.4149 60.0517 71.1487 59.6661 71.8302C59.3319 72.4067 58.8435 72.7737 58.2266 72.9571C58.1238 72.9833 58.0209 73.0095 57.9181 73.0357C57.6868 73.0357 57.4554 73.0357 57.1984 73.0357ZM59.409 70.5722C59.409 70.2839 59.3576 69.917 59.2291 69.55C58.9463 68.7376 58.2523 68.1086 57.2498 68.2658C56.7614 68.3444 56.4272 68.6065 56.1958 69.0259C55.9131 69.5238 55.8617 70.048 55.8874 70.5984C55.9131 71.0177 56.0159 71.4108 56.1958 71.8039C56.5043 72.4067 57.2241 72.9047 57.9438 72.7737C58.4322 72.695 58.8178 72.4592 59.0749 72.0398C59.3319 71.5943 59.409 71.1225 59.409 70.5722Z" fill="#393737"/>
<path d="M13.6296 73.0357C13.5525 72.9833 13.4754 72.9833 13.3982 72.9833C12.7042 72.8261 12.2929 72.3543 12.2415 71.6205C12.1901 70.7294 12.2158 69.8383 12.2158 68.9735C12.2158 68.8424 12.2158 68.7376 12.1901 68.6065C12.1644 68.4231 12.113 68.3969 11.933 68.3707C11.8559 68.3707 11.7788 68.3707 11.7017 68.3707C11.5988 68.3969 11.5731 68.3445 11.5731 68.2396C11.5731 68.1348 11.5988 68.1348 11.676 68.1348C12.1901 68.1348 12.6785 68.1348 13.1926 68.1348C13.2954 68.1348 13.2954 68.161 13.2954 68.2396C13.2954 68.3182 13.3211 68.3969 13.1926 68.3707C13.1926 68.3707 13.1926 68.3707 13.1669 68.3707C12.8327 68.3707 12.8327 68.3707 12.8327 68.7114C12.8327 69.55 12.8327 70.3887 12.8327 71.2536C12.8327 71.4633 12.8584 71.6729 12.9098 71.8564C13.0384 72.3281 13.3468 72.6164 13.8095 72.695C14.1951 72.7737 14.555 72.7213 14.9149 72.564C15.3776 72.3281 15.5832 71.9088 15.6089 71.4108C15.6603 70.5197 15.6346 69.6287 15.6089 68.7376C15.6089 68.6852 15.5832 68.6065 15.5832 68.5541C15.5575 68.4231 15.4804 68.3445 15.3262 68.3445C15.2748 68.3445 15.1976 68.3445 15.1462 68.3445C15.0177 68.3707 14.992 68.3182 14.992 68.1872C14.992 68.1086 15.0177 68.0824 15.0948 68.0824C15.4804 68.0824 15.866 68.0824 16.2516 68.0824C16.3544 68.0824 16.3544 68.1348 16.3544 68.2134C16.3544 68.292 16.3544 68.3445 16.2516 68.3445C15.866 68.3182 15.9174 68.3969 15.9174 68.7114C15.9174 69.55 15.9174 70.3887 15.9174 71.2536C15.9174 72.1971 15.3519 72.8523 14.4265 73.0095C14.4008 73.0095 14.4008 73.0095 14.3751 73.0357C14.1437 73.0357 13.8866 73.0357 13.6296 73.0357Z" fill="#393737"/>
<path d="M69.051 73.0357C68.8967 72.9833 68.7425 72.9571 68.5883 72.9309C67.6372 72.6688 67.0459 71.9088 66.9945 70.8867C66.9688 70.2052 67.123 69.5763 67.56 69.0259C68.0227 68.4493 68.6397 68.1086 69.3851 68.0037C69.9507 67.9251 70.5162 67.9775 71.056 68.1872C71.1074 68.2134 71.1588 68.2134 71.1331 68.292C71.1074 68.4493 71.1074 68.6065 71.0817 68.7638C71.0817 68.8162 71.056 68.8686 71.0046 68.8686C70.9532 68.8686 70.9275 68.8162 70.9275 68.7638C70.9018 68.6065 70.7989 68.5279 70.6961 68.4493C69.8221 67.9775 68.6397 68.292 68.1256 69.1569C67.6115 69.9956 67.5343 70.8867 68.0227 71.7515C68.7168 72.9571 70.1049 72.9309 70.9018 72.3281C71.0046 72.2495 71.0817 72.1185 71.1074 71.9874C71.1074 71.9088 71.1331 71.8564 71.2102 71.8564C71.2874 71.8564 71.2873 71.935 71.2873 72.0136C71.2873 72.1971 71.2617 72.3805 71.2359 72.564C71.2359 72.6426 71.1588 72.6688 71.1074 72.6688C70.7475 72.8261 70.3877 72.9309 70.0021 72.9571C69.9764 72.9571 69.9507 72.9571 69.9507 72.9833C69.6165 73.0357 69.3337 73.0357 69.051 73.0357Z" fill="#393737"/>
<path d="M26.9706 73.0358C26.4051 71.6729 25.8653 70.2839 25.2998 68.9211C25.2741 68.8424 25.2227 68.7376 25.1712 68.659C25.0941 68.4493 24.9399 68.3183 24.7085 68.3707C24.6057 68.3969 24.6057 68.3183 24.6057 68.2396C24.6057 68.1348 24.6314 68.1348 24.7343 68.1348C25.197 68.1348 25.6597 68.1348 26.1224 68.1348C26.2252 68.1348 26.2252 68.161 26.2252 68.2658C26.2252 68.3445 26.2252 68.3969 26.1224 68.3969C26.0195 68.3969 25.9424 68.3969 25.8396 68.3969C25.7625 68.3969 25.7368 68.4231 25.7625 68.5017C25.9167 68.8949 26.0709 69.2618 26.2509 69.6549C26.5594 70.3887 26.8421 71.0963 27.1506 71.8302C27.1763 71.8826 27.1763 71.935 27.2277 71.9612C27.5105 71.2798 27.7675 70.5984 28.0503 69.917C28.2045 69.5239 28.3587 69.1045 28.4616 68.7114C28.4616 68.659 28.4616 68.6328 28.4873 68.5804C28.513 68.4755 28.4616 68.4231 28.3587 68.4231C28.2302 68.4231 28.1017 68.4231 27.9732 68.4231C27.8703 68.4231 27.896 68.3445 27.896 68.2921C27.896 68.2396 27.896 68.1872 27.9732 68.1872C28.3844 68.1872 28.7957 68.1872 29.2327 68.1872C29.3099 68.1872 29.3099 68.2396 29.3099 68.2921C29.3099 68.3445 29.3356 68.4493 29.2327 68.4231C28.9757 68.3707 28.8986 68.5279 28.7957 68.7376C28.2559 70.1266 27.7161 71.5419 27.1763 72.9309C27.1506 72.9834 27.1249 73.062 27.0992 73.1144C27.0478 73.0358 27.0221 73.0358 26.9706 73.0358Z" fill="#393737"/>
<path d="M39.361 73.0358C39.2068 72.9571 39.0268 72.9571 38.8469 72.9309C38.6413 72.8785 38.5384 72.7999 38.5384 72.5902C38.5384 72.4592 38.487 72.3019 38.487 72.1709C38.487 72.1185 38.5127 72.066 38.5641 72.066C38.6156 72.066 38.667 72.0923 38.667 72.1185C38.7698 72.564 39.1297 72.6426 39.4895 72.7213C39.8751 72.7999 40.2607 72.7737 40.6206 72.5378C41.1604 72.1709 41.1604 71.437 40.6463 71.0701C40.3635 70.8605 40.0551 70.7556 39.7209 70.6508C39.4381 70.546 39.1554 70.4149 38.924 70.179C38.4356 69.6025 38.5384 68.79 39.1554 68.3445C39.4638 68.1086 39.8237 68.0037 40.2093 68.0037C40.4921 68.0037 40.7748 68.0038 41.0319 68.1086C41.109 68.1348 41.1347 68.1872 41.1347 68.2658C41.1347 68.4231 41.1347 68.5541 41.1347 68.7114C41.1347 68.7638 41.1347 68.8162 41.0576 68.8162C41.0062 68.8162 40.9548 68.79 40.9548 68.7376C40.9291 68.5541 40.8005 68.4755 40.6463 68.4231C40.2607 68.292 39.8751 68.2396 39.4895 68.4755C38.924 68.8162 38.924 69.5238 39.4895 69.8645C39.7209 70.0218 40.0037 70.1004 40.2607 70.2053C40.5692 70.3363 40.8519 70.4673 41.109 70.677C41.5717 71.0701 41.5974 71.8302 41.2889 72.3019C41.0062 72.7475 40.5949 72.9833 40.1065 73.062C40.0808 73.062 40.0551 73.062 40.0551 73.0882C39.8494 73.0358 39.6181 73.0358 39.361 73.0358Z" fill="#393737"/>
<path d="M109.974 57.8349H110C110 58.0184 110 58.2018 110 58.4115H109.974C109.974 58.228 109.974 58.0446 109.974 57.8349Z" fill="#393737"/>
<path d="M46.3003 55.5286C46.3003 52.8815 46.3003 50.2345 46.3003 47.5612C46.3003 47.4302 46.326 47.404 46.4546 47.404C48.3311 47.404 50.2076 47.404 52.0841 47.404C53.5236 47.404 54.9117 47.6137 56.2484 48.1378C57.2252 48.531 58.1249 49.0813 58.8704 49.8414C59.5387 50.549 60.0271 51.3614 60.3613 52.2787C60.6698 53.1698 60.8497 54.0871 60.9011 55.0044C60.9782 56.3148 60.8754 57.599 60.4384 58.8308C59.8215 60.5344 58.7675 61.8448 57.1738 62.7097C56.1713 63.26 55.0916 63.5483 53.9606 63.627C53.3437 63.6794 52.701 63.6532 52.0841 63.6532C51.0302 63.6532 49.9762 63.6532 48.9223 63.6532C48.0997 63.6532 47.2771 63.6532 46.4288 63.6532C46.3003 63.6532 46.2746 63.627 46.2746 63.4959C46.3003 60.8489 46.3003 58.2018 46.3003 55.5286ZM51.827 55.6072C51.827 56.708 51.827 57.7825 51.827 58.8833C51.827 58.9357 51.8013 59.0143 51.9041 59.0143C52.264 59.0143 52.6239 59.0143 52.9838 58.9357C54.1148 58.6998 54.9117 58.0446 55.2459 56.8914C55.5029 56.0003 55.4515 55.1092 55.1688 54.2444C54.886 53.3795 54.3205 52.7767 53.4722 52.436C52.9838 52.2525 52.4697 52.2001 51.9556 52.2001C51.8527 52.2001 51.8013 52.2263 51.8013 52.3574C51.827 53.4319 51.827 54.5065 51.827 55.6072Z" fill="#393737"/>
<path d="M77.3021 63.6794C77.2507 63.6794 77.1993 63.6794 77.1479 63.6794C75.2971 63.6794 73.472 63.6794 71.6212 63.6794C71.5184 63.6794 71.467 63.6532 71.4413 63.5483C71.287 62.9455 71.1071 62.3427 70.9529 61.74C70.9272 61.6613 70.9015 61.6351 70.8243 61.6351C69.5134 61.6351 68.2024 61.6351 66.8914 61.6351C66.8143 61.6351 66.7629 61.6613 66.7629 61.74C66.6343 62.3427 66.5058 62.9717 66.3773 63.5745C66.3516 63.6532 66.3002 63.6532 66.2487 63.6532C65.8117 63.6532 65.3748 63.6532 64.9378 63.6532C63.524 63.6532 62.0844 63.6532 60.6706 63.6532C60.5421 63.6532 60.5164 63.627 60.5678 63.5221C61.0819 61.9234 61.596 60.2985 62.1358 58.6736C62.7014 56.8914 63.2669 55.1092 63.8581 53.3271C64.4494 51.5187 65.0149 49.7103 65.6061 47.9019C65.6575 47.7709 65.6832 47.6399 65.7346 47.5088C65.7603 47.404 65.8118 47.3778 65.9146 47.3778C67.8682 47.3778 69.7961 47.3778 71.7497 47.3778C71.8526 47.3778 71.904 47.404 71.9297 47.5088C72.4438 49.0551 72.9579 50.5752 73.472 52.1215C74.0375 53.825 74.6031 55.5286 75.1943 57.2321C75.7598 58.9619 76.351 60.6916 76.9166 62.4214C77.0194 62.8407 77.1479 63.26 77.3021 63.6794ZM68.8707 52.2001C68.6651 53.2484 68.4851 54.2444 68.2795 55.2665C68.1253 56.0527 67.971 56.8652 67.8168 57.6514C67.7911 57.7563 67.8168 57.7825 67.9196 57.7825C68.5622 57.7825 69.2306 57.7825 69.8732 57.7825C69.8989 57.7825 69.9246 57.7825 69.9504 57.7825C69.5905 55.8955 69.2306 54.0609 68.8707 52.2001Z" fill="#393737"/>
<path d="M82.2356 57.1535C82.3384 56.7342 82.4413 56.341 82.5441 55.9741C83.2381 53.2222 83.9065 50.4442 84.6005 47.6923C84.6777 47.404 84.6777 47.404 84.9604 47.404C86.7341 47.404 88.4821 47.404 90.2558 47.404C90.41 47.404 90.41 47.404 90.3586 47.5612C89.716 49.3434 89.0733 51.0994 88.4564 52.8815C87.7623 54.8472 87.0426 56.7866 86.3485 58.7522C85.7573 60.3771 85.1918 61.9758 84.6005 63.6008C84.5748 63.6532 84.5491 63.6794 84.472 63.6794C82.9811 63.6794 81.4902 63.6794 79.9992 63.6794C79.9221 63.6794 79.8964 63.6532 79.8707 63.5745C79.5365 62.631 79.2023 61.6875 78.8425 60.744C78.2512 59.1191 77.66 57.468 77.0945 55.8431C76.4261 54.0085 75.7835 52.1739 75.1152 50.3393C74.781 49.3958 74.4468 48.4523 74.1126 47.535C74.1126 47.5088 74.0869 47.4826 74.0869 47.4302C74.1383 47.4302 74.1898 47.4302 74.2412 47.4302C76.0406 47.4302 77.84 47.4302 79.6651 47.4302C79.7679 47.4302 79.8193 47.4564 79.845 47.5612C80.1278 48.7668 80.4362 49.9724 80.7447 51.178C81.2331 53.1436 81.7215 55.1092 82.2099 57.0487C82.2099 57.0749 82.2099 57.1011 82.2356 57.1535Z" fill="#393737"/>
<path d="M109.972 57.8349C109.972 58.0184 109.972 58.2018 109.972 58.4115C109.947 59.6433 109.561 60.7178 108.764 61.6613C107.813 62.7883 106.579 63.4173 105.191 63.7318C104.317 63.9415 103.418 63.9677 102.518 63.889C101.13 63.758 99.7931 63.4173 98.5078 62.8931C98.225 62.7883 97.968 62.6572 97.6852 62.5C97.6338 62.4738 97.6081 62.4476 97.6338 62.369C98.1736 60.9537 98.6877 59.5385 99.2275 58.1232C99.5103 58.3853 99.8188 58.6212 100.153 58.857C100.898 59.355 101.721 59.7481 102.621 59.8792C103.058 59.9316 103.495 59.9578 103.932 59.853C104.471 59.7219 104.703 59.3812 104.626 58.8046C104.574 58.3329 104.317 58.0708 103.906 57.9135C103.443 57.7563 102.981 57.7039 102.518 57.599C101.772 57.4418 101.027 57.2845 100.359 56.9176C99.099 56.2362 98.3278 55.1879 98.1993 53.7202C98.0451 51.8856 98.5849 50.3131 99.8959 49.0289C100.821 48.1116 101.952 47.5874 103.238 47.3254C105.191 46.9584 107.068 47.2467 108.841 48.1902C109.047 48.2951 109.227 48.4261 109.433 48.5309C109.51 48.5834 109.51 48.6096 109.484 48.6882C109.047 49.8938 108.61 51.0994 108.173 52.3049C108.122 52.4098 108.096 52.4098 108.019 52.3574C107.376 51.8856 106.682 51.4663 105.911 51.2304C105.448 51.0732 104.96 50.9945 104.446 51.047C104.086 51.0994 103.752 51.2304 103.572 51.5449C103.366 51.8856 103.418 52.567 103.957 52.8553C104.317 53.0388 104.703 53.1436 105.088 53.2222C105.808 53.4057 106.528 53.5367 107.196 53.825C108.147 54.2182 108.919 54.7947 109.433 55.712C109.793 56.3934 109.947 57.1011 109.972 57.8349Z" fill="#393737"/>
<path d="M11.932 54.323C11.932 52.8815 11.932 51.4663 11.932 50.0248C11.932 49.6055 11.9577 49.1862 11.9577 48.7668C11.9577 48.5309 11.9063 48.4523 11.6749 48.3737C11.1865 48.1902 10.6724 48.0068 10.184 47.7971C10.1326 47.7709 10.0555 47.7447 10.0298 47.6661C9.95266 47.5088 10.0298 47.3778 10.2097 47.404C10.4925 47.404 10.7752 47.4302 11.0323 47.4564C11.5464 47.5088 12.0605 47.535 12.6003 47.5612C13.0116 47.5612 13.4229 47.5874 13.8342 47.5874C14.8367 47.5874 15.8392 47.5612 16.8418 47.4826C17.0217 47.4564 17.2016 47.4564 17.3559 47.4564C17.4587 47.4564 17.5615 47.4826 17.5872 47.6137C17.6129 47.7447 17.5615 47.7971 17.4073 47.8495C16.8418 48.0068 16.2762 48.1902 15.7364 48.3999C15.5308 48.5047 15.5051 48.5309 15.4794 48.7668C15.4537 49.5269 15.4537 50.2869 15.4794 51.0207C15.4794 51.5187 15.4794 52.0167 15.4794 52.5408C15.4794 54.3754 15.4794 56.21 15.5051 58.0184C15.5051 59.0405 15.7621 60.0102 16.3277 60.8489C16.9446 61.7924 17.8186 62.3165 18.8725 62.5262C19.8236 62.7097 20.7747 62.6573 21.7258 62.3428C22.934 61.9496 23.7309 61.1372 24.1679 59.9316C24.3992 59.3026 24.502 58.6474 24.502 57.9922C24.5277 55.0568 24.502 52.1215 24.5277 49.1599C24.5277 49.0289 24.5535 48.8979 24.5277 48.7668C24.5277 48.5309 24.4506 48.4785 24.245 48.3999C23.7566 48.2427 23.2682 48.0592 22.7798 47.8757C22.6769 47.8233 22.5741 47.6661 22.5998 47.5874C22.6255 47.4826 22.7541 47.4302 22.8826 47.4564C23.3196 47.5088 23.7309 47.535 24.1679 47.5612C24.7848 47.5612 25.4017 47.5874 26.0187 47.5612C26.6613 47.535 27.2783 47.5088 27.8952 47.4302C27.9466 47.4302 27.998 47.4302 28.0237 47.4302C28.1265 47.4302 28.2037 47.4564 28.2294 47.5612C28.2551 47.6661 28.2037 47.7447 28.1008 47.7971C27.7924 47.9282 27.4839 48.0592 27.1754 48.1902C26.9184 48.2951 26.6613 48.4261 26.3786 48.5309C26.2243 48.5834 26.1472 48.6882 26.1472 48.8717C26.1472 49.0027 26.1215 49.1075 26.1215 49.2386C26.1215 52.0953 26.1215 54.952 26.1215 57.8087C26.1215 58.6998 25.9673 59.5909 25.6074 60.4295C25.1447 61.5041 24.3992 62.2903 23.4224 62.8669C22.497 63.4173 21.4945 63.6794 20.4663 63.8366C19.9264 63.9153 19.3866 63.9415 18.8468 63.9677C17.7672 63.9939 16.7132 63.889 15.6593 63.6008C14.8367 63.3649 14.0656 62.998 13.4229 62.4214C12.5232 61.6351 12.0605 60.6392 11.932 59.4598C11.8806 59.0929 11.8806 58.7522 11.8806 58.3853C11.932 56.9962 11.932 55.6596 11.932 54.323Z" fill="#393737"/>
<path d="M37.4848 47.0109C39.1299 47.0109 40.6466 47.1943 42.1118 47.6399C42.3431 47.7185 42.6002 47.7971 42.8315 47.8757C42.9344 47.9019 42.9601 47.9544 42.9601 48.033C43.0629 48.8979 43.14 49.7627 43.2428 50.6276C43.2942 51.0994 43.3971 51.5449 43.4228 52.0166C43.4228 52.1477 43.4485 52.3049 43.3971 52.436C43.3714 52.567 43.2942 52.5932 43.1657 52.5408C43.0372 52.4622 42.9601 52.3312 42.883 52.2001C42.6516 51.7546 42.4974 51.2566 42.3174 50.7849C42.1375 50.3393 41.9833 49.8676 41.7519 49.422C41.7005 49.291 41.5977 49.1861 41.4691 49.1337C40.8265 48.7406 40.1325 48.5047 39.4384 48.3213C38.9757 48.1902 38.4873 48.1116 38.0246 48.1116C36.7136 48.1378 35.5311 48.4785 34.5029 49.3434C33.6803 50.051 33.1405 50.9421 32.7806 51.938C32.4722 52.8291 32.3179 53.7464 32.2665 54.6899C32.1894 55.9741 32.3179 57.2321 32.7035 58.4639C33.012 59.4598 33.449 60.3771 34.143 61.1634C34.9656 62.0807 35.9681 62.631 37.1506 62.7359C38.6415 62.8931 40.0553 62.6572 41.3663 61.871C42.0861 61.4517 42.5745 60.8227 42.8573 60.0102C42.9858 59.6433 43.1143 59.3026 43.2942 58.9619C43.3457 58.8832 43.3714 58.8046 43.4485 58.726C43.4999 58.6736 43.5513 58.6212 43.6027 58.6474C43.6798 58.6736 43.7055 58.726 43.7055 58.8046C43.7312 58.9357 43.7055 59.0667 43.7055 59.1977C43.6284 59.7219 43.4742 60.2199 43.3457 60.7178C43.2428 61.242 43.1143 61.7662 43.0115 62.2641C42.9601 62.5 42.883 62.631 42.6516 62.7359C41.829 63.1028 40.9807 63.3649 40.1068 63.5483C39.2585 63.7318 38.3845 63.8104 37.5105 63.8366C36.4566 63.889 35.4283 63.8628 34.4001 63.6794C33.1919 63.4697 32.0352 63.1028 31.007 62.3952C29.9787 61.7137 29.1819 60.7702 28.6677 59.6433C28.2822 58.7784 28.0508 57.8873 27.9737 56.97C27.8709 55.4762 27.9994 54.0085 28.4364 52.567C28.7449 51.5449 29.2333 50.6014 29.9273 49.7889C30.6471 48.9241 31.5468 48.2951 32.575 47.8495C33.6546 47.3778 34.76 47.1419 35.9424 47.0371C36.5337 47.0109 37.0735 46.9846 37.4848 47.0109Z" fill="#393737"/>
<path d="M96.4522 55.5548C96.4522 58.2018 96.4522 60.8751 96.4522 63.5221C96.4522 63.6532 96.4265 63.6794 96.2979 63.6794C94.5757 63.6794 92.8277 63.6794 91.1054 63.6794C90.9769 63.6794 90.9512 63.6532 90.9512 63.5221C90.9512 58.2018 90.9512 52.8815 90.9512 47.535C90.9512 47.4302 90.9769 47.3778 91.1054 47.3778C92.8534 47.3778 94.5756 47.3778 96.3236 47.3778C96.4522 47.3778 96.4779 47.404 96.4779 47.535C96.4522 50.2083 96.4522 52.8815 96.4522 55.5548Z" fill="#393737"/>
<path d="M60.5651 66.1692C44.242 66.1692 27.9189 66.1692 11.5959 66.1692C11.4159 66.1692 11.4159 66.1692 11.4159 65.9857C11.4159 65.8809 11.3645 65.7236 11.4416 65.645C11.5187 65.5664 11.673 65.6188 11.7758 65.6188C44.3705 65.6188 76.9396 65.6188 109.534 65.6188C109.586 65.6188 109.611 65.6188 109.663 65.6188C109.714 65.6188 109.74 65.645 109.74 65.6974C109.74 65.6974 109.74 65.6974 109.74 65.7236C109.74 65.8809 109.791 66.0643 109.714 66.1692C109.637 66.274 109.457 66.1954 109.303 66.1954C93.057 66.1692 76.811 66.1692 60.5651 66.1692Z" fill="#393737"/>
<path d="M36.4025 70.6246C36.8652 71.2536 37.2508 71.9088 37.7649 72.4591C37.8677 72.564 37.9962 72.6426 38.1505 72.6426C38.2533 72.6164 38.2533 72.695 38.2533 72.7736C38.2533 72.8523 38.2533 72.9047 38.1505 72.9047C37.8934 72.9047 37.6364 72.9047 37.3793 72.9047C37.2765 72.9047 37.2251 72.8523 37.1737 72.7999C36.9423 72.564 36.7881 72.3019 36.6081 72.0398C36.3511 71.6467 36.094 71.2274 35.837 70.8342C35.7856 70.7818 35.7598 70.7556 35.6827 70.7556C35.5799 70.7556 35.4514 70.7556 35.3486 70.7556C35.2714 70.7556 35.2457 70.7818 35.2457 70.8604C35.2457 71.3584 35.22 71.8564 35.2714 72.3543C35.2714 72.4067 35.2971 72.4854 35.2971 72.5378C35.3228 72.6426 35.3743 72.695 35.5028 72.695C35.6056 72.695 35.7084 72.695 35.7856 72.695C35.8884 72.695 35.8884 72.7474 35.8884 72.8261C35.8884 72.9047 35.8884 72.9571 35.7856 72.9571C35.2714 72.9571 34.7573 72.9571 34.2689 72.9571C34.1661 72.9571 34.1661 72.9309 34.1661 72.8523C34.1661 72.7736 34.1661 72.7212 34.2689 72.7212C34.6031 72.7212 34.6031 72.7212 34.6031 72.3805C34.6031 71.2536 34.6031 70.1266 34.6031 68.9997C34.6031 68.8686 34.6031 68.7376 34.5517 68.6065C34.526 68.5017 34.4746 68.4493 34.3717 68.4493C34.2946 68.4493 34.1918 68.4493 34.1147 68.4493C33.9862 68.4493 33.9347 68.3707 33.9862 68.2396C34.0119 68.161 34.0633 68.2134 34.1147 68.2134C34.8087 68.2134 35.5028 68.2134 36.1711 68.2134C36.4539 68.2134 36.711 68.292 36.9423 68.4231C37.3793 68.6851 37.5849 69.0783 37.5592 69.6024C37.5078 70.1528 37.1994 70.4673 36.711 70.6508C36.6081 70.5721 36.531 70.5984 36.4025 70.6246ZM35.2714 69.4714C35.2714 69.7859 35.2714 70.1004 35.2714 70.4149C35.2714 70.4673 35.2714 70.5197 35.3486 70.5197C35.6056 70.5197 35.8627 70.5459 36.1197 70.4673C36.3768 70.3887 36.5824 70.3101 36.7367 70.0742C37.0708 69.5762 36.8395 68.79 36.274 68.5279C35.9912 68.3969 35.657 68.4231 35.3743 68.4231C35.2971 68.4231 35.2714 68.4755 35.2714 68.5803C35.2714 68.8424 35.2714 69.1569 35.2714 69.4714Z" fill="#393737"/>
<path d="M95.1146 70.6508C95.3717 70.9915 95.603 71.3584 95.8344 71.6991C96.04 71.9874 96.22 72.2495 96.477 72.4854C96.5798 72.5902 96.7084 72.6688 96.8626 72.6426C96.9654 72.6164 96.9654 72.695 96.9654 72.7737C96.9654 72.8523 96.9654 72.9047 96.8626 72.9047C96.6313 72.9047 96.3742 72.9047 96.1429 72.9047C96.04 72.9047 95.9629 72.8785 95.8858 72.7999C95.7059 72.6164 95.5516 72.3805 95.4231 72.1709C95.1403 71.7253 94.8576 71.2798 94.5748 70.8605C94.5234 70.7818 94.472 70.7294 94.3692 70.7556C94.2406 70.7556 94.0607 70.7032 93.9836 70.7818C93.9065 70.8605 93.9579 71.0439 93.9579 71.175C93.9579 71.5943 93.9322 72.0136 93.9836 72.4068C94.0093 72.6426 94.0607 72.6688 94.2921 72.6688C94.3435 72.6688 94.3949 72.6688 94.4463 72.6688C94.5491 72.6426 94.6005 72.695 94.5748 72.7999C94.5748 72.8785 94.5491 72.9047 94.472 72.9047C93.9579 72.9047 93.4438 72.9047 92.9554 72.9047C92.8525 72.9047 92.8525 72.8523 92.8525 72.7737C92.8525 72.695 92.8525 72.6426 92.9554 72.6426C92.9811 72.6426 93.0068 72.6426 93.0325 72.6426C93.3409 72.6426 93.341 72.6688 93.341 72.3281C93.341 71.2798 93.341 70.2053 93.341 69.1569C93.341 68.9473 93.341 68.7376 93.2895 68.5279C93.2638 68.3969 93.2124 68.3445 93.0839 68.3445C93.0068 68.3445 92.9297 68.3445 92.8525 68.3445C92.724 68.3707 92.6983 68.3182 92.6983 68.1872C92.6983 68.1086 92.724 68.0824 92.8011 68.0824C93.4952 68.0824 94.2149 68.0824 94.909 68.0824C95.346 68.0824 95.7316 68.2396 96.0143 68.5803C96.4256 69.0783 96.4256 70.1004 95.5002 70.4673C95.3717 70.5722 95.2432 70.5984 95.1146 70.6508ZM93.9836 69.4714C93.9836 69.7859 93.9836 70.0742 93.9836 70.3887C93.9836 70.4411 93.9579 70.4935 94.0607 70.4935C94.3178 70.4935 94.6005 70.5198 94.8576 70.4411C95.0889 70.3625 95.3203 70.2839 95.4745 70.048C95.8087 69.55 95.5773 68.79 95.0375 68.5017C94.729 68.3445 94.4206 68.3707 94.0864 68.3969C94.0093 68.3969 93.9836 68.4755 93.9836 68.5541C93.9836 68.8686 93.9836 69.1569 93.9836 69.4714Z" fill="#393737"/>
<path d="M20.9797 71.804C20.9797 71.7253 20.9797 71.6729 20.9797 71.6467C20.9797 70.7556 20.9797 69.8383 20.9797 68.9473C20.9797 68.79 20.954 68.659 20.9026 68.5017C20.8769 68.3969 20.7998 68.3445 20.697 68.3445C20.6199 68.3445 20.5427 68.3445 20.4656 68.3445C20.3628 68.3445 20.3371 68.3183 20.3371 68.2134C20.3371 68.1086 20.3628 68.1086 20.4656 68.1086C20.8512 68.1086 21.2368 68.1086 21.5967 68.1086C21.6995 68.1086 21.6995 68.1348 21.6995 68.2396C21.6995 68.3183 21.6995 68.3707 21.5967 68.3707C21.2111 68.3445 21.2625 68.3969 21.2625 68.7114C21.2625 70.048 21.2625 71.4108 21.2625 72.7475C21.2625 72.8261 21.2882 72.9309 21.2111 72.9571C21.1083 73.0096 21.0826 72.8785 21.0312 72.8261C20.0029 71.5681 18.949 70.2839 17.9208 69.0259C17.8951 68.9735 17.8437 68.9473 17.7922 68.8686C17.7922 68.9473 17.7922 68.9997 17.7922 69.0259C17.7922 69.9956 17.7922 70.9653 17.7922 71.935C17.7922 72.0923 17.7922 72.2757 17.8437 72.433C17.8951 72.6164 17.9208 72.6426 18.1007 72.6426C18.1521 72.6426 18.2035 72.6426 18.255 72.6426C18.3835 72.6164 18.4092 72.6688 18.4092 72.7999C18.4092 72.8785 18.3835 72.9047 18.3064 72.9047C17.9208 72.9047 17.5095 72.9047 17.1239 72.9047C17.0211 72.9047 17.0211 72.8523 17.0211 72.7999C17.0211 72.7475 16.9954 72.6688 17.0982 72.6688C17.4581 72.6426 17.4581 72.6426 17.4581 72.2757C17.4581 71.2012 17.4581 70.1266 17.4581 69.0783C17.4581 68.9473 17.4581 68.8162 17.4067 68.7114C17.3553 68.4755 17.2524 68.3969 17.0211 68.3969C16.9954 68.3969 16.944 68.3969 16.9183 68.3969C16.8154 68.3969 16.7897 68.3707 16.7897 68.2658C16.7897 68.161 16.8154 68.1348 16.9183 68.1348C17.201 68.1348 17.4838 68.1348 17.7665 68.1348C17.8437 68.1348 17.8951 68.161 17.9465 68.2134C18.8719 69.3666 19.823 70.5198 20.7484 71.6729C20.8769 71.6991 20.9026 71.7515 20.9797 71.804Z" fill="#393737"/>
<path d="M98.0954 68.8686C98.0954 69.2094 98.0954 69.5238 98.0954 69.8383C98.0954 70.5722 98.0954 71.3322 98.0954 72.0661C98.0954 72.1971 98.1211 72.3281 98.1468 72.433C98.1982 72.6164 98.2496 72.6689 98.4296 72.6689C98.481 72.6689 98.5324 72.6689 98.5838 72.6689C98.7123 72.6426 98.7381 72.6951 98.7381 72.8261C98.7381 72.9047 98.7123 72.9309 98.6352 72.9309C98.2496 72.9309 97.8641 72.9309 97.4785 72.9309C97.3756 72.9309 97.3756 72.8785 97.3756 72.7999C97.3756 72.7213 97.3756 72.6689 97.4785 72.6689C97.8641 72.6951 97.8127 72.6164 97.8127 72.3019C97.8127 71.2798 97.8127 70.2577 97.8127 69.2356C97.8127 69.0783 97.8126 68.9211 97.7869 68.7638C97.7612 68.4493 97.6327 68.3445 97.3242 68.3445C97.2728 68.3445 97.17 68.3969 97.1443 68.2396C97.1443 68.1348 97.17 68.0824 97.2728 68.0824C97.5556 68.0824 97.8127 68.0824 98.0954 68.0824C98.1982 68.0824 98.2496 68.1086 98.3268 68.1872C99.2522 69.3404 100.178 70.4936 101.129 71.6467C101.154 71.6991 101.206 71.7254 101.231 71.7778C101.283 71.7516 101.257 71.6991 101.257 71.6729C101.257 70.7818 101.257 69.8908 101.257 68.9997C101.257 68.8424 101.257 68.6852 101.206 68.5017C101.18 68.3707 101.103 68.3183 100.974 68.3183C100.923 68.3183 100.846 68.3183 100.769 68.3183C100.64 68.3445 100.615 68.2921 100.615 68.161C100.615 68.0824 100.64 68.0562 100.717 68.0562C101.103 68.0562 101.489 68.0562 101.874 68.0562C101.977 68.0562 101.977 68.1086 101.977 68.1872C101.977 68.2396 102.003 68.3183 101.9 68.3183C101.54 68.3183 101.54 68.3445 101.54 68.6852C101.54 70.048 101.54 71.4108 101.54 72.7475C101.54 72.7999 101.566 72.8785 101.489 72.9047C101.411 72.9309 101.386 72.8523 101.36 72.8261C100.949 72.3281 100.537 71.8302 100.152 71.3584C99.4835 70.5722 98.8152 69.7335 98.0954 68.8686Z" fill="#393737"/>
<path d="M31.445 68.1086C32.0105 68.1086 32.576 68.1086 33.1416 68.1086C33.2701 68.1086 33.3215 68.1086 33.2958 68.2658C33.2701 68.3969 33.2701 68.5541 33.2444 68.6852C33.2444 68.7376 33.2187 68.8162 33.1416 68.8162C33.0644 68.8162 33.0644 68.7638 33.0644 68.7114C33.0387 68.6065 32.9616 68.5803 32.8845 68.5279C32.6789 68.4493 32.4475 68.4231 32.2419 68.4231C31.8563 68.3969 31.4707 68.4231 31.0851 68.3969C30.9309 68.3969 30.9052 68.4231 30.9052 68.5803C30.9052 69.0521 30.9052 69.55 30.9052 70.0218C30.9052 70.1266 30.9309 70.1528 31.0337 70.1528C31.4964 70.1266 31.9591 70.179 32.3961 70.1266C32.756 70.0742 32.7303 69.9956 32.7303 69.7597C32.7303 69.6549 32.7303 69.6025 32.8588 69.6025C32.9359 69.6025 32.9616 69.6287 32.9616 69.7073C32.9616 70.0742 32.9616 70.4411 32.9616 70.808C32.9616 70.9129 32.9102 70.9129 32.8331 70.9129C32.756 70.9129 32.7303 70.9129 32.7303 70.808C32.7303 70.4673 32.7303 70.4673 32.3704 70.4411C31.9334 70.4149 31.4707 70.4411 31.0337 70.4411C30.9823 70.4411 30.9052 70.4149 30.9309 70.5198C30.9309 71.0963 30.9052 71.6991 30.9566 72.2757C30.9566 72.3543 30.9823 72.4068 30.9823 72.4854C31.008 72.564 31.0594 72.6426 31.1622 72.6426C31.7278 72.6426 32.2676 72.6688 32.8074 72.564C33.0387 72.5116 33.2701 72.4592 33.3729 72.2233C33.3986 72.1971 33.4243 72.1709 33.4757 72.1709C33.5271 72.1971 33.5271 72.2233 33.5271 72.2757C33.5014 72.4854 33.4243 72.695 33.3472 72.9047C33.3215 72.9571 33.2701 72.9309 33.2187 72.9309C32.2162 72.9309 31.2393 72.9309 30.2368 72.9309C30.134 72.9309 30.0312 72.9309 29.9284 72.9309C29.8512 72.9309 29.7998 72.9047 29.7998 72.8261C29.7998 72.7475 29.8255 72.695 29.9284 72.695C30.2625 72.695 30.2625 72.695 30.2625 72.3543C30.2625 71.2536 30.2625 70.1266 30.2625 69.0259C30.2625 68.8686 30.2625 68.7376 30.2111 68.5803C30.1854 68.4493 30.134 68.3969 30.0055 68.3969C29.9027 68.3969 29.8255 68.3969 29.7227 68.3969C29.6199 68.3969 29.6199 68.3707 29.6199 68.2658C29.6199 68.1872 29.6199 68.1348 29.7227 68.1348C30.2625 68.1086 30.8538 68.1086 31.445 68.1086Z" fill="#393737"/>
<path d="M73.6479 71.1225C73.4166 71.1225 73.1852 71.1225 72.9282 71.1225C72.8511 71.1225 72.7997 71.1487 72.774 71.2274C72.6454 71.5943 72.5169 71.935 72.4141 72.3019C72.3884 72.3805 72.3884 72.433 72.3884 72.5116C72.3884 72.6164 72.4398 72.6688 72.5426 72.6688C72.6711 72.6688 72.7997 72.6688 72.9539 72.6688C73.0567 72.6688 73.031 72.7475 73.031 72.7999C73.031 72.8523 73.0567 72.9309 72.9539 72.9047C72.5169 72.9047 72.0542 72.9047 71.6172 72.9047C71.5144 72.9047 71.5401 72.8523 71.5401 72.7999C71.5401 72.7475 71.5144 72.6688 71.6429 72.6688C71.8743 72.695 71.9514 72.5902 72.0542 72.3805C72.6454 70.9653 73.2367 69.55 73.8022 68.1348C73.8279 68.1086 73.8279 68.0562 73.8793 68.0562C74.0078 68.03 74.1106 68.0037 74.2392 67.9775C74.2906 67.9775 74.3163 67.9513 74.342 68.0037C74.3677 68.0562 74.342 68.0824 74.3163 68.1086C74.2135 68.1872 74.2135 68.3182 74.2392 68.4231C74.3934 68.9997 74.5991 69.5762 74.8047 70.1528C75.0618 70.8605 75.3188 71.5943 75.5759 72.3019C75.5759 72.3281 75.6016 72.3543 75.6016 72.3805C75.6787 72.5902 75.8072 72.695 76.0386 72.6426C76.1414 72.6164 76.1671 72.6688 76.1671 72.7737C76.1671 72.8785 76.1157 72.8785 76.0386 72.8785C75.5502 72.8785 75.0875 72.8785 74.5991 72.8785C74.4962 72.8785 74.4705 72.8523 74.4962 72.7737C74.4962 72.695 74.4962 72.6426 74.6248 72.6426C74.7019 72.6426 74.8047 72.6426 74.8818 72.6426C74.9846 72.6426 75.0103 72.6164 74.9846 72.5116C74.8304 72.066 74.6762 71.6205 74.5219 71.175C74.4962 71.0963 74.4448 71.0963 74.3934 71.0963C74.1621 71.1225 73.905 71.1225 73.6479 71.1225ZM73.7508 68.8686C73.4937 69.5238 73.2109 70.179 72.9539 70.8342C73.4166 70.8342 73.8793 70.8342 74.3163 70.8342C74.3934 70.8342 74.3677 70.7818 74.3677 70.7294C74.2906 70.5197 74.2135 70.2839 74.1621 70.0742C74.0078 69.6549 73.8793 69.2617 73.7508 68.8686Z" fill="#393737"/>
<path d="M107.117 71.1225C106.86 71.1225 106.629 71.1225 106.372 71.1225C106.295 71.1225 106.269 71.1487 106.243 71.2012C106.14 71.5419 105.986 71.8826 105.909 72.2233C105.909 72.2495 105.883 72.2757 105.883 72.3281C105.832 72.6164 105.883 72.6688 106.14 72.6688C106.217 72.6688 106.295 72.6688 106.372 72.6688C106.5 72.6426 106.526 72.695 106.526 72.8261C106.526 72.9047 106.5 72.9309 106.423 72.9309C105.986 72.9309 105.549 72.9309 105.112 72.9309C105.009 72.9309 105.009 72.8785 105.009 72.8261C105.009 72.7737 104.984 72.6688 105.086 72.695C105.318 72.7213 105.421 72.5902 105.498 72.4067C105.986 71.2012 106.475 70.0218 106.989 68.8162C107.066 68.6065 107.169 68.3969 107.246 68.161C107.271 68.1086 107.297 68.0824 107.349 68.0562C107.451 68.03 107.554 68.0037 107.683 67.9775C107.734 67.9775 107.76 67.9513 107.786 68.0037C107.811 68.0562 107.811 68.1086 107.76 68.1348C107.657 68.2134 107.657 68.3182 107.683 68.4231C107.888 69.2355 108.171 69.9956 108.454 70.7818C108.634 71.306 108.839 71.8302 109.019 72.3543C109.097 72.5902 109.225 72.7213 109.482 72.695C109.585 72.6688 109.585 72.7475 109.585 72.8261C109.585 72.9047 109.585 72.9571 109.482 72.9571C108.994 72.9571 108.505 72.9571 108.017 72.9571C107.914 72.9571 107.94 72.9047 107.94 72.8261C107.94 72.7475 107.94 72.695 108.043 72.695C108.145 72.695 108.223 72.695 108.325 72.695C108.428 72.695 108.454 72.6426 108.428 72.564C108.274 72.1185 108.12 71.6729 107.965 71.2274C107.94 71.175 107.914 71.175 107.863 71.175C107.606 71.1225 107.349 71.1225 107.117 71.1225ZM106.372 70.808C106.834 70.808 107.271 70.808 107.734 70.808C107.811 70.808 107.811 70.7818 107.786 70.7032C107.708 70.4935 107.657 70.2839 107.58 70.0742C107.451 69.6811 107.323 69.2617 107.169 68.8424C106.912 69.5238 106.654 70.1528 106.372 70.808Z" fill="#393737"/>
<path d="M62.4195 68.1086C62.985 68.1086 63.5762 68.1086 64.1418 68.1086C64.2446 68.1086 64.2703 68.1348 64.2446 68.2396C64.2189 68.3969 64.1932 68.5541 64.1675 68.7114C64.1675 68.7638 64.1418 68.8162 64.0646 68.8162C63.9875 68.8162 63.9875 68.7638 63.9875 68.7114C63.9618 68.5803 63.859 68.5541 63.7819 68.5279C63.4991 68.4231 63.2164 68.4231 62.9336 68.4231C62.6251 68.4231 62.3167 68.4231 62.0082 68.4231C61.8797 68.4231 61.8283 68.4755 61.8283 68.6065C61.8283 69.1045 61.8283 69.5763 61.8283 70.0742C61.8283 70.1266 61.8026 70.2053 61.9054 70.179C62.3681 70.1528 62.8565 70.2053 63.3192 70.1528C63.3706 70.1528 63.4477 70.1266 63.4991 70.1266C63.5762 70.1004 63.6277 70.048 63.6277 69.9432C63.6277 69.8908 63.6277 69.8383 63.6277 69.7859C63.6277 69.7073 63.6277 69.6549 63.7305 69.6287C63.859 69.6287 63.859 69.6811 63.859 69.7859C63.859 70.1266 63.859 70.4673 63.859 70.808C63.859 70.9129 63.8333 70.9129 63.7562 70.9391C63.6534 70.9391 63.6534 70.9129 63.6534 70.808C63.6534 70.4673 63.6276 70.4673 63.2935 70.4673C62.8565 70.4411 62.3938 70.4673 61.9568 70.4411C61.854 70.4411 61.8283 70.4673 61.8283 70.5722C61.8283 71.0963 61.8283 71.6205 61.8283 72.1447C61.8283 72.2757 61.854 72.4068 61.8797 72.5378C61.9054 72.6426 61.9568 72.6688 62.0596 72.6688C62.1367 72.6688 62.2396 72.6688 62.3167 72.6688C62.4195 72.6688 62.4452 72.695 62.4452 72.7999C62.4452 72.9047 62.3938 72.9047 62.3167 72.9047C61.8283 72.9047 61.3399 72.9047 60.8514 72.9047C60.7486 72.9047 60.7229 72.8785 60.7229 72.7737C60.7229 72.6688 60.7486 72.6426 60.8514 72.6426C61.1856 72.6426 61.1856 72.6426 61.1856 72.3019C61.1856 71.306 61.1856 70.2839 61.1856 69.288C61.1856 69.0783 61.1856 68.8686 61.1599 68.659C61.1342 68.4231 61.0828 68.3707 60.8514 68.3707C60.8 68.3707 60.7229 68.3707 60.6715 68.3707C60.5687 68.3969 60.543 68.3445 60.543 68.2396C60.543 68.1348 60.5944 68.1348 60.6715 68.1348C61.2627 68.1086 61.8283 68.1086 62.4195 68.1086Z" fill="#393737"/>
<path d="M85.1422 68.1086C85.7077 68.1086 86.299 68.1086 86.8645 68.1086C86.9673 68.1086 86.993 68.1348 86.9673 68.2396C86.9416 68.3969 86.9416 68.5541 86.9159 68.7114C86.9159 68.7638 86.8902 68.8424 86.8131 68.8424C86.736 68.8424 86.736 68.79 86.736 68.7376C86.7103 68.6065 86.5817 68.5541 86.4789 68.5279C86.1961 68.4493 85.9134 68.4231 85.6563 68.4231C85.3479 68.4231 85.0651 68.4231 84.7566 68.4231C84.6024 68.4231 84.5767 68.4493 84.5767 68.6065C84.5767 69.1045 84.5767 69.5763 84.5767 70.0742C84.5767 70.1266 84.551 70.179 84.6538 70.179C85.1165 70.179 85.5792 70.2053 86.0419 70.1528C86.4275 70.1266 86.4275 70.0218 86.4018 69.7335C86.4018 69.6549 86.4275 69.6287 86.5046 69.6287C86.6074 69.6287 86.6074 69.6811 86.6074 69.7597C86.6074 70.1004 86.6074 70.4673 86.6074 70.808C86.6074 70.8867 86.6074 70.9391 86.5046 70.9129C86.4275 70.9129 86.4018 70.9129 86.4018 70.808C86.4018 70.4673 86.3761 70.4673 86.0419 70.4411C85.5792 70.4149 85.1422 70.4411 84.6795 70.4411C84.6281 70.4411 84.5767 70.4149 84.5767 70.5198C84.5767 71.1488 84.551 71.7515 84.6024 72.3805C84.6281 72.695 84.6538 72.6951 84.9623 72.6951C84.988 72.6951 85.0394 72.6951 85.0651 72.6951C85.1679 72.6688 85.2193 72.7213 85.1936 72.8261C85.1936 72.9047 85.1679 72.9309 85.0908 72.9309C84.5767 72.9309 84.0626 72.9309 83.5742 72.9309C83.4714 72.9309 83.4713 72.8785 83.4713 72.8261C83.4713 72.7475 83.4714 72.6951 83.5742 72.6951C83.6256 72.6951 83.7027 72.6951 83.7541 72.6951C83.8826 72.7213 83.9341 72.6426 83.9341 72.5116C83.9341 71.7515 83.9341 70.9915 83.9341 70.2577C83.9341 69.7335 83.9598 69.2093 83.9083 68.6852C83.8826 68.4493 83.8569 68.3969 83.5999 68.3969C83.5485 68.3969 83.4714 68.3969 83.4199 68.3969C83.3171 68.4231 83.2914 68.3707 83.2914 68.2658C83.2914 68.161 83.3171 68.161 83.4199 68.161C83.9855 68.1086 84.551 68.1086 85.1422 68.1086Z" fill="#393737"/>
<path d="M51.1333 70.5198C51.2361 70.3363 51.3132 70.179 51.3903 70.0218C51.6217 69.5763 51.8787 69.1307 52.0844 68.659C52.1101 68.6327 52.1101 68.6065 52.1101 68.5803C52.1615 68.4231 52.1358 68.3969 51.9815 68.3969C51.8787 68.3969 51.7759 68.3969 51.6988 68.3969C51.596 68.3969 51.5703 68.3707 51.5703 68.2658C51.5703 68.1872 51.596 68.1348 51.6731 68.1348C52.0587 68.1348 52.4442 68.1348 52.8041 68.1348C52.9069 68.1348 52.9069 68.1872 52.9069 68.2396C52.9069 68.3183 52.9069 68.3969 52.8041 68.3707C52.5985 68.3445 52.5214 68.4493 52.4185 68.6065C52.033 69.3404 51.6474 70.048 51.2618 70.7556C51.2361 70.7818 51.2104 70.8343 51.2361 70.8605C51.2361 71.3322 51.2104 71.8302 51.2618 72.3019C51.2618 72.3543 51.2618 72.4068 51.2875 72.4592C51.3132 72.5902 51.3646 72.6688 51.5188 72.6426C51.596 72.6426 51.6988 72.6426 51.7759 72.6426C51.8787 72.6426 51.8787 72.695 51.8787 72.7737C51.8787 72.8523 51.8787 72.9047 51.7759 72.8785C51.2618 72.8785 50.7477 72.8785 50.2593 72.8785C50.1564 72.8785 50.1564 72.8261 50.1564 72.7475C50.1564 72.6688 50.1564 72.6164 50.2593 72.6164C50.285 72.6164 50.285 72.6164 50.3107 72.6164C50.6191 72.6164 50.6191 72.6688 50.6191 72.3019C50.6191 71.8564 50.6191 71.3846 50.6191 70.9391C50.6191 70.8867 50.6191 70.8343 50.5934 70.7818C50.1821 70.048 49.7966 69.3142 49.3596 68.6065L49.3339 68.5803C49.231 68.3969 49.1025 68.3183 48.8969 68.3445C48.7683 68.3707 48.7426 68.3183 48.7426 68.1872C48.7426 68.1086 48.7683 68.1086 48.8455 68.1086C49.3339 68.1086 49.848 68.1086 50.3364 68.1086C50.4392 68.1086 50.4392 68.1348 50.4392 68.2134C50.4392 68.292 50.4649 68.3707 50.3364 68.3445C50.2593 68.3445 50.1822 68.3445 50.105 68.3445C50.0022 68.3445 49.9765 68.3707 50.0279 68.4755C50.2336 68.8424 50.4135 69.2093 50.6191 69.55C50.7734 69.8645 50.9276 70.179 51.1333 70.5198Z" fill="#393737"/>
<path d="M46.1225 70.4935C46.1225 69.8383 46.1225 69.1831 46.1225 68.5017C46.1225 68.3969 46.0968 68.3707 45.9939 68.3707C45.6341 68.3707 45.2999 68.3707 44.9657 68.4755C44.8115 68.5279 44.6572 68.5803 44.5801 68.7638C44.5544 68.8162 44.5287 68.8686 44.4516 68.8424C44.3745 68.8162 44.4002 68.7638 44.4002 68.7114C44.4516 68.5279 44.5287 68.3445 44.5801 68.161C44.6058 68.0824 44.6572 68.0824 44.7087 68.0824C45.0942 68.0824 45.4541 68.0824 45.8397 68.0824C46.6109 68.0824 47.382 68.0824 48.1789 68.0824C48.2817 68.0824 48.3074 68.1086 48.3331 68.1872C48.3846 68.3707 48.436 68.5279 48.4874 68.7114C48.5131 68.7638 48.5131 68.8162 48.436 68.8424C48.3588 68.8686 48.3331 68.8424 48.3074 68.7638C48.256 68.5803 48.1018 68.5017 47.9476 68.4755C47.5877 68.3707 47.2021 68.3445 46.8165 68.3445C46.7137 68.3445 46.7651 68.4231 46.7651 68.4755C46.7651 69.1831 46.7651 69.8908 46.7651 70.5984C46.7651 71.175 46.7394 71.7253 46.7908 72.3019C46.7908 72.3543 46.8165 72.4067 46.8165 72.4592C46.8422 72.5902 46.8936 72.6426 47.0222 72.6164C47.1507 72.6164 47.2792 72.6164 47.4334 72.6164C47.5363 72.6164 47.562 72.6426 47.5363 72.7475C47.5363 72.8261 47.5363 72.8785 47.4334 72.8785C46.8165 72.8785 46.1739 72.8785 45.5569 72.8785C45.4541 72.8785 45.4541 72.8261 45.4541 72.7475C45.4541 72.6688 45.4284 72.6164 45.5569 72.6164C45.6855 72.6164 45.8397 72.6164 45.9682 72.6164C46.0968 72.6164 46.1225 72.564 46.1225 72.4592C46.1225 71.8302 46.1225 71.175 46.1225 70.4935Z" fill="#393737"/>
<path d="M78.4305 72.9047C77.8906 72.9047 77.3251 72.9047 76.7853 72.9047C76.7082 72.9047 76.6568 72.9047 76.6568 72.7999C76.6568 72.7213 76.6568 72.6689 76.7853 72.6689C77.1195 72.6689 77.1195 72.6688 77.1195 72.3281C77.1195 71.2012 77.1195 70.0742 77.1195 68.9735C77.1195 68.8162 77.0938 68.6852 77.068 68.5541C77.0423 68.4493 76.9909 68.3969 76.8881 68.3969C76.811 68.3969 76.7082 68.3969 76.6311 68.3969C76.5025 68.4231 76.4768 68.3707 76.4768 68.2396C76.4768 68.161 76.5025 68.1348 76.5796 68.1348C77.0938 68.1348 77.6079 68.1348 78.0963 68.1348C78.1991 68.1348 78.1991 68.1872 78.1991 68.2658C78.1991 68.3183 78.2248 68.3969 78.0963 68.3969C78.0449 68.3969 77.9935 68.3969 77.942 68.3969C77.7621 68.3969 77.7364 68.4231 77.7364 68.6066C77.7364 69.6549 77.7364 70.677 77.7364 71.7254C77.7364 71.9612 77.7364 72.1971 77.7878 72.4068C77.8135 72.5902 77.8649 72.6426 78.0706 72.6426C78.5847 72.6426 79.1245 72.6689 79.6386 72.564C79.87 72.5116 80.1013 72.4592 80.2298 72.2233C80.2555 72.1971 80.2812 72.1709 80.3327 72.1971C80.3841 72.2233 80.3841 72.2757 80.3584 72.3019C80.3327 72.4592 80.2555 72.6164 80.2298 72.7737C80.2041 72.9309 80.127 72.9571 79.9728 72.9571C79.4844 72.8785 78.9446 72.9047 78.4305 72.9047Z" fill="#393737"/>
<path d="M23.4212 72.9047C23.1641 72.9047 22.9071 72.9047 22.65 72.9047C22.5472 72.9047 22.5472 72.8785 22.5472 72.7999C22.5472 72.7213 22.5215 72.6426 22.65 72.6688C22.7014 72.6688 22.7785 72.6688 22.83 72.6688C23.0099 72.6688 23.0099 72.6426 23.0099 72.4854C23.0099 71.935 23.0099 71.3584 23.0099 70.808C23.0099 70.179 23.0099 69.5238 22.9842 68.8948V68.8686C22.9585 68.4231 22.9328 68.3969 22.4958 68.3969C22.393 68.3969 22.3158 68.3969 22.3415 68.2396C22.3415 68.161 22.3673 68.161 22.4444 68.161C22.9585 68.161 23.4726 68.161 23.961 68.161C24.0638 68.161 24.0638 68.2134 24.0638 68.292C24.0638 68.3707 24.0638 68.4231 23.961 68.4231C23.6268 68.4231 23.6268 68.4493 23.6268 68.79C23.6268 69.917 23.6268 71.0439 23.6268 72.1709C23.6268 72.3019 23.6525 72.433 23.6782 72.564C23.7039 72.6688 23.7554 72.7475 23.8839 72.7212C23.9867 72.7212 24.0895 72.7212 24.1666 72.7212C24.2695 72.7212 24.2438 72.7999 24.2438 72.8523C24.2438 72.9047 24.2438 72.9571 24.1666 72.9571C23.9353 72.9047 23.6782 72.9047 23.4212 72.9047Z" fill="#393737"/>
<path d="M81.7248 72.9047C81.4678 72.9047 81.2107 72.9047 80.9536 72.9047C80.8508 72.9047 80.8508 72.8523 80.8508 72.7737C80.8508 72.695 80.8508 72.6426 80.9536 72.6426H80.9793C81.3135 72.6426 81.3135 72.6426 81.3135 72.3019C81.3135 71.2798 81.3135 70.2577 81.3135 69.2617C81.3135 69.0521 81.3135 68.8686 81.2878 68.659C81.2621 68.3707 81.2364 68.3445 80.9536 68.3445C80.9022 68.3445 80.8508 68.3445 80.7994 68.3445C80.6709 68.3445 80.6195 68.2658 80.6452 68.1348C80.6709 68.0824 80.6966 68.0824 80.7223 68.0824C81.2621 68.0824 81.7762 68.0824 82.316 68.0824C82.3932 68.0824 82.3932 68.1348 82.3932 68.1872C82.3932 68.2396 82.4446 68.3182 82.3417 68.3182C82.2646 68.3182 82.1618 68.3182 82.0847 68.3182C82.0076 68.3182 81.9562 68.3445 81.9562 68.4231C81.9562 68.4755 81.9562 68.5279 81.9562 68.5541C81.9562 69.4976 81.9562 70.4673 81.9562 71.4108C81.9562 71.6991 81.9819 71.9874 81.9819 72.2757C81.9819 72.3543 82.0076 72.4067 82.0333 72.4854C82.059 72.564 82.1104 72.6164 82.1875 72.6164C82.2646 72.6164 82.3674 72.6164 82.4446 72.6164C82.5731 72.6164 82.6245 72.695 82.5988 72.8261C82.5731 72.8785 82.5217 72.8523 82.496 72.8523C82.2132 72.9047 81.9562 72.9047 81.7248 72.9047Z" fill="#393737"/>
<path d="M103.314 70.7294C103.314 70.1528 103.314 69.6025 103.314 69.0259C103.314 68.8686 103.314 68.6852 103.263 68.5279C103.237 68.4231 103.186 68.3445 103.057 68.3707C102.98 68.3707 102.877 68.3707 102.8 68.3707C102.672 68.3969 102.646 68.3445 102.672 68.2134C102.672 68.1348 102.697 68.1086 102.775 68.1086C103.289 68.1086 103.803 68.1086 104.317 68.1086C104.42 68.1086 104.42 68.161 104.42 68.2396C104.42 68.3183 104.42 68.3707 104.317 68.3707C104.291 68.3707 104.265 68.3707 104.24 68.3707C103.957 68.3707 103.957 68.3707 103.957 68.659C103.957 69.7073 103.957 70.7556 103.957 71.804C103.957 72.0398 103.957 72.2757 104.008 72.5116C104.034 72.6164 104.085 72.695 104.214 72.6688C104.291 72.6688 104.368 72.6688 104.445 72.6688C104.574 72.6688 104.625 72.7475 104.574 72.8785C104.548 72.9309 104.522 72.9047 104.497 72.9047C103.983 72.9047 103.443 72.9047 102.929 72.9047C102.826 72.9047 102.852 72.8523 102.852 72.7999C102.852 72.7475 102.826 72.6688 102.929 72.6688C103.006 72.6688 103.083 72.6688 103.16 72.6688C103.289 72.6688 103.314 72.6164 103.314 72.4854C103.289 71.9088 103.314 71.306 103.314 70.7294Z" fill="#393737"/>
<path d="M42.8837 68.1086C43.1408 68.1086 43.3721 68.1086 43.6292 68.1086C43.732 68.1086 43.732 68.1348 43.732 68.2134C43.732 68.292 43.7577 68.3445 43.6292 68.3445C43.295 68.3445 43.295 68.3445 43.295 68.7114C43.295 69.7597 43.295 70.808 43.295 71.8564C43.295 72.0398 43.295 72.2233 43.3207 72.3805C43.3464 72.5902 43.3978 72.6426 43.6035 72.6426C43.6549 72.6426 43.732 72.6426 43.7834 72.6426C43.8862 72.6164 43.9376 72.6688 43.9119 72.7737C43.9119 72.8523 43.8862 72.8785 43.8091 72.8785C43.295 72.8785 42.7809 72.8785 42.2925 72.8785C42.1897 72.8785 42.1897 72.8261 42.1897 72.7737C42.1897 72.695 42.1897 72.6426 42.2925 72.6426C42.3439 72.6426 42.421 72.6426 42.4724 72.6426C42.601 72.6688 42.6524 72.5902 42.6524 72.4592C42.6524 71.7253 42.6524 70.9915 42.6524 70.2577C42.6524 69.7073 42.6781 69.1569 42.6267 68.6328C42.601 68.3969 42.5753 68.3445 42.3182 68.3445C42.2668 68.3445 42.2154 68.3445 42.164 68.3445C42.0354 68.3707 42.0097 68.3183 42.0097 68.1872C42.0097 68.1086 42.0354 68.1086 42.1125 68.1086C42.3696 68.1086 42.6267 68.1086 42.8837 68.1086Z" fill="#393737"/>
</svg>
