<svg width="120" height="120" viewBox="0 0 120 120" fill="none" xmlns="http://www.w3.org/2000/svg">
<path fill-rule="evenodd" clip-rule="evenodd" d="M22.4693 73.2836C29.7273 73.2836 35.6111 67.3998 35.6111 60.1418C35.6111 52.8838 29.7273 47 22.4693 47C15.2113 47 9.32748 52.8838 9.32748 60.1418C9.32748 67.3998 15.2113 73.2836 22.4693 73.2836ZM22.4693 74.2836C30.2796 74.2836 36.6111 67.9521 36.6111 60.1418C36.6111 52.3315 30.2796 46 22.4693 46C14.659 46 8.32748 52.3315 8.32748 60.1418C8.32748 67.9521 14.659 74.2836 22.4693 74.2836Z" fill="#393737"/>
<path fill-rule="evenodd" clip-rule="evenodd" d="M11.0378 50.6823C10.3486 50.8632 9.63088 51.0671 9.44291 51.1353C8.93345 51.3206 10.9077 52.1616 22.316 56.6208C35.2972 61.6945 36.485 62.1444 36.9035 62.1444C37.0922 62.1444 37.9775 61.6135 38.8707 60.9645L40.495 59.7847L38.4685 59.1487C37.3539 58.7989 36.4164 58.5106 36.3852 58.5081C36.3539 58.5056 36.3282 58.6472 36.3282 58.8226C36.3282 59.0638 35.5905 58.9054 33.3093 58.1748C18.7801 53.521 12.0455 51.3445 11.9496 51.2712C11.887 51.2236 12.0152 51.0539 12.2344 50.8939C12.6439 50.5949 12.7648 50.2959 12.4618 50.3326C12.3679 50.3439 11.727 50.5012 11.0378 50.6823ZM21.7486 50.5148C21.3813 50.617 21.2768 50.7314 21.4522 50.8398C21.601 50.9317 24.5151 52.0282 27.9275 53.2766C33.1412 55.1839 34.1936 55.5009 34.5159 55.2615C36.3138 53.9265 37.9179 52.4947 37.7661 52.36C37.5845 52.1987 33.996 51.4491 33.4077 51.4494C33.1995 51.4496 33.2544 51.6557 33.5866 52.1218L34.0657 52.7939L33.5355 53.141C33.0402 53.465 32.6643 53.3828 27.8491 51.8999C25.0131 51.0263 22.608 50.3221 22.5044 50.3346C22.4007 50.3471 22.0608 50.4281 21.7486 50.5148ZM51.5357 57.309C52.085 59.4054 52.5758 61.2485 52.6264 61.4048C52.6904 61.6028 53.3065 61.6893 54.6535 61.6893H56.5885L56.8446 60.7222C57.5236 58.1593 57.9706 56.6097 58.0556 56.5248C58.1071 56.4736 58.3705 57.1793 58.6409 58.0933C58.9112 59.0074 59.2561 60.1647 59.4072 60.6653L59.6819 61.5755L63.4167 61.7072L63.8667 60.1624C64.1142 59.3125 64.5844 57.6191 64.9114 56.399C65.2385 55.1786 65.565 54.0268 65.6373 53.8391C65.7462 53.5553 65.4976 53.4975 64.1697 53.4975H62.5707L62.0948 55.5628C61.8328 56.6984 61.6186 57.7736 61.6186 57.952C61.6186 58.1302 61.5318 58.276 61.4256 58.276C61.3197 58.276 60.9474 57.2009 60.5986 55.8868L59.9645 53.4975H56.4375L55.8034 55.8868C55.4546 57.2009 55.0823 58.276 54.9763 58.276C54.8702 58.276 54.7834 58.1302 54.7834 57.952C54.7834 57.7736 54.5692 56.6984 54.3072 55.5628L53.8312 53.4975H50.5371L51.5357 57.309ZM67.895 54.2371C66.84 56.7703 65.0362 61.3602 65.0362 61.5104C65.0362 61.6087 65.7897 61.6893 66.7104 61.6893H68.3848L69.1007 59.8689H72.0499L72.7792 61.6893H74.4518C75.3718 61.6893 76.1763 61.6376 76.2394 61.5743C76.3027 61.5113 75.6324 59.6682 74.7498 57.4785L73.1453 53.4975H68.2028L67.895 54.2371ZM76.9979 61.5755H84.7445L84.8824 59.1862H80.5294V53.4975H76.8735L76.9979 61.5755ZM85.6559 61.5755H89.0735L89.3013 58.2248L91.5798 61.5755L93.5734 61.6412C94.67 61.6774 95.567 61.6183 95.567 61.5097C95.567 61.4012 94.8531 60.4045 93.981 59.295C92.6647 57.6209 92.4412 57.2173 92.6672 56.9235C92.8169 56.7287 93.3551 56.0574 93.8632 55.4317C95.6037 53.2873 95.657 53.4966 93.3733 53.5048L91.3519 53.5119L89.3013 56.5535L89.1667 53.4975H85.5315L85.6559 61.5755ZM96.5923 61.5755H104.567L104.707 59.6413H99.896V59.0725C99.896 58.5056 99.9035 58.5036 102.06 58.5036H104.225V56.4557H102.045C99.9137 56.4557 99.8659 56.444 99.937 55.9437C100.006 55.4581 100.124 55.4283 102.231 55.3666L104.453 55.3015V53.4975H96.4679L96.5923 61.5755ZM105.706 61.5755H109.076L109.124 58.8449L109.889 58.8811C110.886 58.9284 111.057 59.1282 111.247 60.4635L111.406 61.5755L112.976 61.6435C115.172 61.7386 115.19 61.7257 114.819 60.3233C114.455 58.9446 113.915 58.0485 113.447 58.0485C112.913 58.0485 113.069 57.7447 113.855 57.2507C115.29 56.3489 115.258 54.6298 113.792 53.8962C113.133 53.5662 112.363 53.4982 109.289 53.498L105.582 53.4975L105.706 61.5755ZM71.1656 56.6263L71.637 57.8209H70.6149C70.0528 57.8209 69.5931 57.7823 69.5931 57.7349C69.5931 57.6876 69.7318 57.3037 69.9011 56.8816C70.0706 56.4595 70.2782 55.9205 70.3622 55.6836C70.5564 55.1368 70.5962 55.1834 71.1656 56.6263ZM111.174 56.1143C111.174 56.7674 111.127 56.7999 110.092 56.8664L109.01 56.9358V55.2929L110.092 55.3623C111.127 55.4287 111.174 55.4613 111.174 56.1143ZM8.53154 56.0349C8.09295 56.1564 7.32398 56.3635 6.82273 56.495L5.91137 56.7339L7.05057 57.1651C7.67714 57.4023 8.37069 57.6997 8.59169 57.8264C9.24856 58.2023 32.0293 67.0014 34.4651 67.8201L35.906 68.3043L37.8304 66.8808C40.0024 65.2741 40.0504 65.4424 37.1924 64.6503C35.6777 64.2305 35.6631 64.2307 35.52 64.6811C35.4273 64.9726 35.2498 65.0872 35.0247 65.0008C34.8317 64.9268 33.0723 64.3705 31.115 63.7643C29.1578 63.1581 23.423 61.3495 18.3713 59.7453C9.45225 56.913 9.19023 56.8134 9.31896 56.3009C9.39187 56.0106 9.424 55.7823 9.39028 55.7935C9.35656 55.8049 8.97014 55.9134 8.53154 56.0349ZM5 63.0049L6.13921 63.511C6.76577 63.7893 8.09864 64.4 9.10115 64.8681C10.7482 65.6372 25.8521 72.0903 29.1245 73.423L30.4649 73.9689L32.4813 72.5506C33.5905 71.7708 34.4995 71.072 34.5016 70.9978C34.5039 70.9238 34.0698 70.74 33.5371 70.5891C33.0044 70.4385 32.3638 70.2248 32.1131 70.1145C31.5718 69.8762 29.2929 69.161 24.4804 67.7193C22.5381 67.1374 20.1799 66.4218 19.2401 66.1292C16.7206 65.3446 12.5185 64.0692 10.6844 63.5324C9.4461 63.1699 9.02824 62.9387 8.86168 62.5235L8.64546 61.9846L5 63.0049Z" fill="#393737"/>
<path d="M53.6756 68.4605C53.2731 68.4605 52.9124 68.3604 52.5934 68.16C52.2793 67.9597 52.0314 67.6714 51.8498 67.2952C51.6731 66.919 51.5848 66.4768 51.5848 65.9686C51.5848 65.4653 51.6756 65.0256 51.8572 64.6493C52.0388 64.2682 52.2915 63.9775 52.6155 63.7771C52.9394 63.5719 53.305 63.4693 53.7124 63.4693C53.9823 63.4693 54.2302 63.5255 54.4559 63.6379C54.6817 63.7503 54.8706 63.8895 55.0228 64.0557L54.721 64.4148C54.4412 64.1021 54.1075 63.9457 53.7197 63.9457C53.4056 63.9457 53.1308 64.0288 52.8952 64.1949C52.6596 64.3562 52.4756 64.5882 52.3431 64.8912C52.2155 65.1892 52.1517 65.5435 52.1517 65.9539C52.1517 66.3644 52.213 66.7235 52.3357 67.0313C52.4633 67.3343 52.6425 67.5688 52.8731 67.7349C53.1087 67.9011 53.3835 67.9841 53.6977 67.9841C53.9234 67.9841 54.1271 67.9377 54.3087 67.8449C54.4952 67.752 54.6743 67.6128 54.8461 67.4271L55.1479 67.7643C54.9516 67.9939 54.7332 68.1674 54.4927 68.2846C54.2522 68.4019 53.9799 68.4605 53.6756 68.4605Z" fill="#393737"/>
<path d="M59.5429 68.4605C59.1405 68.4605 58.7846 68.3579 58.4754 68.1527C58.1662 67.9475 57.9233 67.6543 57.7466 67.2732C57.5748 66.8921 57.4889 66.4499 57.4889 65.9466C57.4889 65.4433 57.5748 65.006 57.7466 64.6347C57.9233 64.2584 58.1662 63.9701 58.4754 63.7698C58.7846 63.5695 59.1405 63.4693 59.5429 63.4693C59.9404 63.4693 60.2938 63.5695 60.603 63.7698C60.9122 63.9701 61.1527 64.2584 61.3245 64.6347C61.5011 65.006 61.5895 65.4433 61.5895 65.9466C61.5895 66.4499 61.5011 66.8921 61.3245 67.2732C61.1527 67.6543 60.9122 67.9475 60.603 68.1527C60.2938 68.3579 59.9404 68.4605 59.5429 68.4605ZM59.5429 67.9841C59.8374 67.9841 60.095 67.9011 60.3159 67.7349C60.5416 67.5639 60.7159 67.327 60.8386 67.024C60.9613 66.7162 61.0226 66.357 61.0226 65.9466C61.0226 65.5411 60.9613 65.1892 60.8386 64.8912C60.7159 64.5882 60.5416 64.3562 60.3159 64.1949C60.095 64.0288 59.8374 63.9457 59.5429 63.9457C59.2435 63.9457 58.9809 64.0288 58.7552 64.1949C58.5343 64.3562 58.3625 64.5882 58.2399 64.8912C58.1172 65.1892 58.0558 65.5411 58.0558 65.9466C58.0558 66.357 58.1172 66.7162 58.2399 67.024C58.3625 67.3318 58.5368 67.5688 58.7625 67.7349C58.9883 67.9011 59.2484 67.9841 59.5429 67.9841Z" fill="#393737"/>
<path d="M64.5647 63.5573H65.1242L66.9499 66.6795L67.4799 67.669H67.5094L67.4873 67.3465C67.4824 67.2683 67.4726 67.1046 67.4579 66.8554C67.4431 66.6014 67.4358 66.3717 67.4358 66.1665V63.5573H67.9511V68.3726H67.3916L65.5659 65.2503L65.0358 64.2609H65.0064L65.0284 64.6127C65.0628 65.0378 65.08 65.4116 65.08 65.7341V68.3726H64.5647V63.5573Z" fill="#393737"/>
<path d="M72.5342 68.4605C72.2005 68.4605 71.8889 68.397 71.5993 68.27C71.3146 68.1429 71.0668 67.967 70.8558 67.7423L71.187 67.3685C71.3637 67.559 71.5698 67.7105 71.8054 67.8229C72.041 67.9304 72.2864 67.9841 72.5416 67.9841C72.8704 67.9841 73.1281 67.9084 73.3146 67.7569C73.506 67.6055 73.6017 67.4027 73.6017 67.1486C73.6017 66.9874 73.5674 66.853 73.4986 66.7455C73.4299 66.638 73.3416 66.5525 73.2336 66.489C73.1257 66.4255 72.9735 66.3497 72.7772 66.2618L72.0778 65.9539C71.7932 65.8318 71.5576 65.6754 71.3711 65.4849C71.1895 65.2943 71.0987 65.0402 71.0987 64.7226C71.0987 64.4832 71.1625 64.2682 71.2901 64.0776C71.4177 63.8871 71.5944 63.7381 71.8202 63.6306C72.0508 63.5231 72.306 63.4693 72.5858 63.4693C72.8655 63.4693 73.1257 63.5231 73.3661 63.6306C73.6115 63.7381 73.8201 63.8822 73.9919 64.063L73.6974 64.4075C73.3784 64.0996 73.0079 63.9457 72.5858 63.9457C72.3011 63.9457 72.0729 64.0141 71.9011 64.1509C71.7294 64.2877 71.6435 64.4685 71.6435 64.6933C71.6435 64.8448 71.6827 64.9718 71.7613 65.0744C71.8398 65.177 71.9306 65.2577 72.0336 65.3163C72.1367 65.3749 72.2766 65.4433 72.4533 65.5215L73.1526 65.8293C73.4717 65.9613 73.717 66.125 73.8888 66.3204C74.0655 66.5158 74.1539 66.7797 74.1539 67.112C74.1539 67.366 74.0876 67.5957 73.9551 67.8009C73.8226 68.0061 73.6336 68.1674 73.3882 68.2846C73.1428 68.4019 72.8582 68.4605 72.5342 68.4605Z" fill="#393737"/>
<path d="M78.7202 68.4605C78.2 68.4605 77.7853 68.3017 77.4761 67.9841C77.1669 67.6617 77.0123 67.1413 77.0123 66.423V63.5573H77.557V66.423C77.557 66.98 77.6626 67.3807 77.8736 67.625C78.0846 67.8644 78.3668 67.9841 78.7202 67.9841C79.0834 67.9841 79.373 67.8644 79.5889 67.625C79.8049 67.3807 79.9128 66.98 79.9128 66.423V63.5573H80.4355V66.423C80.4355 67.1413 80.2785 67.6617 79.9644 67.9841C79.6552 68.3017 79.2404 68.4605 78.7202 68.4605Z" fill="#393737"/>
<path d="M83.679 63.5573H84.2238V67.9108H86.3587V68.3726H83.679V63.5573Z" fill="#393737"/>
<path d="M89.269 64.019H87.782V63.5573H91.2935V64.019H89.8138V68.3726H89.269V64.019Z" fill="#393737"/>
<path d="M95.999 66.8554H94.1953L93.7021 68.3726H93.1499L94.8064 63.5573H95.41L97.0591 68.3726H96.4849L95.999 66.8554ZM95.8591 66.423L95.6088 65.6461C95.4125 65.0353 95.2456 64.4905 95.1082 64.0117H95.0787C94.9168 64.6029 94.7524 65.1477 94.5855 65.6461L94.3352 66.423H95.8591Z" fill="#393737"/>
<path d="M99.6804 63.5573H100.24L102.066 66.6795L102.596 67.669H102.625L102.603 67.3465C102.598 67.2683 102.588 67.1046 102.574 66.8554C102.559 66.6014 102.551 66.3717 102.551 66.1665V63.5573H103.067V68.3726H102.507L100.682 65.2503L100.152 64.2609H100.122L100.144 64.6127C100.179 65.0378 100.196 65.4116 100.196 65.7341V68.3726H99.6804V63.5573Z" fill="#393737"/>
<path d="M107.348 64.019H105.861V63.5573H109.373V64.019H107.893V68.3726H107.348V64.019Z" fill="#393737"/>
<path d="M113.187 68.4605C112.854 68.4605 112.542 68.397 112.252 68.27C111.968 68.1429 111.72 67.967 111.509 67.7423L111.84 67.3685C112.017 67.559 112.223 67.7105 112.459 67.8229C112.694 67.9304 112.94 67.9841 113.195 67.9841C113.524 67.9841 113.781 67.9084 113.968 67.7569C114.159 67.6055 114.255 67.4027 114.255 67.1486C114.255 66.9874 114.221 66.853 114.152 66.7455C114.083 66.638 113.995 66.5525 113.887 66.489C113.779 66.4255 113.627 66.3497 113.43 66.2618L112.731 65.9539C112.446 65.8318 112.211 65.6754 112.024 65.4849C111.843 65.2943 111.752 65.0402 111.752 64.7226C111.752 64.4832 111.816 64.2682 111.943 64.0776C112.071 63.8871 112.248 63.7381 112.473 63.6306C112.704 63.5231 112.959 63.4693 113.239 63.4693C113.519 63.4693 113.779 63.5231 114.019 63.6306C114.265 63.7381 114.473 63.8822 114.645 64.063L114.351 64.4075C114.032 64.0996 113.661 63.9457 113.239 63.9457C112.954 63.9457 112.726 64.0141 112.554 64.1509C112.383 64.2877 112.297 64.4685 112.297 64.6933C112.297 64.8448 112.336 64.9718 112.414 65.0744C112.493 65.177 112.584 65.2577 112.687 65.3163C112.79 65.3749 112.93 65.4433 113.106 65.5215L113.806 65.8293C114.125 65.9613 114.37 66.125 114.542 66.3204C114.719 66.5158 114.807 66.7797 114.807 67.112C114.807 67.366 114.741 67.5957 114.608 67.8009C114.476 68.0061 114.287 68.1674 114.041 68.2846C113.796 68.4019 113.511 68.4605 113.187 68.4605Z" fill="#393737"/>
</svg>
