<svg width="32" height="32" viewBox="0 0 32 32" fill="none" xmlns="http://www.w3.org/2000/svg">
<g clip-path="url(#clip0_0_342)">
<path d="M16 0.691406C7.43254 0.691406 0.484863 7.63909 0.484863 16.2066C0.484863 24.774 7.43254 31.7217 16 31.7217C24.5675 31.7217 31.5152 24.774 31.5152 16.2066C31.5152 7.63909 24.5675 0.691406 16 0.691406ZM23.084 12.7885C23.0909 12.9412 23.0942 13.0946 23.0942 13.2487C23.0942 17.9544 19.5124 23.3808 12.9619 23.3811H12.9621H12.9619C10.9508 23.3811 9.07933 22.7916 7.50333 21.7814C7.78198 21.8142 8.0656 21.8306 8.35276 21.8306C10.0213 21.8306 11.5569 21.2615 12.7758 20.3063C11.2169 20.2774 9.90247 19.2477 9.44888 17.8328C9.66597 17.8744 9.88922 17.8971 10.1182 17.8971C10.4432 17.8971 10.758 17.8533 11.0573 17.7717C9.42781 17.4455 8.2003 16.0054 8.2003 14.2809C8.2003 14.2647 8.2003 14.2504 8.20077 14.2355C8.68064 14.5022 9.22942 14.6627 9.8137 14.6807C8.8575 14.0427 8.22894 12.9521 8.22894 11.7165C8.22894 11.0641 8.40532 10.4528 8.71119 9.92652C10.4673 12.0813 13.0919 13.4985 16.0516 13.6473C15.9905 13.3865 15.9591 13.1147 15.9591 12.8353C15.9591 10.8695 17.554 9.2745 19.5206 9.2745C20.545 9.2745 21.4702 9.70746 22.1201 10.3997C22.9313 10.2397 23.6932 9.94329 24.3814 9.53539C24.1151 10.3666 23.5507 11.0641 22.8153 11.5051C23.5357 11.4189 24.2223 11.2279 24.8603 10.9442C24.3838 11.6585 23.7794 12.2859 23.084 12.7885Z" fill="black"/>
</g>
<defs>
<clipPath id="clip0_0_342">
<rect width="32" height="32" fill="white"/>
</clipPath>
</defs>
</svg>
