<svg width="48" height="49" viewBox="0 0 48 49" fill="none" xmlns="http://www.w3.org/2000/svg">
<path fill-rule="evenodd" clip-rule="evenodd" d="M28.1505 13.211C28.1505 10.2563 30.5457 7.86104 33.5005 7.86104C36.4552 7.86104 38.8505 10.2563 38.8505 13.211C38.8505 16.1658 36.4552 18.561 33.5005 18.561C30.5457 18.561 28.1505 16.1658 28.1505 13.211ZM33.5005 5.56104C29.2755 5.56104 25.8505 8.98606 25.8505 13.211C25.8505 17.436 29.2755 20.861 33.5005 20.861C37.7254 20.861 41.1505 17.436 41.1505 13.211C41.1505 8.98606 37.7254 5.56104 33.5005 5.56104ZM24.0005 25.061H24.7363L25.0446 25.7291L34.0446 45.2291L34.7978 46.861H33.0005H12.0005H11.2647L10.9563 46.193L1.95633 26.693L1.20312 25.061H3.00047H24.0005ZM28.4339 38.561L26.2647 33.861H22.0286L24.1978 38.561H28.4339ZM29.4954 40.861H25.2594L26.967 44.561H31.2031L29.4954 40.861ZM21.6647 38.561L19.4954 33.861H15.0286L17.1978 38.561H21.6647ZM18.2594 40.861H22.7262L24.4339 44.561H19.967L18.2594 40.861ZM14.6647 38.561L12.4954 33.861H7.79782L9.96705 38.561H14.6647ZM11.0286 40.861H15.7262L17.4339 44.561H12.7363L11.0286 40.861ZM23.2647 27.361L25.2031 31.561H20.967L19.0286 27.361H23.2647ZM16.4954 27.361L18.4339 31.561H13.967L12.0286 27.361H16.4954ZM9.49543 27.361L11.4339 31.561H6.73629L4.79783 27.361H9.49543ZM21.4255 13.561C22.2125 13.561 22.8505 12.923 22.8505 12.136C22.8505 11.349 22.2125 10.711 21.4255 10.711C20.6385 10.711 20.0005 11.349 20.0005 12.136C20.0005 12.923 20.6385 13.561 21.4255 13.561ZM40.2368 22.5917C40.8558 23.0777 40.9636 23.9735 40.4776 24.5925C39.9915 25.2115 39.0957 25.3193 38.4767 24.8333C37.8577 24.3472 37.7499 23.4514 38.236 22.8324C38.722 22.2134 39.6178 22.1056 40.2368 22.5917ZM14.4255 17.561C15.2125 17.561 15.8505 16.923 15.8505 16.136C15.8505 15.349 15.2125 14.711 14.4255 14.711C13.6385 14.711 13.0005 15.349 13.0005 16.136C13.0005 16.923 13.6385 17.561 14.4255 17.561ZM39.061 30.5682C39.68 31.0543 39.7878 31.9501 39.3018 32.569C38.8157 33.188 37.9199 33.2958 37.301 32.8098C36.682 32.3238 36.5742 31.428 37.0602 30.809C37.5462 30.19 38.442 30.0822 39.061 30.5682ZM7.42548 21.561C8.21249 21.561 8.85047 20.923 8.85047 20.136C8.85047 19.349 8.21249 18.711 7.42548 18.711C6.63847 18.711 6.00047 19.349 6.00047 20.136C6.00047 20.923 6.63847 21.561 7.42548 21.561ZM37.8813 38.5448C38.5003 39.0308 38.6081 39.9266 38.1221 40.5456C37.6361 41.1646 36.7403 41.2724 36.1213 40.7864C35.5023 40.3004 35.3945 39.4046 35.8805 38.7856C36.3665 38.1666 37.2623 38.0588 37.8813 38.5448Z" fill="#4E66FF"/>
</svg>
