<svg width="48" height="49" viewBox="0 0 48 49" fill="none" xmlns="http://www.w3.org/2000/svg">
<path fill-rule="evenodd" clip-rule="evenodd" d="M0.298828 39.461V8.92353C0.298828 2.21104 27.4488 2.21104 27.4488 8.92353V39.461C27.4488 42.7985 20.6238 44.561 13.8738 44.561C7.12383 44.561 0.298828 42.7985 0.298828 39.461ZM25.3113 8.92353C25.3113 8.02353 21.4113 5.96104 13.8738 5.96104C6.33633 5.96104 2.43633 7.98604 2.43633 8.88604C2.43633 9.78604 6.33633 11.8485 13.8738 11.8485C21.4113 11.8485 25.3113 9.82353 25.3113 8.92353ZM2.43633 39.4235C2.43633 40.3235 6.33633 42.386 13.8738 42.386C21.4113 42.386 25.3113 40.3235 25.3113 39.461V31.7985C22.7613 33.261 18.2988 34.011 13.8738 34.011C9.44883 34.011 4.98633 33.261 2.43633 31.7985V39.4235ZM2.43633 28.911C2.43633 29.811 6.33633 31.8735 13.8738 31.8735C21.4113 31.8735 25.3113 29.811 25.3113 28.9485V22.286C22.7613 23.7485 18.2988 24.4985 13.8738 24.4985C9.44883 24.4985 4.98633 23.7485 2.43633 22.286V28.911ZM2.43633 19.3985C2.43633 20.2985 6.33633 22.361 13.8738 22.361C21.4113 22.361 25.3113 20.2985 25.3113 19.436V11.7735C22.7613 13.236 18.2988 13.986 13.8738 13.986C9.44883 13.986 4.98633 13.236 2.43633 11.7735V19.3985ZM22.348 17.5739C22.348 18.3609 21.7101 18.9989 20.923 18.9989C20.136 18.9989 19.498 18.3609 19.498 17.5739C19.498 16.7869 20.136 16.1489 20.923 16.1489C21.7101 16.1489 22.348 16.7869 22.348 17.5739ZM20.923 28.5106C21.7101 28.5106 22.348 27.8727 22.348 27.0856C22.348 26.2986 21.7101 25.6606 20.923 25.6606C20.136 25.6606 19.498 26.2986 19.498 27.0856C19.498 27.8727 20.136 28.5106 20.923 28.5106ZM22.348 38.5985C22.348 39.3855 21.7101 40.0235 20.923 40.0235C20.136 40.0235 19.498 39.3855 19.498 38.5985C19.498 37.8115 20.136 37.1735 20.923 37.1735C21.7101 37.1735 22.348 37.8115 22.348 38.5985Z" fill="#4E66FF"/>
</svg>
