<svg width="32" height="32" viewBox="0 0 32 32" fill="none" xmlns="http://www.w3.org/2000/svg">
<g clip-path="url(#clip0_0_344)">
<path d="M16 0.691406C7.43254 0.691406 0.484863 7.63909 0.484863 16.2066C0.484863 24.774 7.43254 31.7217 16 31.7217C24.5675 31.7217 31.5152 24.774 31.5152 16.2066C31.5152 7.63909 24.5675 0.691406 16 0.691406ZM11.4915 24.146H7.71285V12.7778H11.4915V24.146ZM9.60228 11.2255H9.57766C8.30968 11.2255 7.4896 10.3526 7.4896 9.26172C7.4896 8.14618 8.33476 7.29747 9.62738 7.29747C10.92 7.29747 11.7154 8.14618 11.74 9.26172C11.74 10.3526 10.92 11.2255 9.60228 11.2255ZM25.1165 24.146H21.3383V18.0643C21.3383 16.5359 20.7912 15.4935 19.424 15.4935C18.3802 15.4935 17.7586 16.1966 17.4853 16.8754C17.3854 17.1183 17.3611 17.4578 17.3611 17.7975V24.146H13.5827C13.5827 24.146 13.6321 13.8444 13.5827 12.7778H17.3611V14.3874C17.8632 13.6128 18.7616 12.5111 20.7664 12.5111C23.2524 12.5111 25.1165 14.1358 25.1165 17.6275V24.146Z" fill="black"/>
</g>
<defs>
<clipPath id="clip0_0_344">
<rect width="32" height="32" fill="white"/>
</clipPath>
</defs>
</svg>
