<svg width="32" height="32" viewBox="0 0 32 32" fill="none" xmlns="http://www.w3.org/2000/svg">
<path d="M16.0001 0.755615C7.43136 0.755615 0.484863 7.70212 0.484863 16.2709C0.484863 23.956 6.07841 30.3206 13.4125 31.5531V19.5077H9.66975V15.1732H13.4125V11.977C13.4125 8.26847 15.6775 6.24756 18.9862 6.24756C20.5709 6.24756 21.9327 6.36564 22.3281 6.41765V10.294L20.0333 10.2951C18.2342 10.2951 17.8874 11.1498 17.8874 12.4045V15.1709H22.18L21.6201 19.5056H17.8874V31.6568C25.5638 30.7225 31.5152 24.1957 31.5152 16.2664C31.5152 7.70212 24.5686 0.755615 16.0001 0.755615Z" fill="black"/>
</svg>
